%TF.GenerationSoftware,KiCad,Pcbnew,9.0.6*%
%TF.CreationDate,2026-01-10T21:08:18+05:30*%
%TF.ProjectId,pcb,7063622e-6b69-4636-9164-5f7063625858,rev?*%
%TF.SameCoordinates,Original*%
%TF.FileFunction,Paste,Top*%
%TF.FilePolarity,Positive*%
%FSLAX46Y46*%
G04 Gerber Fmt 4.6, Leading zero omitted, Abs format (unit mm)*
G04 Created by KiCad (PCBNEW 9.0.6) date 2026-01-10 21:08:18*
%MOMM*%
%LPD*%
G01*
G04 APERTURE LIST*
G04 Aperture macros list*
%AMRoundRect*
0 Rectangle with rounded corners*
0 $1 Rounding radius*
0 $2 $3 $4 $5 $6 $7 $8 $9 X,Y pos of 4 corners*
0 Add a 4 corners polygon primitive as box body*
4,1,4,$2,$3,$4,$5,$6,$7,$8,$9,$2,$3,0*
0 Add four circle primitives for the rounded corners*
1,1,$1+$1,$2,$3*
1,1,$1+$1,$4,$5*
1,1,$1+$1,$6,$7*
1,1,$1+$1,$8,$9*
0 Add four rect primitives between the rounded corners*
20,1,$1+$1,$2,$3,$4,$5,0*
20,1,$1+$1,$4,$5,$6,$7,0*
20,1,$1+$1,$6,$7,$8,$9,0*
20,1,$1+$1,$8,$9,$2,$3,0*%
G04 Aperture macros list end*
%ADD10RoundRect,0.225000X0.375000X-0.225000X0.375000X0.225000X-0.375000X0.225000X-0.375000X-0.225000X0*%
%ADD11RoundRect,0.225000X-0.375000X0.225000X-0.375000X-0.225000X0.375000X-0.225000X0.375000X0.225000X0*%
%ADD12RoundRect,0.225000X0.225000X0.375000X-0.225000X0.375000X-0.225000X-0.375000X0.225000X-0.375000X0*%
%ADD13R,3.800000X2.200000*%
G04 APERTURE END LIST*
D10*
%TO.C,D20*%
X91000000Y-92650000D03*
X91000000Y-89350000D03*
%TD*%
D11*
%TO.C,D33*%
X144860000Y-126320000D03*
X144860000Y-129620000D03*
%TD*%
D10*
%TO.C,D18*%
X167000000Y-72950000D03*
X167000000Y-69650000D03*
%TD*%
%TO.C,D27*%
X110000000Y-109350000D03*
X110000000Y-106050000D03*
%TD*%
%TO.C,D16*%
X129000000Y-72950000D03*
X129000000Y-69650000D03*
%TD*%
%TO.C,D15*%
X110100000Y-72950000D03*
X110100000Y-69650000D03*
%TD*%
%TO.C,D4*%
X129000000Y-34350000D03*
X129000000Y-31050000D03*
%TD*%
%TO.C,D23*%
X147550000Y-92650000D03*
X147550000Y-89350000D03*
%TD*%
D12*
%TO.C,D31*%
X107650000Y-134000000D03*
X104350000Y-134000000D03*
%TD*%
D10*
%TO.C,D1*%
X71200000Y-34350000D03*
X71200000Y-31050000D03*
%TD*%
%TO.C,D2*%
X91000000Y-34350000D03*
X91000000Y-31050000D03*
%TD*%
%TO.C,D30*%
X167000000Y-109650000D03*
X167000000Y-106350000D03*
%TD*%
%TO.C,D24*%
X167000000Y-92650000D03*
X167000000Y-89350000D03*
%TD*%
%TO.C,D21*%
X110100000Y-92650000D03*
X110100000Y-89350000D03*
%TD*%
%TO.C,D8*%
X90950000Y-53000000D03*
X90950000Y-49700000D03*
%TD*%
%TO.C,D19*%
X71650000Y-92650000D03*
X71650000Y-89350000D03*
%TD*%
%TO.C,D7*%
X71950000Y-53000000D03*
X71950000Y-49700000D03*
%TD*%
%TO.C,D32*%
X126000000Y-128350000D03*
X126000000Y-125050000D03*
%TD*%
D11*
%TO.C,D34*%
X164000000Y-138350000D03*
X164000000Y-141650000D03*
%TD*%
D10*
%TO.C,D26*%
X91000000Y-109350000D03*
X91000000Y-106050000D03*
%TD*%
%TO.C,D14*%
X91000000Y-72950000D03*
X91000000Y-69650000D03*
%TD*%
%TO.C,D5*%
X148000000Y-34350000D03*
X148000000Y-31050000D03*
%TD*%
%TO.C,D9*%
X109950000Y-53000000D03*
X109950000Y-49700000D03*
%TD*%
%TO.C,D17*%
X147550000Y-72950000D03*
X147550000Y-69650000D03*
%TD*%
%TO.C,D28*%
X129000000Y-109650000D03*
X129000000Y-106350000D03*
%TD*%
%TO.C,D12*%
X167000000Y-54665000D03*
X167000000Y-51365000D03*
%TD*%
%TO.C,D29*%
X148000000Y-109350000D03*
X148000000Y-106050000D03*
%TD*%
%TO.C,D22*%
X128550000Y-92650000D03*
X128550000Y-89350000D03*
%TD*%
D13*
%TO.C,A1*%
X184030000Y-19125000D03*
X184030000Y-21665000D03*
X184030000Y-24205000D03*
X184030000Y-26745000D03*
X184030000Y-29285000D03*
X184030000Y-31825000D03*
X184030000Y-34365000D03*
X184030000Y-36905000D03*
X184030000Y-39445000D03*
X184030000Y-41985000D03*
X184030000Y-44525000D03*
X184030000Y-47065000D03*
X184030000Y-49605000D03*
X184030000Y-52145000D03*
X184030000Y-54685000D03*
X184030000Y-57225000D03*
X184030000Y-59765000D03*
X184030000Y-62305000D03*
X184030000Y-64845000D03*
X184030000Y-67385000D03*
X203410000Y-19125000D03*
X203410000Y-21665000D03*
X203410000Y-24205000D03*
X203410000Y-26745000D03*
X203410000Y-29285000D03*
X203410000Y-31825000D03*
X203410000Y-34365000D03*
X203410000Y-36905000D03*
X203410000Y-39445000D03*
X203410000Y-41985000D03*
X203410000Y-44525000D03*
X203410000Y-47065000D03*
X203410000Y-49605000D03*
X203410000Y-52145000D03*
X203410000Y-54685000D03*
X203410000Y-57225000D03*
X203410000Y-59765000D03*
X203410000Y-62305000D03*
X203410000Y-64845000D03*
X203410000Y-67385000D03*
%TD*%
D10*
%TO.C,D6*%
X167000000Y-34350000D03*
X167000000Y-31050000D03*
%TD*%
%TO.C,D11*%
X148425000Y-53575000D03*
X148425000Y-50275000D03*
%TD*%
%TO.C,D10*%
X128950000Y-53015000D03*
X128950000Y-49715000D03*
%TD*%
%TO.C,D25*%
X71550000Y-109350000D03*
X71550000Y-106050000D03*
%TD*%
%TO.C,D3*%
X110000000Y-34350000D03*
X110000000Y-31050000D03*
%TD*%
%TO.C,D13*%
X72000000Y-72950000D03*
X72000000Y-69650000D03*
%TD*%
M02*
