%TF.GenerationSoftware,KiCad,Pcbnew,9.0.6*%
%TF.CreationDate,2026-01-10T21:08:18+05:30*%
%TF.ProjectId,pcb,7063622e-6b69-4636-9164-5f7063625858,rev?*%
%TF.SameCoordinates,Original*%
%TF.FileFunction,Legend,Top*%
%TF.FilePolarity,Positive*%
%FSLAX46Y46*%
G04 Gerber Fmt 4.6, Leading zero omitted, Abs format (unit mm)*
G04 Created by KiCad (PCBNEW 9.0.6) date 2026-01-10 21:08:18*
%MOMM*%
%LPD*%
G01*
G04 APERTURE LIST*
%ADD10C,1.000000*%
%ADD11C,0.150000*%
%ADD12C,0.300000*%
%ADD13C,0.120000*%
%ADD14C,0.000000*%
G04 APERTURE END LIST*
D10*
G36*
X90216385Y-109195304D02*
G01*
X86373682Y-89135529D01*
X78531760Y-96977450D01*
X75389594Y-93835284D01*
X87594496Y-81630383D01*
X90543447Y-84579334D01*
X94132488Y-104892772D01*
X102664154Y-96361106D01*
X105806319Y-99503272D01*
X93165336Y-112144255D01*
X90216385Y-109195304D01*
G37*
G36*
X90905049Y-78319829D02*
G01*
X102142798Y-67082081D01*
X105284964Y-70224246D01*
X97611430Y-77897780D01*
X101502707Y-81789057D01*
X108451956Y-74839808D01*
X111594122Y-77981974D01*
X104644873Y-84931222D01*
X109369455Y-89655805D01*
X117042989Y-81982271D01*
X120185154Y-85124437D01*
X108947406Y-96362186D01*
X90905049Y-78319829D01*
G37*
G36*
X129598698Y-76412510D02*
G01*
X127860175Y-77905610D01*
X126246068Y-78847121D01*
X124721166Y-79336217D01*
X123243126Y-79432702D01*
X121774110Y-79154961D01*
X120176216Y-78478698D01*
X118406740Y-77320088D01*
X116426645Y-75565172D01*
X105043176Y-64181703D01*
X108607391Y-60617488D01*
X120885692Y-72895789D01*
X121856258Y-73696096D01*
X122785796Y-74156279D01*
X123700796Y-74333564D01*
X124621578Y-74243690D01*
X125501829Y-73874737D01*
X126372339Y-73186150D01*
X127061568Y-72314892D01*
X127430415Y-71434667D01*
X127519753Y-70514608D01*
X127342467Y-69599608D01*
X126882285Y-68670070D01*
X126081977Y-67699504D01*
X113803676Y-55421203D01*
X117368971Y-51855908D01*
X128752440Y-63239377D01*
X130537539Y-65250776D01*
X131702063Y-67025637D01*
X132369687Y-68607721D01*
X132631844Y-70043985D01*
X132588486Y-71218015D01*
X132297254Y-72420039D01*
X131732974Y-73673221D01*
X130852847Y-74998224D01*
X129598698Y-76412510D01*
G37*
G36*
X144075760Y-61935449D02*
G01*
X142588331Y-63276077D01*
X140970294Y-64412697D01*
X139202192Y-65369717D01*
X137403920Y-66068514D01*
X133718811Y-62383404D01*
X136074886Y-61839196D01*
X137996517Y-61125890D01*
X139723803Y-60150145D01*
X141101982Y-59011324D01*
X141893764Y-58067915D01*
X142361581Y-57185404D01*
X142564584Y-56339782D01*
X142521835Y-55503416D01*
X142218604Y-54716709D01*
X141621179Y-53947807D01*
X140716946Y-53290147D01*
X139712780Y-53004401D01*
X138552413Y-53065928D01*
X137356426Y-53452357D01*
X134939625Y-54539324D01*
X133062052Y-55300203D01*
X131584815Y-55754741D01*
X130196640Y-56006755D01*
X129126996Y-56025673D01*
X127829648Y-55751900D01*
X126511906Y-55085357D01*
X125138572Y-53947807D01*
X124032848Y-52628346D01*
X123311195Y-51300875D01*
X122925130Y-49942456D01*
X122855617Y-48521607D01*
X123088275Y-47104683D01*
X123623895Y-45696648D01*
X124495032Y-44273757D01*
X125754916Y-42817999D01*
X127139215Y-41570863D01*
X128529002Y-40577142D01*
X130036469Y-39744574D01*
X131844953Y-38975295D01*
X135326054Y-42456396D01*
X133365359Y-42917462D01*
X131678048Y-43582208D01*
X130226783Y-44439164D01*
X128982355Y-45488462D01*
X128192305Y-46413377D01*
X127732556Y-47233810D01*
X127531626Y-47977584D01*
X127542791Y-48748028D01*
X127796099Y-49458314D01*
X128317438Y-50140724D01*
X128861676Y-50567591D01*
X129439185Y-50807873D01*
X130069322Y-50877961D01*
X131283659Y-50654523D01*
X133248187Y-49875189D01*
X135361674Y-48920989D01*
X137400644Y-48151804D01*
X139149199Y-47809589D01*
X140666980Y-47821069D01*
X142150532Y-48193401D01*
X143614951Y-48961535D01*
X145090406Y-50189297D01*
X146298542Y-51624749D01*
X147061228Y-53022016D01*
X147445699Y-54408614D01*
X147483461Y-55820585D01*
X147204183Y-57212174D01*
X146585610Y-58675958D01*
X145569753Y-60241821D01*
X144075760Y-61935449D01*
G37*
D11*
X89454819Y-92214285D02*
X88454819Y-92214285D01*
X88454819Y-92214285D02*
X88454819Y-91976190D01*
X88454819Y-91976190D02*
X88502438Y-91833333D01*
X88502438Y-91833333D02*
X88597676Y-91738095D01*
X88597676Y-91738095D02*
X88692914Y-91690476D01*
X88692914Y-91690476D02*
X88883390Y-91642857D01*
X88883390Y-91642857D02*
X89026247Y-91642857D01*
X89026247Y-91642857D02*
X89216723Y-91690476D01*
X89216723Y-91690476D02*
X89311961Y-91738095D01*
X89311961Y-91738095D02*
X89407200Y-91833333D01*
X89407200Y-91833333D02*
X89454819Y-91976190D01*
X89454819Y-91976190D02*
X89454819Y-92214285D01*
X88550057Y-91261904D02*
X88502438Y-91214285D01*
X88502438Y-91214285D02*
X88454819Y-91119047D01*
X88454819Y-91119047D02*
X88454819Y-90880952D01*
X88454819Y-90880952D02*
X88502438Y-90785714D01*
X88502438Y-90785714D02*
X88550057Y-90738095D01*
X88550057Y-90738095D02*
X88645295Y-90690476D01*
X88645295Y-90690476D02*
X88740533Y-90690476D01*
X88740533Y-90690476D02*
X88883390Y-90738095D01*
X88883390Y-90738095D02*
X89454819Y-91309523D01*
X89454819Y-91309523D02*
X89454819Y-90690476D01*
X88454819Y-90071428D02*
X88454819Y-89976190D01*
X88454819Y-89976190D02*
X88502438Y-89880952D01*
X88502438Y-89880952D02*
X88550057Y-89833333D01*
X88550057Y-89833333D02*
X88645295Y-89785714D01*
X88645295Y-89785714D02*
X88835771Y-89738095D01*
X88835771Y-89738095D02*
X89073866Y-89738095D01*
X89073866Y-89738095D02*
X89264342Y-89785714D01*
X89264342Y-89785714D02*
X89359580Y-89833333D01*
X89359580Y-89833333D02*
X89407200Y-89880952D01*
X89407200Y-89880952D02*
X89454819Y-89976190D01*
X89454819Y-89976190D02*
X89454819Y-90071428D01*
X89454819Y-90071428D02*
X89407200Y-90166666D01*
X89407200Y-90166666D02*
X89359580Y-90214285D01*
X89359580Y-90214285D02*
X89264342Y-90261904D01*
X89264342Y-90261904D02*
X89073866Y-90309523D01*
X89073866Y-90309523D02*
X88835771Y-90309523D01*
X88835771Y-90309523D02*
X88645295Y-90261904D01*
X88645295Y-90261904D02*
X88550057Y-90214285D01*
X88550057Y-90214285D02*
X88502438Y-90166666D01*
X88502438Y-90166666D02*
X88454819Y-90071428D01*
X147314819Y-129184285D02*
X146314819Y-129184285D01*
X146314819Y-129184285D02*
X146314819Y-128946190D01*
X146314819Y-128946190D02*
X146362438Y-128803333D01*
X146362438Y-128803333D02*
X146457676Y-128708095D01*
X146457676Y-128708095D02*
X146552914Y-128660476D01*
X146552914Y-128660476D02*
X146743390Y-128612857D01*
X146743390Y-128612857D02*
X146886247Y-128612857D01*
X146886247Y-128612857D02*
X147076723Y-128660476D01*
X147076723Y-128660476D02*
X147171961Y-128708095D01*
X147171961Y-128708095D02*
X147267200Y-128803333D01*
X147267200Y-128803333D02*
X147314819Y-128946190D01*
X147314819Y-128946190D02*
X147314819Y-129184285D01*
X146314819Y-128279523D02*
X146314819Y-127660476D01*
X146314819Y-127660476D02*
X146695771Y-127993809D01*
X146695771Y-127993809D02*
X146695771Y-127850952D01*
X146695771Y-127850952D02*
X146743390Y-127755714D01*
X146743390Y-127755714D02*
X146791009Y-127708095D01*
X146791009Y-127708095D02*
X146886247Y-127660476D01*
X146886247Y-127660476D02*
X147124342Y-127660476D01*
X147124342Y-127660476D02*
X147219580Y-127708095D01*
X147219580Y-127708095D02*
X147267200Y-127755714D01*
X147267200Y-127755714D02*
X147314819Y-127850952D01*
X147314819Y-127850952D02*
X147314819Y-128136666D01*
X147314819Y-128136666D02*
X147267200Y-128231904D01*
X147267200Y-128231904D02*
X147219580Y-128279523D01*
X146314819Y-127327142D02*
X146314819Y-126708095D01*
X146314819Y-126708095D02*
X146695771Y-127041428D01*
X146695771Y-127041428D02*
X146695771Y-126898571D01*
X146695771Y-126898571D02*
X146743390Y-126803333D01*
X146743390Y-126803333D02*
X146791009Y-126755714D01*
X146791009Y-126755714D02*
X146886247Y-126708095D01*
X146886247Y-126708095D02*
X147124342Y-126708095D01*
X147124342Y-126708095D02*
X147219580Y-126755714D01*
X147219580Y-126755714D02*
X147267200Y-126803333D01*
X147267200Y-126803333D02*
X147314819Y-126898571D01*
X147314819Y-126898571D02*
X147314819Y-127184285D01*
X147314819Y-127184285D02*
X147267200Y-127279523D01*
X147267200Y-127279523D02*
X147219580Y-127327142D01*
X138190476Y-63708200D02*
X138333333Y-63755819D01*
X138333333Y-63755819D02*
X138571428Y-63755819D01*
X138571428Y-63755819D02*
X138666666Y-63708200D01*
X138666666Y-63708200D02*
X138714285Y-63660580D01*
X138714285Y-63660580D02*
X138761904Y-63565342D01*
X138761904Y-63565342D02*
X138761904Y-63470104D01*
X138761904Y-63470104D02*
X138714285Y-63374866D01*
X138714285Y-63374866D02*
X138666666Y-63327247D01*
X138666666Y-63327247D02*
X138571428Y-63279628D01*
X138571428Y-63279628D02*
X138380952Y-63232009D01*
X138380952Y-63232009D02*
X138285714Y-63184390D01*
X138285714Y-63184390D02*
X138238095Y-63136771D01*
X138238095Y-63136771D02*
X138190476Y-63041533D01*
X138190476Y-63041533D02*
X138190476Y-62946295D01*
X138190476Y-62946295D02*
X138238095Y-62851057D01*
X138238095Y-62851057D02*
X138285714Y-62803438D01*
X138285714Y-62803438D02*
X138380952Y-62755819D01*
X138380952Y-62755819D02*
X138619047Y-62755819D01*
X138619047Y-62755819D02*
X138761904Y-62803438D01*
X139095238Y-62755819D02*
X139333333Y-63755819D01*
X139333333Y-63755819D02*
X139523809Y-63041533D01*
X139523809Y-63041533D02*
X139714285Y-63755819D01*
X139714285Y-63755819D02*
X139952381Y-62755819D01*
X140857142Y-63755819D02*
X140285714Y-63755819D01*
X140571428Y-63755819D02*
X140571428Y-62755819D01*
X140571428Y-62755819D02*
X140476190Y-62898676D01*
X140476190Y-62898676D02*
X140380952Y-62993914D01*
X140380952Y-62993914D02*
X140285714Y-63041533D01*
X141190476Y-62755819D02*
X141857142Y-62755819D01*
X141857142Y-62755819D02*
X141428571Y-63755819D01*
X165454819Y-72514285D02*
X164454819Y-72514285D01*
X164454819Y-72514285D02*
X164454819Y-72276190D01*
X164454819Y-72276190D02*
X164502438Y-72133333D01*
X164502438Y-72133333D02*
X164597676Y-72038095D01*
X164597676Y-72038095D02*
X164692914Y-71990476D01*
X164692914Y-71990476D02*
X164883390Y-71942857D01*
X164883390Y-71942857D02*
X165026247Y-71942857D01*
X165026247Y-71942857D02*
X165216723Y-71990476D01*
X165216723Y-71990476D02*
X165311961Y-72038095D01*
X165311961Y-72038095D02*
X165407200Y-72133333D01*
X165407200Y-72133333D02*
X165454819Y-72276190D01*
X165454819Y-72276190D02*
X165454819Y-72514285D01*
X165454819Y-70990476D02*
X165454819Y-71561904D01*
X165454819Y-71276190D02*
X164454819Y-71276190D01*
X164454819Y-71276190D02*
X164597676Y-71371428D01*
X164597676Y-71371428D02*
X164692914Y-71466666D01*
X164692914Y-71466666D02*
X164740533Y-71561904D01*
X164883390Y-70419047D02*
X164835771Y-70514285D01*
X164835771Y-70514285D02*
X164788152Y-70561904D01*
X164788152Y-70561904D02*
X164692914Y-70609523D01*
X164692914Y-70609523D02*
X164645295Y-70609523D01*
X164645295Y-70609523D02*
X164550057Y-70561904D01*
X164550057Y-70561904D02*
X164502438Y-70514285D01*
X164502438Y-70514285D02*
X164454819Y-70419047D01*
X164454819Y-70419047D02*
X164454819Y-70228571D01*
X164454819Y-70228571D02*
X164502438Y-70133333D01*
X164502438Y-70133333D02*
X164550057Y-70085714D01*
X164550057Y-70085714D02*
X164645295Y-70038095D01*
X164645295Y-70038095D02*
X164692914Y-70038095D01*
X164692914Y-70038095D02*
X164788152Y-70085714D01*
X164788152Y-70085714D02*
X164835771Y-70133333D01*
X164835771Y-70133333D02*
X164883390Y-70228571D01*
X164883390Y-70228571D02*
X164883390Y-70419047D01*
X164883390Y-70419047D02*
X164931009Y-70514285D01*
X164931009Y-70514285D02*
X164978628Y-70561904D01*
X164978628Y-70561904D02*
X165073866Y-70609523D01*
X165073866Y-70609523D02*
X165264342Y-70609523D01*
X165264342Y-70609523D02*
X165359580Y-70561904D01*
X165359580Y-70561904D02*
X165407200Y-70514285D01*
X165407200Y-70514285D02*
X165454819Y-70419047D01*
X165454819Y-70419047D02*
X165454819Y-70228571D01*
X165454819Y-70228571D02*
X165407200Y-70133333D01*
X165407200Y-70133333D02*
X165359580Y-70085714D01*
X165359580Y-70085714D02*
X165264342Y-70038095D01*
X165264342Y-70038095D02*
X165073866Y-70038095D01*
X165073866Y-70038095D02*
X164978628Y-70085714D01*
X164978628Y-70085714D02*
X164931009Y-70133333D01*
X164931009Y-70133333D02*
X164883390Y-70228571D01*
X157290476Y-82833200D02*
X157433333Y-82880819D01*
X157433333Y-82880819D02*
X157671428Y-82880819D01*
X157671428Y-82880819D02*
X157766666Y-82833200D01*
X157766666Y-82833200D02*
X157814285Y-82785580D01*
X157814285Y-82785580D02*
X157861904Y-82690342D01*
X157861904Y-82690342D02*
X157861904Y-82595104D01*
X157861904Y-82595104D02*
X157814285Y-82499866D01*
X157814285Y-82499866D02*
X157766666Y-82452247D01*
X157766666Y-82452247D02*
X157671428Y-82404628D01*
X157671428Y-82404628D02*
X157480952Y-82357009D01*
X157480952Y-82357009D02*
X157385714Y-82309390D01*
X157385714Y-82309390D02*
X157338095Y-82261771D01*
X157338095Y-82261771D02*
X157290476Y-82166533D01*
X157290476Y-82166533D02*
X157290476Y-82071295D01*
X157290476Y-82071295D02*
X157338095Y-81976057D01*
X157338095Y-81976057D02*
X157385714Y-81928438D01*
X157385714Y-81928438D02*
X157480952Y-81880819D01*
X157480952Y-81880819D02*
X157719047Y-81880819D01*
X157719047Y-81880819D02*
X157861904Y-81928438D01*
X158195238Y-81880819D02*
X158433333Y-82880819D01*
X158433333Y-82880819D02*
X158623809Y-82166533D01*
X158623809Y-82166533D02*
X158814285Y-82880819D01*
X158814285Y-82880819D02*
X159052381Y-81880819D01*
X159385714Y-81976057D02*
X159433333Y-81928438D01*
X159433333Y-81928438D02*
X159528571Y-81880819D01*
X159528571Y-81880819D02*
X159766666Y-81880819D01*
X159766666Y-81880819D02*
X159861904Y-81928438D01*
X159861904Y-81928438D02*
X159909523Y-81976057D01*
X159909523Y-81976057D02*
X159957142Y-82071295D01*
X159957142Y-82071295D02*
X159957142Y-82166533D01*
X159957142Y-82166533D02*
X159909523Y-82309390D01*
X159909523Y-82309390D02*
X159338095Y-82880819D01*
X159338095Y-82880819D02*
X159957142Y-82880819D01*
X160814285Y-82214152D02*
X160814285Y-82880819D01*
X160576190Y-81833200D02*
X160338095Y-82547485D01*
X160338095Y-82547485D02*
X160957142Y-82547485D01*
X62010476Y-101883200D02*
X62153333Y-101930819D01*
X62153333Y-101930819D02*
X62391428Y-101930819D01*
X62391428Y-101930819D02*
X62486666Y-101883200D01*
X62486666Y-101883200D02*
X62534285Y-101835580D01*
X62534285Y-101835580D02*
X62581904Y-101740342D01*
X62581904Y-101740342D02*
X62581904Y-101645104D01*
X62581904Y-101645104D02*
X62534285Y-101549866D01*
X62534285Y-101549866D02*
X62486666Y-101502247D01*
X62486666Y-101502247D02*
X62391428Y-101454628D01*
X62391428Y-101454628D02*
X62200952Y-101407009D01*
X62200952Y-101407009D02*
X62105714Y-101359390D01*
X62105714Y-101359390D02*
X62058095Y-101311771D01*
X62058095Y-101311771D02*
X62010476Y-101216533D01*
X62010476Y-101216533D02*
X62010476Y-101121295D01*
X62010476Y-101121295D02*
X62058095Y-101026057D01*
X62058095Y-101026057D02*
X62105714Y-100978438D01*
X62105714Y-100978438D02*
X62200952Y-100930819D01*
X62200952Y-100930819D02*
X62439047Y-100930819D01*
X62439047Y-100930819D02*
X62581904Y-100978438D01*
X62915238Y-100930819D02*
X63153333Y-101930819D01*
X63153333Y-101930819D02*
X63343809Y-101216533D01*
X63343809Y-101216533D02*
X63534285Y-101930819D01*
X63534285Y-101930819D02*
X63772381Y-100930819D01*
X64105714Y-101026057D02*
X64153333Y-100978438D01*
X64153333Y-100978438D02*
X64248571Y-100930819D01*
X64248571Y-100930819D02*
X64486666Y-100930819D01*
X64486666Y-100930819D02*
X64581904Y-100978438D01*
X64581904Y-100978438D02*
X64629523Y-101026057D01*
X64629523Y-101026057D02*
X64677142Y-101121295D01*
X64677142Y-101121295D02*
X64677142Y-101216533D01*
X64677142Y-101216533D02*
X64629523Y-101359390D01*
X64629523Y-101359390D02*
X64058095Y-101930819D01*
X64058095Y-101930819D02*
X64677142Y-101930819D01*
X65581904Y-100930819D02*
X65105714Y-100930819D01*
X65105714Y-100930819D02*
X65058095Y-101407009D01*
X65058095Y-101407009D02*
X65105714Y-101359390D01*
X65105714Y-101359390D02*
X65200952Y-101311771D01*
X65200952Y-101311771D02*
X65439047Y-101311771D01*
X65439047Y-101311771D02*
X65534285Y-101359390D01*
X65534285Y-101359390D02*
X65581904Y-101407009D01*
X65581904Y-101407009D02*
X65629523Y-101502247D01*
X65629523Y-101502247D02*
X65629523Y-101740342D01*
X65629523Y-101740342D02*
X65581904Y-101835580D01*
X65581904Y-101835580D02*
X65534285Y-101883200D01*
X65534285Y-101883200D02*
X65439047Y-101930819D01*
X65439047Y-101930819D02*
X65200952Y-101930819D01*
X65200952Y-101930819D02*
X65105714Y-101883200D01*
X65105714Y-101883200D02*
X65058095Y-101835580D01*
X108454819Y-108914285D02*
X107454819Y-108914285D01*
X107454819Y-108914285D02*
X107454819Y-108676190D01*
X107454819Y-108676190D02*
X107502438Y-108533333D01*
X107502438Y-108533333D02*
X107597676Y-108438095D01*
X107597676Y-108438095D02*
X107692914Y-108390476D01*
X107692914Y-108390476D02*
X107883390Y-108342857D01*
X107883390Y-108342857D02*
X108026247Y-108342857D01*
X108026247Y-108342857D02*
X108216723Y-108390476D01*
X108216723Y-108390476D02*
X108311961Y-108438095D01*
X108311961Y-108438095D02*
X108407200Y-108533333D01*
X108407200Y-108533333D02*
X108454819Y-108676190D01*
X108454819Y-108676190D02*
X108454819Y-108914285D01*
X107550057Y-107961904D02*
X107502438Y-107914285D01*
X107502438Y-107914285D02*
X107454819Y-107819047D01*
X107454819Y-107819047D02*
X107454819Y-107580952D01*
X107454819Y-107580952D02*
X107502438Y-107485714D01*
X107502438Y-107485714D02*
X107550057Y-107438095D01*
X107550057Y-107438095D02*
X107645295Y-107390476D01*
X107645295Y-107390476D02*
X107740533Y-107390476D01*
X107740533Y-107390476D02*
X107883390Y-107438095D01*
X107883390Y-107438095D02*
X108454819Y-108009523D01*
X108454819Y-108009523D02*
X108454819Y-107390476D01*
X107454819Y-107057142D02*
X107454819Y-106390476D01*
X107454819Y-106390476D02*
X108454819Y-106819047D01*
X127454819Y-72514285D02*
X126454819Y-72514285D01*
X126454819Y-72514285D02*
X126454819Y-72276190D01*
X126454819Y-72276190D02*
X126502438Y-72133333D01*
X126502438Y-72133333D02*
X126597676Y-72038095D01*
X126597676Y-72038095D02*
X126692914Y-71990476D01*
X126692914Y-71990476D02*
X126883390Y-71942857D01*
X126883390Y-71942857D02*
X127026247Y-71942857D01*
X127026247Y-71942857D02*
X127216723Y-71990476D01*
X127216723Y-71990476D02*
X127311961Y-72038095D01*
X127311961Y-72038095D02*
X127407200Y-72133333D01*
X127407200Y-72133333D02*
X127454819Y-72276190D01*
X127454819Y-72276190D02*
X127454819Y-72514285D01*
X127454819Y-70990476D02*
X127454819Y-71561904D01*
X127454819Y-71276190D02*
X126454819Y-71276190D01*
X126454819Y-71276190D02*
X126597676Y-71371428D01*
X126597676Y-71371428D02*
X126692914Y-71466666D01*
X126692914Y-71466666D02*
X126740533Y-71561904D01*
X126454819Y-70133333D02*
X126454819Y-70323809D01*
X126454819Y-70323809D02*
X126502438Y-70419047D01*
X126502438Y-70419047D02*
X126550057Y-70466666D01*
X126550057Y-70466666D02*
X126692914Y-70561904D01*
X126692914Y-70561904D02*
X126883390Y-70609523D01*
X126883390Y-70609523D02*
X127264342Y-70609523D01*
X127264342Y-70609523D02*
X127359580Y-70561904D01*
X127359580Y-70561904D02*
X127407200Y-70514285D01*
X127407200Y-70514285D02*
X127454819Y-70419047D01*
X127454819Y-70419047D02*
X127454819Y-70228571D01*
X127454819Y-70228571D02*
X127407200Y-70133333D01*
X127407200Y-70133333D02*
X127359580Y-70085714D01*
X127359580Y-70085714D02*
X127264342Y-70038095D01*
X127264342Y-70038095D02*
X127026247Y-70038095D01*
X127026247Y-70038095D02*
X126931009Y-70085714D01*
X126931009Y-70085714D02*
X126883390Y-70133333D01*
X126883390Y-70133333D02*
X126835771Y-70228571D01*
X126835771Y-70228571D02*
X126835771Y-70419047D01*
X126835771Y-70419047D02*
X126883390Y-70514285D01*
X126883390Y-70514285D02*
X126931009Y-70561904D01*
X126931009Y-70561904D02*
X127026247Y-70609523D01*
X100501667Y-44658200D02*
X100644524Y-44705819D01*
X100644524Y-44705819D02*
X100882619Y-44705819D01*
X100882619Y-44705819D02*
X100977857Y-44658200D01*
X100977857Y-44658200D02*
X101025476Y-44610580D01*
X101025476Y-44610580D02*
X101073095Y-44515342D01*
X101073095Y-44515342D02*
X101073095Y-44420104D01*
X101073095Y-44420104D02*
X101025476Y-44324866D01*
X101025476Y-44324866D02*
X100977857Y-44277247D01*
X100977857Y-44277247D02*
X100882619Y-44229628D01*
X100882619Y-44229628D02*
X100692143Y-44182009D01*
X100692143Y-44182009D02*
X100596905Y-44134390D01*
X100596905Y-44134390D02*
X100549286Y-44086771D01*
X100549286Y-44086771D02*
X100501667Y-43991533D01*
X100501667Y-43991533D02*
X100501667Y-43896295D01*
X100501667Y-43896295D02*
X100549286Y-43801057D01*
X100549286Y-43801057D02*
X100596905Y-43753438D01*
X100596905Y-43753438D02*
X100692143Y-43705819D01*
X100692143Y-43705819D02*
X100930238Y-43705819D01*
X100930238Y-43705819D02*
X101073095Y-43753438D01*
X101406429Y-43705819D02*
X101644524Y-44705819D01*
X101644524Y-44705819D02*
X101835000Y-43991533D01*
X101835000Y-43991533D02*
X102025476Y-44705819D01*
X102025476Y-44705819D02*
X102263572Y-43705819D01*
X102692143Y-44705819D02*
X102882619Y-44705819D01*
X102882619Y-44705819D02*
X102977857Y-44658200D01*
X102977857Y-44658200D02*
X103025476Y-44610580D01*
X103025476Y-44610580D02*
X103120714Y-44467723D01*
X103120714Y-44467723D02*
X103168333Y-44277247D01*
X103168333Y-44277247D02*
X103168333Y-43896295D01*
X103168333Y-43896295D02*
X103120714Y-43801057D01*
X103120714Y-43801057D02*
X103073095Y-43753438D01*
X103073095Y-43753438D02*
X102977857Y-43705819D01*
X102977857Y-43705819D02*
X102787381Y-43705819D01*
X102787381Y-43705819D02*
X102692143Y-43753438D01*
X102692143Y-43753438D02*
X102644524Y-43801057D01*
X102644524Y-43801057D02*
X102596905Y-43896295D01*
X102596905Y-43896295D02*
X102596905Y-44134390D01*
X102596905Y-44134390D02*
X102644524Y-44229628D01*
X102644524Y-44229628D02*
X102692143Y-44277247D01*
X102692143Y-44277247D02*
X102787381Y-44324866D01*
X102787381Y-44324866D02*
X102977857Y-44324866D01*
X102977857Y-44324866D02*
X103073095Y-44277247D01*
X103073095Y-44277247D02*
X103120714Y-44229628D01*
X103120714Y-44229628D02*
X103168333Y-44134390D01*
X81516667Y-44653200D02*
X81659524Y-44700819D01*
X81659524Y-44700819D02*
X81897619Y-44700819D01*
X81897619Y-44700819D02*
X81992857Y-44653200D01*
X81992857Y-44653200D02*
X82040476Y-44605580D01*
X82040476Y-44605580D02*
X82088095Y-44510342D01*
X82088095Y-44510342D02*
X82088095Y-44415104D01*
X82088095Y-44415104D02*
X82040476Y-44319866D01*
X82040476Y-44319866D02*
X81992857Y-44272247D01*
X81992857Y-44272247D02*
X81897619Y-44224628D01*
X81897619Y-44224628D02*
X81707143Y-44177009D01*
X81707143Y-44177009D02*
X81611905Y-44129390D01*
X81611905Y-44129390D02*
X81564286Y-44081771D01*
X81564286Y-44081771D02*
X81516667Y-43986533D01*
X81516667Y-43986533D02*
X81516667Y-43891295D01*
X81516667Y-43891295D02*
X81564286Y-43796057D01*
X81564286Y-43796057D02*
X81611905Y-43748438D01*
X81611905Y-43748438D02*
X81707143Y-43700819D01*
X81707143Y-43700819D02*
X81945238Y-43700819D01*
X81945238Y-43700819D02*
X82088095Y-43748438D01*
X82421429Y-43700819D02*
X82659524Y-44700819D01*
X82659524Y-44700819D02*
X82850000Y-43986533D01*
X82850000Y-43986533D02*
X83040476Y-44700819D01*
X83040476Y-44700819D02*
X83278572Y-43700819D01*
X83802381Y-44129390D02*
X83707143Y-44081771D01*
X83707143Y-44081771D02*
X83659524Y-44034152D01*
X83659524Y-44034152D02*
X83611905Y-43938914D01*
X83611905Y-43938914D02*
X83611905Y-43891295D01*
X83611905Y-43891295D02*
X83659524Y-43796057D01*
X83659524Y-43796057D02*
X83707143Y-43748438D01*
X83707143Y-43748438D02*
X83802381Y-43700819D01*
X83802381Y-43700819D02*
X83992857Y-43700819D01*
X83992857Y-43700819D02*
X84088095Y-43748438D01*
X84088095Y-43748438D02*
X84135714Y-43796057D01*
X84135714Y-43796057D02*
X84183333Y-43891295D01*
X84183333Y-43891295D02*
X84183333Y-43938914D01*
X84183333Y-43938914D02*
X84135714Y-44034152D01*
X84135714Y-44034152D02*
X84088095Y-44081771D01*
X84088095Y-44081771D02*
X83992857Y-44129390D01*
X83992857Y-44129390D02*
X83802381Y-44129390D01*
X83802381Y-44129390D02*
X83707143Y-44177009D01*
X83707143Y-44177009D02*
X83659524Y-44224628D01*
X83659524Y-44224628D02*
X83611905Y-44319866D01*
X83611905Y-44319866D02*
X83611905Y-44510342D01*
X83611905Y-44510342D02*
X83659524Y-44605580D01*
X83659524Y-44605580D02*
X83707143Y-44653200D01*
X83707143Y-44653200D02*
X83802381Y-44700819D01*
X83802381Y-44700819D02*
X83992857Y-44700819D01*
X83992857Y-44700819D02*
X84088095Y-44653200D01*
X84088095Y-44653200D02*
X84135714Y-44605580D01*
X84135714Y-44605580D02*
X84183333Y-44510342D01*
X84183333Y-44510342D02*
X84183333Y-44319866D01*
X84183333Y-44319866D02*
X84135714Y-44224628D01*
X84135714Y-44224628D02*
X84088095Y-44177009D01*
X84088095Y-44177009D02*
X83992857Y-44129390D01*
D12*
X193249757Y-108571427D02*
X193178328Y-108714285D01*
X193178328Y-108714285D02*
X193178328Y-108928570D01*
X193178328Y-108928570D02*
X193249757Y-109142856D01*
X193249757Y-109142856D02*
X193392614Y-109285713D01*
X193392614Y-109285713D02*
X193535471Y-109357142D01*
X193535471Y-109357142D02*
X193821185Y-109428570D01*
X193821185Y-109428570D02*
X194035471Y-109428570D01*
X194035471Y-109428570D02*
X194321185Y-109357142D01*
X194321185Y-109357142D02*
X194464042Y-109285713D01*
X194464042Y-109285713D02*
X194606900Y-109142856D01*
X194606900Y-109142856D02*
X194678328Y-108928570D01*
X194678328Y-108928570D02*
X194678328Y-108785713D01*
X194678328Y-108785713D02*
X194606900Y-108571427D01*
X194606900Y-108571427D02*
X194535471Y-108499999D01*
X194535471Y-108499999D02*
X194035471Y-108499999D01*
X194035471Y-108499999D02*
X194035471Y-108785713D01*
X193178328Y-107642856D02*
X193535471Y-107642856D01*
X193392614Y-107999999D02*
X193535471Y-107642856D01*
X193535471Y-107642856D02*
X193392614Y-107285713D01*
X193821185Y-107857142D02*
X193535471Y-107642856D01*
X193535471Y-107642856D02*
X193821185Y-107428570D01*
X193178328Y-106499999D02*
X193535471Y-106499999D01*
X193392614Y-106857142D02*
X193535471Y-106499999D01*
X193535471Y-106499999D02*
X193392614Y-106142856D01*
X193821185Y-106714285D02*
X193535471Y-106499999D01*
X193535471Y-106499999D02*
X193821185Y-106285713D01*
X193178328Y-105357142D02*
X193535471Y-105357142D01*
X193392614Y-105714285D02*
X193535471Y-105357142D01*
X193535471Y-105357142D02*
X193392614Y-104999999D01*
X193821185Y-105571428D02*
X193535471Y-105357142D01*
X193535471Y-105357142D02*
X193821185Y-105142856D01*
D11*
X108554819Y-72514285D02*
X107554819Y-72514285D01*
X107554819Y-72514285D02*
X107554819Y-72276190D01*
X107554819Y-72276190D02*
X107602438Y-72133333D01*
X107602438Y-72133333D02*
X107697676Y-72038095D01*
X107697676Y-72038095D02*
X107792914Y-71990476D01*
X107792914Y-71990476D02*
X107983390Y-71942857D01*
X107983390Y-71942857D02*
X108126247Y-71942857D01*
X108126247Y-71942857D02*
X108316723Y-71990476D01*
X108316723Y-71990476D02*
X108411961Y-72038095D01*
X108411961Y-72038095D02*
X108507200Y-72133333D01*
X108507200Y-72133333D02*
X108554819Y-72276190D01*
X108554819Y-72276190D02*
X108554819Y-72514285D01*
X108554819Y-70990476D02*
X108554819Y-71561904D01*
X108554819Y-71276190D02*
X107554819Y-71276190D01*
X107554819Y-71276190D02*
X107697676Y-71371428D01*
X107697676Y-71371428D02*
X107792914Y-71466666D01*
X107792914Y-71466666D02*
X107840533Y-71561904D01*
X107554819Y-70085714D02*
X107554819Y-70561904D01*
X107554819Y-70561904D02*
X108031009Y-70609523D01*
X108031009Y-70609523D02*
X107983390Y-70561904D01*
X107983390Y-70561904D02*
X107935771Y-70466666D01*
X107935771Y-70466666D02*
X107935771Y-70228571D01*
X107935771Y-70228571D02*
X107983390Y-70133333D01*
X107983390Y-70133333D02*
X108031009Y-70085714D01*
X108031009Y-70085714D02*
X108126247Y-70038095D01*
X108126247Y-70038095D02*
X108364342Y-70038095D01*
X108364342Y-70038095D02*
X108459580Y-70085714D01*
X108459580Y-70085714D02*
X108507200Y-70133333D01*
X108507200Y-70133333D02*
X108554819Y-70228571D01*
X108554819Y-70228571D02*
X108554819Y-70466666D01*
X108554819Y-70466666D02*
X108507200Y-70561904D01*
X108507200Y-70561904D02*
X108459580Y-70609523D01*
X138260476Y-101833200D02*
X138403333Y-101880819D01*
X138403333Y-101880819D02*
X138641428Y-101880819D01*
X138641428Y-101880819D02*
X138736666Y-101833200D01*
X138736666Y-101833200D02*
X138784285Y-101785580D01*
X138784285Y-101785580D02*
X138831904Y-101690342D01*
X138831904Y-101690342D02*
X138831904Y-101595104D01*
X138831904Y-101595104D02*
X138784285Y-101499866D01*
X138784285Y-101499866D02*
X138736666Y-101452247D01*
X138736666Y-101452247D02*
X138641428Y-101404628D01*
X138641428Y-101404628D02*
X138450952Y-101357009D01*
X138450952Y-101357009D02*
X138355714Y-101309390D01*
X138355714Y-101309390D02*
X138308095Y-101261771D01*
X138308095Y-101261771D02*
X138260476Y-101166533D01*
X138260476Y-101166533D02*
X138260476Y-101071295D01*
X138260476Y-101071295D02*
X138308095Y-100976057D01*
X138308095Y-100976057D02*
X138355714Y-100928438D01*
X138355714Y-100928438D02*
X138450952Y-100880819D01*
X138450952Y-100880819D02*
X138689047Y-100880819D01*
X138689047Y-100880819D02*
X138831904Y-100928438D01*
X139165238Y-100880819D02*
X139403333Y-101880819D01*
X139403333Y-101880819D02*
X139593809Y-101166533D01*
X139593809Y-101166533D02*
X139784285Y-101880819D01*
X139784285Y-101880819D02*
X140022381Y-100880819D01*
X140355714Y-100976057D02*
X140403333Y-100928438D01*
X140403333Y-100928438D02*
X140498571Y-100880819D01*
X140498571Y-100880819D02*
X140736666Y-100880819D01*
X140736666Y-100880819D02*
X140831904Y-100928438D01*
X140831904Y-100928438D02*
X140879523Y-100976057D01*
X140879523Y-100976057D02*
X140927142Y-101071295D01*
X140927142Y-101071295D02*
X140927142Y-101166533D01*
X140927142Y-101166533D02*
X140879523Y-101309390D01*
X140879523Y-101309390D02*
X140308095Y-101880819D01*
X140308095Y-101880819D02*
X140927142Y-101880819D01*
X141403333Y-101880819D02*
X141593809Y-101880819D01*
X141593809Y-101880819D02*
X141689047Y-101833200D01*
X141689047Y-101833200D02*
X141736666Y-101785580D01*
X141736666Y-101785580D02*
X141831904Y-101642723D01*
X141831904Y-101642723D02*
X141879523Y-101452247D01*
X141879523Y-101452247D02*
X141879523Y-101071295D01*
X141879523Y-101071295D02*
X141831904Y-100976057D01*
X141831904Y-100976057D02*
X141784285Y-100928438D01*
X141784285Y-100928438D02*
X141689047Y-100880819D01*
X141689047Y-100880819D02*
X141498571Y-100880819D01*
X141498571Y-100880819D02*
X141403333Y-100928438D01*
X141403333Y-100928438D02*
X141355714Y-100976057D01*
X141355714Y-100976057D02*
X141308095Y-101071295D01*
X141308095Y-101071295D02*
X141308095Y-101309390D01*
X141308095Y-101309390D02*
X141355714Y-101404628D01*
X141355714Y-101404628D02*
X141403333Y-101452247D01*
X141403333Y-101452247D02*
X141498571Y-101499866D01*
X141498571Y-101499866D02*
X141689047Y-101499866D01*
X141689047Y-101499866D02*
X141784285Y-101452247D01*
X141784285Y-101452247D02*
X141831904Y-101404628D01*
X141831904Y-101404628D02*
X141879523Y-101309390D01*
X100210476Y-101833200D02*
X100353333Y-101880819D01*
X100353333Y-101880819D02*
X100591428Y-101880819D01*
X100591428Y-101880819D02*
X100686666Y-101833200D01*
X100686666Y-101833200D02*
X100734285Y-101785580D01*
X100734285Y-101785580D02*
X100781904Y-101690342D01*
X100781904Y-101690342D02*
X100781904Y-101595104D01*
X100781904Y-101595104D02*
X100734285Y-101499866D01*
X100734285Y-101499866D02*
X100686666Y-101452247D01*
X100686666Y-101452247D02*
X100591428Y-101404628D01*
X100591428Y-101404628D02*
X100400952Y-101357009D01*
X100400952Y-101357009D02*
X100305714Y-101309390D01*
X100305714Y-101309390D02*
X100258095Y-101261771D01*
X100258095Y-101261771D02*
X100210476Y-101166533D01*
X100210476Y-101166533D02*
X100210476Y-101071295D01*
X100210476Y-101071295D02*
X100258095Y-100976057D01*
X100258095Y-100976057D02*
X100305714Y-100928438D01*
X100305714Y-100928438D02*
X100400952Y-100880819D01*
X100400952Y-100880819D02*
X100639047Y-100880819D01*
X100639047Y-100880819D02*
X100781904Y-100928438D01*
X101115238Y-100880819D02*
X101353333Y-101880819D01*
X101353333Y-101880819D02*
X101543809Y-101166533D01*
X101543809Y-101166533D02*
X101734285Y-101880819D01*
X101734285Y-101880819D02*
X101972381Y-100880819D01*
X102305714Y-100976057D02*
X102353333Y-100928438D01*
X102353333Y-100928438D02*
X102448571Y-100880819D01*
X102448571Y-100880819D02*
X102686666Y-100880819D01*
X102686666Y-100880819D02*
X102781904Y-100928438D01*
X102781904Y-100928438D02*
X102829523Y-100976057D01*
X102829523Y-100976057D02*
X102877142Y-101071295D01*
X102877142Y-101071295D02*
X102877142Y-101166533D01*
X102877142Y-101166533D02*
X102829523Y-101309390D01*
X102829523Y-101309390D02*
X102258095Y-101880819D01*
X102258095Y-101880819D02*
X102877142Y-101880819D01*
X103210476Y-100880819D02*
X103877142Y-100880819D01*
X103877142Y-100880819D02*
X103448571Y-101880819D01*
X127454819Y-33438094D02*
X126454819Y-33438094D01*
X126454819Y-33438094D02*
X126454819Y-33199999D01*
X126454819Y-33199999D02*
X126502438Y-33057142D01*
X126502438Y-33057142D02*
X126597676Y-32961904D01*
X126597676Y-32961904D02*
X126692914Y-32914285D01*
X126692914Y-32914285D02*
X126883390Y-32866666D01*
X126883390Y-32866666D02*
X127026247Y-32866666D01*
X127026247Y-32866666D02*
X127216723Y-32914285D01*
X127216723Y-32914285D02*
X127311961Y-32961904D01*
X127311961Y-32961904D02*
X127407200Y-33057142D01*
X127407200Y-33057142D02*
X127454819Y-33199999D01*
X127454819Y-33199999D02*
X127454819Y-33438094D01*
X126788152Y-32009523D02*
X127454819Y-32009523D01*
X126407200Y-32247618D02*
X127121485Y-32485713D01*
X127121485Y-32485713D02*
X127121485Y-31866666D01*
X146004819Y-92214285D02*
X145004819Y-92214285D01*
X145004819Y-92214285D02*
X145004819Y-91976190D01*
X145004819Y-91976190D02*
X145052438Y-91833333D01*
X145052438Y-91833333D02*
X145147676Y-91738095D01*
X145147676Y-91738095D02*
X145242914Y-91690476D01*
X145242914Y-91690476D02*
X145433390Y-91642857D01*
X145433390Y-91642857D02*
X145576247Y-91642857D01*
X145576247Y-91642857D02*
X145766723Y-91690476D01*
X145766723Y-91690476D02*
X145861961Y-91738095D01*
X145861961Y-91738095D02*
X145957200Y-91833333D01*
X145957200Y-91833333D02*
X146004819Y-91976190D01*
X146004819Y-91976190D02*
X146004819Y-92214285D01*
X145100057Y-91261904D02*
X145052438Y-91214285D01*
X145052438Y-91214285D02*
X145004819Y-91119047D01*
X145004819Y-91119047D02*
X145004819Y-90880952D01*
X145004819Y-90880952D02*
X145052438Y-90785714D01*
X145052438Y-90785714D02*
X145100057Y-90738095D01*
X145100057Y-90738095D02*
X145195295Y-90690476D01*
X145195295Y-90690476D02*
X145290533Y-90690476D01*
X145290533Y-90690476D02*
X145433390Y-90738095D01*
X145433390Y-90738095D02*
X146004819Y-91309523D01*
X146004819Y-91309523D02*
X146004819Y-90690476D01*
X145004819Y-90357142D02*
X145004819Y-89738095D01*
X145004819Y-89738095D02*
X145385771Y-90071428D01*
X145385771Y-90071428D02*
X145385771Y-89928571D01*
X145385771Y-89928571D02*
X145433390Y-89833333D01*
X145433390Y-89833333D02*
X145481009Y-89785714D01*
X145481009Y-89785714D02*
X145576247Y-89738095D01*
X145576247Y-89738095D02*
X145814342Y-89738095D01*
X145814342Y-89738095D02*
X145909580Y-89785714D01*
X145909580Y-89785714D02*
X145957200Y-89833333D01*
X145957200Y-89833333D02*
X146004819Y-89928571D01*
X146004819Y-89928571D02*
X146004819Y-90214285D01*
X146004819Y-90214285D02*
X145957200Y-90309523D01*
X145957200Y-90309523D02*
X145909580Y-90357142D01*
X62436667Y-44663200D02*
X62579524Y-44710819D01*
X62579524Y-44710819D02*
X62817619Y-44710819D01*
X62817619Y-44710819D02*
X62912857Y-44663200D01*
X62912857Y-44663200D02*
X62960476Y-44615580D01*
X62960476Y-44615580D02*
X63008095Y-44520342D01*
X63008095Y-44520342D02*
X63008095Y-44425104D01*
X63008095Y-44425104D02*
X62960476Y-44329866D01*
X62960476Y-44329866D02*
X62912857Y-44282247D01*
X62912857Y-44282247D02*
X62817619Y-44234628D01*
X62817619Y-44234628D02*
X62627143Y-44187009D01*
X62627143Y-44187009D02*
X62531905Y-44139390D01*
X62531905Y-44139390D02*
X62484286Y-44091771D01*
X62484286Y-44091771D02*
X62436667Y-43996533D01*
X62436667Y-43996533D02*
X62436667Y-43901295D01*
X62436667Y-43901295D02*
X62484286Y-43806057D01*
X62484286Y-43806057D02*
X62531905Y-43758438D01*
X62531905Y-43758438D02*
X62627143Y-43710819D01*
X62627143Y-43710819D02*
X62865238Y-43710819D01*
X62865238Y-43710819D02*
X63008095Y-43758438D01*
X63341429Y-43710819D02*
X63579524Y-44710819D01*
X63579524Y-44710819D02*
X63770000Y-43996533D01*
X63770000Y-43996533D02*
X63960476Y-44710819D01*
X63960476Y-44710819D02*
X64198572Y-43710819D01*
X64484286Y-43710819D02*
X65150952Y-43710819D01*
X65150952Y-43710819D02*
X64722381Y-44710819D01*
X104785714Y-136454819D02*
X104785714Y-135454819D01*
X104785714Y-135454819D02*
X105023809Y-135454819D01*
X105023809Y-135454819D02*
X105166666Y-135502438D01*
X105166666Y-135502438D02*
X105261904Y-135597676D01*
X105261904Y-135597676D02*
X105309523Y-135692914D01*
X105309523Y-135692914D02*
X105357142Y-135883390D01*
X105357142Y-135883390D02*
X105357142Y-136026247D01*
X105357142Y-136026247D02*
X105309523Y-136216723D01*
X105309523Y-136216723D02*
X105261904Y-136311961D01*
X105261904Y-136311961D02*
X105166666Y-136407200D01*
X105166666Y-136407200D02*
X105023809Y-136454819D01*
X105023809Y-136454819D02*
X104785714Y-136454819D01*
X105690476Y-135454819D02*
X106309523Y-135454819D01*
X106309523Y-135454819D02*
X105976190Y-135835771D01*
X105976190Y-135835771D02*
X106119047Y-135835771D01*
X106119047Y-135835771D02*
X106214285Y-135883390D01*
X106214285Y-135883390D02*
X106261904Y-135931009D01*
X106261904Y-135931009D02*
X106309523Y-136026247D01*
X106309523Y-136026247D02*
X106309523Y-136264342D01*
X106309523Y-136264342D02*
X106261904Y-136359580D01*
X106261904Y-136359580D02*
X106214285Y-136407200D01*
X106214285Y-136407200D02*
X106119047Y-136454819D01*
X106119047Y-136454819D02*
X105833333Y-136454819D01*
X105833333Y-136454819D02*
X105738095Y-136407200D01*
X105738095Y-136407200D02*
X105690476Y-136359580D01*
X107261904Y-136454819D02*
X106690476Y-136454819D01*
X106976190Y-136454819D02*
X106976190Y-135454819D01*
X106976190Y-135454819D02*
X106880952Y-135597676D01*
X106880952Y-135597676D02*
X106785714Y-135692914D01*
X106785714Y-135692914D02*
X106690476Y-135740533D01*
X61960476Y-82793200D02*
X62103333Y-82840819D01*
X62103333Y-82840819D02*
X62341428Y-82840819D01*
X62341428Y-82840819D02*
X62436666Y-82793200D01*
X62436666Y-82793200D02*
X62484285Y-82745580D01*
X62484285Y-82745580D02*
X62531904Y-82650342D01*
X62531904Y-82650342D02*
X62531904Y-82555104D01*
X62531904Y-82555104D02*
X62484285Y-82459866D01*
X62484285Y-82459866D02*
X62436666Y-82412247D01*
X62436666Y-82412247D02*
X62341428Y-82364628D01*
X62341428Y-82364628D02*
X62150952Y-82317009D01*
X62150952Y-82317009D02*
X62055714Y-82269390D01*
X62055714Y-82269390D02*
X62008095Y-82221771D01*
X62008095Y-82221771D02*
X61960476Y-82126533D01*
X61960476Y-82126533D02*
X61960476Y-82031295D01*
X61960476Y-82031295D02*
X62008095Y-81936057D01*
X62008095Y-81936057D02*
X62055714Y-81888438D01*
X62055714Y-81888438D02*
X62150952Y-81840819D01*
X62150952Y-81840819D02*
X62389047Y-81840819D01*
X62389047Y-81840819D02*
X62531904Y-81888438D01*
X62865238Y-81840819D02*
X63103333Y-82840819D01*
X63103333Y-82840819D02*
X63293809Y-82126533D01*
X63293809Y-82126533D02*
X63484285Y-82840819D01*
X63484285Y-82840819D02*
X63722381Y-81840819D01*
X64627142Y-82840819D02*
X64055714Y-82840819D01*
X64341428Y-82840819D02*
X64341428Y-81840819D01*
X64341428Y-81840819D02*
X64246190Y-81983676D01*
X64246190Y-81983676D02*
X64150952Y-82078914D01*
X64150952Y-82078914D02*
X64055714Y-82126533D01*
X65103333Y-82840819D02*
X65293809Y-82840819D01*
X65293809Y-82840819D02*
X65389047Y-82793200D01*
X65389047Y-82793200D02*
X65436666Y-82745580D01*
X65436666Y-82745580D02*
X65531904Y-82602723D01*
X65531904Y-82602723D02*
X65579523Y-82412247D01*
X65579523Y-82412247D02*
X65579523Y-82031295D01*
X65579523Y-82031295D02*
X65531904Y-81936057D01*
X65531904Y-81936057D02*
X65484285Y-81888438D01*
X65484285Y-81888438D02*
X65389047Y-81840819D01*
X65389047Y-81840819D02*
X65198571Y-81840819D01*
X65198571Y-81840819D02*
X65103333Y-81888438D01*
X65103333Y-81888438D02*
X65055714Y-81936057D01*
X65055714Y-81936057D02*
X65008095Y-82031295D01*
X65008095Y-82031295D02*
X65008095Y-82269390D01*
X65008095Y-82269390D02*
X65055714Y-82364628D01*
X65055714Y-82364628D02*
X65103333Y-82412247D01*
X65103333Y-82412247D02*
X65198571Y-82459866D01*
X65198571Y-82459866D02*
X65389047Y-82459866D01*
X65389047Y-82459866D02*
X65484285Y-82412247D01*
X65484285Y-82412247D02*
X65531904Y-82364628D01*
X65531904Y-82364628D02*
X65579523Y-82269390D01*
X69654819Y-33438094D02*
X68654819Y-33438094D01*
X68654819Y-33438094D02*
X68654819Y-33199999D01*
X68654819Y-33199999D02*
X68702438Y-33057142D01*
X68702438Y-33057142D02*
X68797676Y-32961904D01*
X68797676Y-32961904D02*
X68892914Y-32914285D01*
X68892914Y-32914285D02*
X69083390Y-32866666D01*
X69083390Y-32866666D02*
X69226247Y-32866666D01*
X69226247Y-32866666D02*
X69416723Y-32914285D01*
X69416723Y-32914285D02*
X69511961Y-32961904D01*
X69511961Y-32961904D02*
X69607200Y-33057142D01*
X69607200Y-33057142D02*
X69654819Y-33199999D01*
X69654819Y-33199999D02*
X69654819Y-33438094D01*
X69654819Y-31914285D02*
X69654819Y-32485713D01*
X69654819Y-32199999D02*
X68654819Y-32199999D01*
X68654819Y-32199999D02*
X68797676Y-32295237D01*
X68797676Y-32295237D02*
X68892914Y-32390475D01*
X68892914Y-32390475D02*
X68940533Y-32485713D01*
X89454819Y-33438094D02*
X88454819Y-33438094D01*
X88454819Y-33438094D02*
X88454819Y-33199999D01*
X88454819Y-33199999D02*
X88502438Y-33057142D01*
X88502438Y-33057142D02*
X88597676Y-32961904D01*
X88597676Y-32961904D02*
X88692914Y-32914285D01*
X88692914Y-32914285D02*
X88883390Y-32866666D01*
X88883390Y-32866666D02*
X89026247Y-32866666D01*
X89026247Y-32866666D02*
X89216723Y-32914285D01*
X89216723Y-32914285D02*
X89311961Y-32961904D01*
X89311961Y-32961904D02*
X89407200Y-33057142D01*
X89407200Y-33057142D02*
X89454819Y-33199999D01*
X89454819Y-33199999D02*
X89454819Y-33438094D01*
X88550057Y-32485713D02*
X88502438Y-32438094D01*
X88502438Y-32438094D02*
X88454819Y-32342856D01*
X88454819Y-32342856D02*
X88454819Y-32104761D01*
X88454819Y-32104761D02*
X88502438Y-32009523D01*
X88502438Y-32009523D02*
X88550057Y-31961904D01*
X88550057Y-31961904D02*
X88645295Y-31914285D01*
X88645295Y-31914285D02*
X88740533Y-31914285D01*
X88740533Y-31914285D02*
X88883390Y-31961904D01*
X88883390Y-31961904D02*
X89454819Y-32533332D01*
X89454819Y-32533332D02*
X89454819Y-31914285D01*
X214666666Y-19304819D02*
X214333333Y-18828628D01*
X214095238Y-19304819D02*
X214095238Y-18304819D01*
X214095238Y-18304819D02*
X214476190Y-18304819D01*
X214476190Y-18304819D02*
X214571428Y-18352438D01*
X214571428Y-18352438D02*
X214619047Y-18400057D01*
X214619047Y-18400057D02*
X214666666Y-18495295D01*
X214666666Y-18495295D02*
X214666666Y-18638152D01*
X214666666Y-18638152D02*
X214619047Y-18733390D01*
X214619047Y-18733390D02*
X214571428Y-18781009D01*
X214571428Y-18781009D02*
X214476190Y-18828628D01*
X214476190Y-18828628D02*
X214095238Y-18828628D01*
X215095238Y-18781009D02*
X215428571Y-18781009D01*
X215571428Y-19304819D02*
X215095238Y-19304819D01*
X215095238Y-19304819D02*
X215095238Y-18304819D01*
X215095238Y-18304819D02*
X215571428Y-18304819D01*
X216333333Y-18781009D02*
X216000000Y-18781009D01*
X216000000Y-19304819D02*
X216000000Y-18304819D01*
X216000000Y-18304819D02*
X216476190Y-18304819D01*
X217000000Y-18304819D02*
X217000000Y-18542914D01*
X216761905Y-18447676D02*
X217000000Y-18542914D01*
X217000000Y-18542914D02*
X217238095Y-18447676D01*
X216857143Y-18733390D02*
X217000000Y-18542914D01*
X217000000Y-18542914D02*
X217142857Y-18733390D01*
X217761905Y-18304819D02*
X217761905Y-18542914D01*
X217523810Y-18447676D02*
X217761905Y-18542914D01*
X217761905Y-18542914D02*
X218000000Y-18447676D01*
X217619048Y-18733390D02*
X217761905Y-18542914D01*
X217761905Y-18542914D02*
X217904762Y-18733390D01*
X165454819Y-109214285D02*
X164454819Y-109214285D01*
X164454819Y-109214285D02*
X164454819Y-108976190D01*
X164454819Y-108976190D02*
X164502438Y-108833333D01*
X164502438Y-108833333D02*
X164597676Y-108738095D01*
X164597676Y-108738095D02*
X164692914Y-108690476D01*
X164692914Y-108690476D02*
X164883390Y-108642857D01*
X164883390Y-108642857D02*
X165026247Y-108642857D01*
X165026247Y-108642857D02*
X165216723Y-108690476D01*
X165216723Y-108690476D02*
X165311961Y-108738095D01*
X165311961Y-108738095D02*
X165407200Y-108833333D01*
X165407200Y-108833333D02*
X165454819Y-108976190D01*
X165454819Y-108976190D02*
X165454819Y-109214285D01*
X164454819Y-108309523D02*
X164454819Y-107690476D01*
X164454819Y-107690476D02*
X164835771Y-108023809D01*
X164835771Y-108023809D02*
X164835771Y-107880952D01*
X164835771Y-107880952D02*
X164883390Y-107785714D01*
X164883390Y-107785714D02*
X164931009Y-107738095D01*
X164931009Y-107738095D02*
X165026247Y-107690476D01*
X165026247Y-107690476D02*
X165264342Y-107690476D01*
X165264342Y-107690476D02*
X165359580Y-107738095D01*
X165359580Y-107738095D02*
X165407200Y-107785714D01*
X165407200Y-107785714D02*
X165454819Y-107880952D01*
X165454819Y-107880952D02*
X165454819Y-108166666D01*
X165454819Y-108166666D02*
X165407200Y-108261904D01*
X165407200Y-108261904D02*
X165359580Y-108309523D01*
X164454819Y-107071428D02*
X164454819Y-106976190D01*
X164454819Y-106976190D02*
X164502438Y-106880952D01*
X164502438Y-106880952D02*
X164550057Y-106833333D01*
X164550057Y-106833333D02*
X164645295Y-106785714D01*
X164645295Y-106785714D02*
X164835771Y-106738095D01*
X164835771Y-106738095D02*
X165073866Y-106738095D01*
X165073866Y-106738095D02*
X165264342Y-106785714D01*
X165264342Y-106785714D02*
X165359580Y-106833333D01*
X165359580Y-106833333D02*
X165407200Y-106880952D01*
X165407200Y-106880952D02*
X165454819Y-106976190D01*
X165454819Y-106976190D02*
X165454819Y-107071428D01*
X165454819Y-107071428D02*
X165407200Y-107166666D01*
X165407200Y-107166666D02*
X165359580Y-107214285D01*
X165359580Y-107214285D02*
X165264342Y-107261904D01*
X165264342Y-107261904D02*
X165073866Y-107309523D01*
X165073866Y-107309523D02*
X164835771Y-107309523D01*
X164835771Y-107309523D02*
X164645295Y-107261904D01*
X164645295Y-107261904D02*
X164550057Y-107214285D01*
X164550057Y-107214285D02*
X164502438Y-107166666D01*
X164502438Y-107166666D02*
X164454819Y-107071428D01*
X165454819Y-92214285D02*
X164454819Y-92214285D01*
X164454819Y-92214285D02*
X164454819Y-91976190D01*
X164454819Y-91976190D02*
X164502438Y-91833333D01*
X164502438Y-91833333D02*
X164597676Y-91738095D01*
X164597676Y-91738095D02*
X164692914Y-91690476D01*
X164692914Y-91690476D02*
X164883390Y-91642857D01*
X164883390Y-91642857D02*
X165026247Y-91642857D01*
X165026247Y-91642857D02*
X165216723Y-91690476D01*
X165216723Y-91690476D02*
X165311961Y-91738095D01*
X165311961Y-91738095D02*
X165407200Y-91833333D01*
X165407200Y-91833333D02*
X165454819Y-91976190D01*
X165454819Y-91976190D02*
X165454819Y-92214285D01*
X164550057Y-91261904D02*
X164502438Y-91214285D01*
X164502438Y-91214285D02*
X164454819Y-91119047D01*
X164454819Y-91119047D02*
X164454819Y-90880952D01*
X164454819Y-90880952D02*
X164502438Y-90785714D01*
X164502438Y-90785714D02*
X164550057Y-90738095D01*
X164550057Y-90738095D02*
X164645295Y-90690476D01*
X164645295Y-90690476D02*
X164740533Y-90690476D01*
X164740533Y-90690476D02*
X164883390Y-90738095D01*
X164883390Y-90738095D02*
X165454819Y-91309523D01*
X165454819Y-91309523D02*
X165454819Y-90690476D01*
X164788152Y-89833333D02*
X165454819Y-89833333D01*
X164407200Y-90071428D02*
X165121485Y-90309523D01*
X165121485Y-90309523D02*
X165121485Y-89690476D01*
X51666666Y-20169819D02*
X51333333Y-19693628D01*
X51095238Y-20169819D02*
X51095238Y-19169819D01*
X51095238Y-19169819D02*
X51476190Y-19169819D01*
X51476190Y-19169819D02*
X51571428Y-19217438D01*
X51571428Y-19217438D02*
X51619047Y-19265057D01*
X51619047Y-19265057D02*
X51666666Y-19360295D01*
X51666666Y-19360295D02*
X51666666Y-19503152D01*
X51666666Y-19503152D02*
X51619047Y-19598390D01*
X51619047Y-19598390D02*
X51571428Y-19646009D01*
X51571428Y-19646009D02*
X51476190Y-19693628D01*
X51476190Y-19693628D02*
X51095238Y-19693628D01*
X52095238Y-19646009D02*
X52428571Y-19646009D01*
X52571428Y-20169819D02*
X52095238Y-20169819D01*
X52095238Y-20169819D02*
X52095238Y-19169819D01*
X52095238Y-19169819D02*
X52571428Y-19169819D01*
X53333333Y-19646009D02*
X53000000Y-19646009D01*
X53000000Y-20169819D02*
X53000000Y-19169819D01*
X53000000Y-19169819D02*
X53476190Y-19169819D01*
X54000000Y-19169819D02*
X54000000Y-19407914D01*
X53761905Y-19312676D02*
X54000000Y-19407914D01*
X54000000Y-19407914D02*
X54238095Y-19312676D01*
X53857143Y-19598390D02*
X54000000Y-19407914D01*
X54000000Y-19407914D02*
X54142857Y-19598390D01*
X54761905Y-19169819D02*
X54761905Y-19407914D01*
X54523810Y-19312676D02*
X54761905Y-19407914D01*
X54761905Y-19407914D02*
X55000000Y-19312676D01*
X54619048Y-19598390D02*
X54761905Y-19407914D01*
X54761905Y-19407914D02*
X54904762Y-19598390D01*
X119556667Y-25603200D02*
X119699524Y-25650819D01*
X119699524Y-25650819D02*
X119937619Y-25650819D01*
X119937619Y-25650819D02*
X120032857Y-25603200D01*
X120032857Y-25603200D02*
X120080476Y-25555580D01*
X120080476Y-25555580D02*
X120128095Y-25460342D01*
X120128095Y-25460342D02*
X120128095Y-25365104D01*
X120128095Y-25365104D02*
X120080476Y-25269866D01*
X120080476Y-25269866D02*
X120032857Y-25222247D01*
X120032857Y-25222247D02*
X119937619Y-25174628D01*
X119937619Y-25174628D02*
X119747143Y-25127009D01*
X119747143Y-25127009D02*
X119651905Y-25079390D01*
X119651905Y-25079390D02*
X119604286Y-25031771D01*
X119604286Y-25031771D02*
X119556667Y-24936533D01*
X119556667Y-24936533D02*
X119556667Y-24841295D01*
X119556667Y-24841295D02*
X119604286Y-24746057D01*
X119604286Y-24746057D02*
X119651905Y-24698438D01*
X119651905Y-24698438D02*
X119747143Y-24650819D01*
X119747143Y-24650819D02*
X119985238Y-24650819D01*
X119985238Y-24650819D02*
X120128095Y-24698438D01*
X120461429Y-24650819D02*
X120699524Y-25650819D01*
X120699524Y-25650819D02*
X120890000Y-24936533D01*
X120890000Y-24936533D02*
X121080476Y-25650819D01*
X121080476Y-25650819D02*
X121318572Y-24650819D01*
X122128095Y-24984152D02*
X122128095Y-25650819D01*
X121890000Y-24603200D02*
X121651905Y-25317485D01*
X121651905Y-25317485D02*
X122270952Y-25317485D01*
X81210476Y-101833200D02*
X81353333Y-101880819D01*
X81353333Y-101880819D02*
X81591428Y-101880819D01*
X81591428Y-101880819D02*
X81686666Y-101833200D01*
X81686666Y-101833200D02*
X81734285Y-101785580D01*
X81734285Y-101785580D02*
X81781904Y-101690342D01*
X81781904Y-101690342D02*
X81781904Y-101595104D01*
X81781904Y-101595104D02*
X81734285Y-101499866D01*
X81734285Y-101499866D02*
X81686666Y-101452247D01*
X81686666Y-101452247D02*
X81591428Y-101404628D01*
X81591428Y-101404628D02*
X81400952Y-101357009D01*
X81400952Y-101357009D02*
X81305714Y-101309390D01*
X81305714Y-101309390D02*
X81258095Y-101261771D01*
X81258095Y-101261771D02*
X81210476Y-101166533D01*
X81210476Y-101166533D02*
X81210476Y-101071295D01*
X81210476Y-101071295D02*
X81258095Y-100976057D01*
X81258095Y-100976057D02*
X81305714Y-100928438D01*
X81305714Y-100928438D02*
X81400952Y-100880819D01*
X81400952Y-100880819D02*
X81639047Y-100880819D01*
X81639047Y-100880819D02*
X81781904Y-100928438D01*
X82115238Y-100880819D02*
X82353333Y-101880819D01*
X82353333Y-101880819D02*
X82543809Y-101166533D01*
X82543809Y-101166533D02*
X82734285Y-101880819D01*
X82734285Y-101880819D02*
X82972381Y-100880819D01*
X83305714Y-100976057D02*
X83353333Y-100928438D01*
X83353333Y-100928438D02*
X83448571Y-100880819D01*
X83448571Y-100880819D02*
X83686666Y-100880819D01*
X83686666Y-100880819D02*
X83781904Y-100928438D01*
X83781904Y-100928438D02*
X83829523Y-100976057D01*
X83829523Y-100976057D02*
X83877142Y-101071295D01*
X83877142Y-101071295D02*
X83877142Y-101166533D01*
X83877142Y-101166533D02*
X83829523Y-101309390D01*
X83829523Y-101309390D02*
X83258095Y-101880819D01*
X83258095Y-101880819D02*
X83877142Y-101880819D01*
X84734285Y-100880819D02*
X84543809Y-100880819D01*
X84543809Y-100880819D02*
X84448571Y-100928438D01*
X84448571Y-100928438D02*
X84400952Y-100976057D01*
X84400952Y-100976057D02*
X84305714Y-101118914D01*
X84305714Y-101118914D02*
X84258095Y-101309390D01*
X84258095Y-101309390D02*
X84258095Y-101690342D01*
X84258095Y-101690342D02*
X84305714Y-101785580D01*
X84305714Y-101785580D02*
X84353333Y-101833200D01*
X84353333Y-101833200D02*
X84448571Y-101880819D01*
X84448571Y-101880819D02*
X84639047Y-101880819D01*
X84639047Y-101880819D02*
X84734285Y-101833200D01*
X84734285Y-101833200D02*
X84781904Y-101785580D01*
X84781904Y-101785580D02*
X84829523Y-101690342D01*
X84829523Y-101690342D02*
X84829523Y-101452247D01*
X84829523Y-101452247D02*
X84781904Y-101357009D01*
X84781904Y-101357009D02*
X84734285Y-101309390D01*
X84734285Y-101309390D02*
X84639047Y-101261771D01*
X84639047Y-101261771D02*
X84448571Y-101261771D01*
X84448571Y-101261771D02*
X84353333Y-101309390D01*
X84353333Y-101309390D02*
X84305714Y-101357009D01*
X84305714Y-101357009D02*
X84258095Y-101452247D01*
X108554819Y-92214285D02*
X107554819Y-92214285D01*
X107554819Y-92214285D02*
X107554819Y-91976190D01*
X107554819Y-91976190D02*
X107602438Y-91833333D01*
X107602438Y-91833333D02*
X107697676Y-91738095D01*
X107697676Y-91738095D02*
X107792914Y-91690476D01*
X107792914Y-91690476D02*
X107983390Y-91642857D01*
X107983390Y-91642857D02*
X108126247Y-91642857D01*
X108126247Y-91642857D02*
X108316723Y-91690476D01*
X108316723Y-91690476D02*
X108411961Y-91738095D01*
X108411961Y-91738095D02*
X108507200Y-91833333D01*
X108507200Y-91833333D02*
X108554819Y-91976190D01*
X108554819Y-91976190D02*
X108554819Y-92214285D01*
X107650057Y-91261904D02*
X107602438Y-91214285D01*
X107602438Y-91214285D02*
X107554819Y-91119047D01*
X107554819Y-91119047D02*
X107554819Y-90880952D01*
X107554819Y-90880952D02*
X107602438Y-90785714D01*
X107602438Y-90785714D02*
X107650057Y-90738095D01*
X107650057Y-90738095D02*
X107745295Y-90690476D01*
X107745295Y-90690476D02*
X107840533Y-90690476D01*
X107840533Y-90690476D02*
X107983390Y-90738095D01*
X107983390Y-90738095D02*
X108554819Y-91309523D01*
X108554819Y-91309523D02*
X108554819Y-90690476D01*
X108554819Y-89738095D02*
X108554819Y-90309523D01*
X108554819Y-90023809D02*
X107554819Y-90023809D01*
X107554819Y-90023809D02*
X107697676Y-90119047D01*
X107697676Y-90119047D02*
X107792914Y-90214285D01*
X107792914Y-90214285D02*
X107840533Y-90309523D01*
X89404819Y-52088094D02*
X88404819Y-52088094D01*
X88404819Y-52088094D02*
X88404819Y-51849999D01*
X88404819Y-51849999D02*
X88452438Y-51707142D01*
X88452438Y-51707142D02*
X88547676Y-51611904D01*
X88547676Y-51611904D02*
X88642914Y-51564285D01*
X88642914Y-51564285D02*
X88833390Y-51516666D01*
X88833390Y-51516666D02*
X88976247Y-51516666D01*
X88976247Y-51516666D02*
X89166723Y-51564285D01*
X89166723Y-51564285D02*
X89261961Y-51611904D01*
X89261961Y-51611904D02*
X89357200Y-51707142D01*
X89357200Y-51707142D02*
X89404819Y-51849999D01*
X89404819Y-51849999D02*
X89404819Y-52088094D01*
X88833390Y-50945237D02*
X88785771Y-51040475D01*
X88785771Y-51040475D02*
X88738152Y-51088094D01*
X88738152Y-51088094D02*
X88642914Y-51135713D01*
X88642914Y-51135713D02*
X88595295Y-51135713D01*
X88595295Y-51135713D02*
X88500057Y-51088094D01*
X88500057Y-51088094D02*
X88452438Y-51040475D01*
X88452438Y-51040475D02*
X88404819Y-50945237D01*
X88404819Y-50945237D02*
X88404819Y-50754761D01*
X88404819Y-50754761D02*
X88452438Y-50659523D01*
X88452438Y-50659523D02*
X88500057Y-50611904D01*
X88500057Y-50611904D02*
X88595295Y-50564285D01*
X88595295Y-50564285D02*
X88642914Y-50564285D01*
X88642914Y-50564285D02*
X88738152Y-50611904D01*
X88738152Y-50611904D02*
X88785771Y-50659523D01*
X88785771Y-50659523D02*
X88833390Y-50754761D01*
X88833390Y-50754761D02*
X88833390Y-50945237D01*
X88833390Y-50945237D02*
X88881009Y-51040475D01*
X88881009Y-51040475D02*
X88928628Y-51088094D01*
X88928628Y-51088094D02*
X89023866Y-51135713D01*
X89023866Y-51135713D02*
X89214342Y-51135713D01*
X89214342Y-51135713D02*
X89309580Y-51088094D01*
X89309580Y-51088094D02*
X89357200Y-51040475D01*
X89357200Y-51040475D02*
X89404819Y-50945237D01*
X89404819Y-50945237D02*
X89404819Y-50754761D01*
X89404819Y-50754761D02*
X89357200Y-50659523D01*
X89357200Y-50659523D02*
X89309580Y-50611904D01*
X89309580Y-50611904D02*
X89214342Y-50564285D01*
X89214342Y-50564285D02*
X89023866Y-50564285D01*
X89023866Y-50564285D02*
X88928628Y-50611904D01*
X88928628Y-50611904D02*
X88881009Y-50659523D01*
X88881009Y-50659523D02*
X88833390Y-50754761D01*
X70104819Y-92214285D02*
X69104819Y-92214285D01*
X69104819Y-92214285D02*
X69104819Y-91976190D01*
X69104819Y-91976190D02*
X69152438Y-91833333D01*
X69152438Y-91833333D02*
X69247676Y-91738095D01*
X69247676Y-91738095D02*
X69342914Y-91690476D01*
X69342914Y-91690476D02*
X69533390Y-91642857D01*
X69533390Y-91642857D02*
X69676247Y-91642857D01*
X69676247Y-91642857D02*
X69866723Y-91690476D01*
X69866723Y-91690476D02*
X69961961Y-91738095D01*
X69961961Y-91738095D02*
X70057200Y-91833333D01*
X70057200Y-91833333D02*
X70104819Y-91976190D01*
X70104819Y-91976190D02*
X70104819Y-92214285D01*
X70104819Y-90690476D02*
X70104819Y-91261904D01*
X70104819Y-90976190D02*
X69104819Y-90976190D01*
X69104819Y-90976190D02*
X69247676Y-91071428D01*
X69247676Y-91071428D02*
X69342914Y-91166666D01*
X69342914Y-91166666D02*
X69390533Y-91261904D01*
X70104819Y-90214285D02*
X70104819Y-90023809D01*
X70104819Y-90023809D02*
X70057200Y-89928571D01*
X70057200Y-89928571D02*
X70009580Y-89880952D01*
X70009580Y-89880952D02*
X69866723Y-89785714D01*
X69866723Y-89785714D02*
X69676247Y-89738095D01*
X69676247Y-89738095D02*
X69295295Y-89738095D01*
X69295295Y-89738095D02*
X69200057Y-89785714D01*
X69200057Y-89785714D02*
X69152438Y-89833333D01*
X69152438Y-89833333D02*
X69104819Y-89928571D01*
X69104819Y-89928571D02*
X69104819Y-90119047D01*
X69104819Y-90119047D02*
X69152438Y-90214285D01*
X69152438Y-90214285D02*
X69200057Y-90261904D01*
X69200057Y-90261904D02*
X69295295Y-90309523D01*
X69295295Y-90309523D02*
X69533390Y-90309523D01*
X69533390Y-90309523D02*
X69628628Y-90261904D01*
X69628628Y-90261904D02*
X69676247Y-90214285D01*
X69676247Y-90214285D02*
X69723866Y-90119047D01*
X69723866Y-90119047D02*
X69723866Y-89928571D01*
X69723866Y-89928571D02*
X69676247Y-89833333D01*
X69676247Y-89833333D02*
X69628628Y-89785714D01*
X69628628Y-89785714D02*
X69533390Y-89738095D01*
X157290476Y-63713200D02*
X157433333Y-63760819D01*
X157433333Y-63760819D02*
X157671428Y-63760819D01*
X157671428Y-63760819D02*
X157766666Y-63713200D01*
X157766666Y-63713200D02*
X157814285Y-63665580D01*
X157814285Y-63665580D02*
X157861904Y-63570342D01*
X157861904Y-63570342D02*
X157861904Y-63475104D01*
X157861904Y-63475104D02*
X157814285Y-63379866D01*
X157814285Y-63379866D02*
X157766666Y-63332247D01*
X157766666Y-63332247D02*
X157671428Y-63284628D01*
X157671428Y-63284628D02*
X157480952Y-63237009D01*
X157480952Y-63237009D02*
X157385714Y-63189390D01*
X157385714Y-63189390D02*
X157338095Y-63141771D01*
X157338095Y-63141771D02*
X157290476Y-63046533D01*
X157290476Y-63046533D02*
X157290476Y-62951295D01*
X157290476Y-62951295D02*
X157338095Y-62856057D01*
X157338095Y-62856057D02*
X157385714Y-62808438D01*
X157385714Y-62808438D02*
X157480952Y-62760819D01*
X157480952Y-62760819D02*
X157719047Y-62760819D01*
X157719047Y-62760819D02*
X157861904Y-62808438D01*
X158195238Y-62760819D02*
X158433333Y-63760819D01*
X158433333Y-63760819D02*
X158623809Y-63046533D01*
X158623809Y-63046533D02*
X158814285Y-63760819D01*
X158814285Y-63760819D02*
X159052381Y-62760819D01*
X159957142Y-63760819D02*
X159385714Y-63760819D01*
X159671428Y-63760819D02*
X159671428Y-62760819D01*
X159671428Y-62760819D02*
X159576190Y-62903676D01*
X159576190Y-62903676D02*
X159480952Y-62998914D01*
X159480952Y-62998914D02*
X159385714Y-63046533D01*
X160528571Y-63189390D02*
X160433333Y-63141771D01*
X160433333Y-63141771D02*
X160385714Y-63094152D01*
X160385714Y-63094152D02*
X160338095Y-62998914D01*
X160338095Y-62998914D02*
X160338095Y-62951295D01*
X160338095Y-62951295D02*
X160385714Y-62856057D01*
X160385714Y-62856057D02*
X160433333Y-62808438D01*
X160433333Y-62808438D02*
X160528571Y-62760819D01*
X160528571Y-62760819D02*
X160719047Y-62760819D01*
X160719047Y-62760819D02*
X160814285Y-62808438D01*
X160814285Y-62808438D02*
X160861904Y-62856057D01*
X160861904Y-62856057D02*
X160909523Y-62951295D01*
X160909523Y-62951295D02*
X160909523Y-62998914D01*
X160909523Y-62998914D02*
X160861904Y-63094152D01*
X160861904Y-63094152D02*
X160814285Y-63141771D01*
X160814285Y-63141771D02*
X160719047Y-63189390D01*
X160719047Y-63189390D02*
X160528571Y-63189390D01*
X160528571Y-63189390D02*
X160433333Y-63237009D01*
X160433333Y-63237009D02*
X160385714Y-63284628D01*
X160385714Y-63284628D02*
X160338095Y-63379866D01*
X160338095Y-63379866D02*
X160338095Y-63570342D01*
X160338095Y-63570342D02*
X160385714Y-63665580D01*
X160385714Y-63665580D02*
X160433333Y-63713200D01*
X160433333Y-63713200D02*
X160528571Y-63760819D01*
X160528571Y-63760819D02*
X160719047Y-63760819D01*
X160719047Y-63760819D02*
X160814285Y-63713200D01*
X160814285Y-63713200D02*
X160861904Y-63665580D01*
X160861904Y-63665580D02*
X160909523Y-63570342D01*
X160909523Y-63570342D02*
X160909523Y-63379866D01*
X160909523Y-63379866D02*
X160861904Y-63284628D01*
X160861904Y-63284628D02*
X160814285Y-63237009D01*
X160814285Y-63237009D02*
X160719047Y-63189390D01*
X70404819Y-52088094D02*
X69404819Y-52088094D01*
X69404819Y-52088094D02*
X69404819Y-51849999D01*
X69404819Y-51849999D02*
X69452438Y-51707142D01*
X69452438Y-51707142D02*
X69547676Y-51611904D01*
X69547676Y-51611904D02*
X69642914Y-51564285D01*
X69642914Y-51564285D02*
X69833390Y-51516666D01*
X69833390Y-51516666D02*
X69976247Y-51516666D01*
X69976247Y-51516666D02*
X70166723Y-51564285D01*
X70166723Y-51564285D02*
X70261961Y-51611904D01*
X70261961Y-51611904D02*
X70357200Y-51707142D01*
X70357200Y-51707142D02*
X70404819Y-51849999D01*
X70404819Y-51849999D02*
X70404819Y-52088094D01*
X69404819Y-51183332D02*
X69404819Y-50516666D01*
X69404819Y-50516666D02*
X70404819Y-50945237D01*
X138165476Y-44658200D02*
X138308333Y-44705819D01*
X138308333Y-44705819D02*
X138546428Y-44705819D01*
X138546428Y-44705819D02*
X138641666Y-44658200D01*
X138641666Y-44658200D02*
X138689285Y-44610580D01*
X138689285Y-44610580D02*
X138736904Y-44515342D01*
X138736904Y-44515342D02*
X138736904Y-44420104D01*
X138736904Y-44420104D02*
X138689285Y-44324866D01*
X138689285Y-44324866D02*
X138641666Y-44277247D01*
X138641666Y-44277247D02*
X138546428Y-44229628D01*
X138546428Y-44229628D02*
X138355952Y-44182009D01*
X138355952Y-44182009D02*
X138260714Y-44134390D01*
X138260714Y-44134390D02*
X138213095Y-44086771D01*
X138213095Y-44086771D02*
X138165476Y-43991533D01*
X138165476Y-43991533D02*
X138165476Y-43896295D01*
X138165476Y-43896295D02*
X138213095Y-43801057D01*
X138213095Y-43801057D02*
X138260714Y-43753438D01*
X138260714Y-43753438D02*
X138355952Y-43705819D01*
X138355952Y-43705819D02*
X138594047Y-43705819D01*
X138594047Y-43705819D02*
X138736904Y-43753438D01*
X139070238Y-43705819D02*
X139308333Y-44705819D01*
X139308333Y-44705819D02*
X139498809Y-43991533D01*
X139498809Y-43991533D02*
X139689285Y-44705819D01*
X139689285Y-44705819D02*
X139927381Y-43705819D01*
X140832142Y-44705819D02*
X140260714Y-44705819D01*
X140546428Y-44705819D02*
X140546428Y-43705819D01*
X140546428Y-43705819D02*
X140451190Y-43848676D01*
X140451190Y-43848676D02*
X140355952Y-43943914D01*
X140355952Y-43943914D02*
X140260714Y-43991533D01*
X141784523Y-44705819D02*
X141213095Y-44705819D01*
X141498809Y-44705819D02*
X141498809Y-43705819D01*
X141498809Y-43705819D02*
X141403571Y-43848676D01*
X141403571Y-43848676D02*
X141308333Y-43943914D01*
X141308333Y-43943914D02*
X141213095Y-43991533D01*
X96300476Y-135073200D02*
X96443333Y-135120819D01*
X96443333Y-135120819D02*
X96681428Y-135120819D01*
X96681428Y-135120819D02*
X96776666Y-135073200D01*
X96776666Y-135073200D02*
X96824285Y-135025580D01*
X96824285Y-135025580D02*
X96871904Y-134930342D01*
X96871904Y-134930342D02*
X96871904Y-134835104D01*
X96871904Y-134835104D02*
X96824285Y-134739866D01*
X96824285Y-134739866D02*
X96776666Y-134692247D01*
X96776666Y-134692247D02*
X96681428Y-134644628D01*
X96681428Y-134644628D02*
X96490952Y-134597009D01*
X96490952Y-134597009D02*
X96395714Y-134549390D01*
X96395714Y-134549390D02*
X96348095Y-134501771D01*
X96348095Y-134501771D02*
X96300476Y-134406533D01*
X96300476Y-134406533D02*
X96300476Y-134311295D01*
X96300476Y-134311295D02*
X96348095Y-134216057D01*
X96348095Y-134216057D02*
X96395714Y-134168438D01*
X96395714Y-134168438D02*
X96490952Y-134120819D01*
X96490952Y-134120819D02*
X96729047Y-134120819D01*
X96729047Y-134120819D02*
X96871904Y-134168438D01*
X97205238Y-134120819D02*
X97443333Y-135120819D01*
X97443333Y-135120819D02*
X97633809Y-134406533D01*
X97633809Y-134406533D02*
X97824285Y-135120819D01*
X97824285Y-135120819D02*
X98062381Y-134120819D01*
X98348095Y-134120819D02*
X98967142Y-134120819D01*
X98967142Y-134120819D02*
X98633809Y-134501771D01*
X98633809Y-134501771D02*
X98776666Y-134501771D01*
X98776666Y-134501771D02*
X98871904Y-134549390D01*
X98871904Y-134549390D02*
X98919523Y-134597009D01*
X98919523Y-134597009D02*
X98967142Y-134692247D01*
X98967142Y-134692247D02*
X98967142Y-134930342D01*
X98967142Y-134930342D02*
X98919523Y-135025580D01*
X98919523Y-135025580D02*
X98871904Y-135073200D01*
X98871904Y-135073200D02*
X98776666Y-135120819D01*
X98776666Y-135120819D02*
X98490952Y-135120819D01*
X98490952Y-135120819D02*
X98395714Y-135073200D01*
X98395714Y-135073200D02*
X98348095Y-135025580D01*
X99919523Y-135120819D02*
X99348095Y-135120819D01*
X99633809Y-135120819D02*
X99633809Y-134120819D01*
X99633809Y-134120819D02*
X99538571Y-134263676D01*
X99538571Y-134263676D02*
X99443333Y-134358914D01*
X99443333Y-134358914D02*
X99348095Y-134406533D01*
X61950476Y-63698200D02*
X62093333Y-63745819D01*
X62093333Y-63745819D02*
X62331428Y-63745819D01*
X62331428Y-63745819D02*
X62426666Y-63698200D01*
X62426666Y-63698200D02*
X62474285Y-63650580D01*
X62474285Y-63650580D02*
X62521904Y-63555342D01*
X62521904Y-63555342D02*
X62521904Y-63460104D01*
X62521904Y-63460104D02*
X62474285Y-63364866D01*
X62474285Y-63364866D02*
X62426666Y-63317247D01*
X62426666Y-63317247D02*
X62331428Y-63269628D01*
X62331428Y-63269628D02*
X62140952Y-63222009D01*
X62140952Y-63222009D02*
X62045714Y-63174390D01*
X62045714Y-63174390D02*
X61998095Y-63126771D01*
X61998095Y-63126771D02*
X61950476Y-63031533D01*
X61950476Y-63031533D02*
X61950476Y-62936295D01*
X61950476Y-62936295D02*
X61998095Y-62841057D01*
X61998095Y-62841057D02*
X62045714Y-62793438D01*
X62045714Y-62793438D02*
X62140952Y-62745819D01*
X62140952Y-62745819D02*
X62379047Y-62745819D01*
X62379047Y-62745819D02*
X62521904Y-62793438D01*
X62855238Y-62745819D02*
X63093333Y-63745819D01*
X63093333Y-63745819D02*
X63283809Y-63031533D01*
X63283809Y-63031533D02*
X63474285Y-63745819D01*
X63474285Y-63745819D02*
X63712381Y-62745819D01*
X64617142Y-63745819D02*
X64045714Y-63745819D01*
X64331428Y-63745819D02*
X64331428Y-62745819D01*
X64331428Y-62745819D02*
X64236190Y-62888676D01*
X64236190Y-62888676D02*
X64140952Y-62983914D01*
X64140952Y-62983914D02*
X64045714Y-63031533D01*
X64950476Y-62745819D02*
X65569523Y-62745819D01*
X65569523Y-62745819D02*
X65236190Y-63126771D01*
X65236190Y-63126771D02*
X65379047Y-63126771D01*
X65379047Y-63126771D02*
X65474285Y-63174390D01*
X65474285Y-63174390D02*
X65521904Y-63222009D01*
X65521904Y-63222009D02*
X65569523Y-63317247D01*
X65569523Y-63317247D02*
X65569523Y-63555342D01*
X65569523Y-63555342D02*
X65521904Y-63650580D01*
X65521904Y-63650580D02*
X65474285Y-63698200D01*
X65474285Y-63698200D02*
X65379047Y-63745819D01*
X65379047Y-63745819D02*
X65093333Y-63745819D01*
X65093333Y-63745819D02*
X64998095Y-63698200D01*
X64998095Y-63698200D02*
X64950476Y-63650580D01*
X115740476Y-123833200D02*
X115883333Y-123880819D01*
X115883333Y-123880819D02*
X116121428Y-123880819D01*
X116121428Y-123880819D02*
X116216666Y-123833200D01*
X116216666Y-123833200D02*
X116264285Y-123785580D01*
X116264285Y-123785580D02*
X116311904Y-123690342D01*
X116311904Y-123690342D02*
X116311904Y-123595104D01*
X116311904Y-123595104D02*
X116264285Y-123499866D01*
X116264285Y-123499866D02*
X116216666Y-123452247D01*
X116216666Y-123452247D02*
X116121428Y-123404628D01*
X116121428Y-123404628D02*
X115930952Y-123357009D01*
X115930952Y-123357009D02*
X115835714Y-123309390D01*
X115835714Y-123309390D02*
X115788095Y-123261771D01*
X115788095Y-123261771D02*
X115740476Y-123166533D01*
X115740476Y-123166533D02*
X115740476Y-123071295D01*
X115740476Y-123071295D02*
X115788095Y-122976057D01*
X115788095Y-122976057D02*
X115835714Y-122928438D01*
X115835714Y-122928438D02*
X115930952Y-122880819D01*
X115930952Y-122880819D02*
X116169047Y-122880819D01*
X116169047Y-122880819D02*
X116311904Y-122928438D01*
X116645238Y-122880819D02*
X116883333Y-123880819D01*
X116883333Y-123880819D02*
X117073809Y-123166533D01*
X117073809Y-123166533D02*
X117264285Y-123880819D01*
X117264285Y-123880819D02*
X117502381Y-122880819D01*
X117788095Y-122880819D02*
X118407142Y-122880819D01*
X118407142Y-122880819D02*
X118073809Y-123261771D01*
X118073809Y-123261771D02*
X118216666Y-123261771D01*
X118216666Y-123261771D02*
X118311904Y-123309390D01*
X118311904Y-123309390D02*
X118359523Y-123357009D01*
X118359523Y-123357009D02*
X118407142Y-123452247D01*
X118407142Y-123452247D02*
X118407142Y-123690342D01*
X118407142Y-123690342D02*
X118359523Y-123785580D01*
X118359523Y-123785580D02*
X118311904Y-123833200D01*
X118311904Y-123833200D02*
X118216666Y-123880819D01*
X118216666Y-123880819D02*
X117930952Y-123880819D01*
X117930952Y-123880819D02*
X117835714Y-123833200D01*
X117835714Y-123833200D02*
X117788095Y-123785580D01*
X118788095Y-122976057D02*
X118835714Y-122928438D01*
X118835714Y-122928438D02*
X118930952Y-122880819D01*
X118930952Y-122880819D02*
X119169047Y-122880819D01*
X119169047Y-122880819D02*
X119264285Y-122928438D01*
X119264285Y-122928438D02*
X119311904Y-122976057D01*
X119311904Y-122976057D02*
X119359523Y-123071295D01*
X119359523Y-123071295D02*
X119359523Y-123166533D01*
X119359523Y-123166533D02*
X119311904Y-123309390D01*
X119311904Y-123309390D02*
X118740476Y-123880819D01*
X118740476Y-123880819D02*
X119359523Y-123880819D01*
X124454819Y-127914285D02*
X123454819Y-127914285D01*
X123454819Y-127914285D02*
X123454819Y-127676190D01*
X123454819Y-127676190D02*
X123502438Y-127533333D01*
X123502438Y-127533333D02*
X123597676Y-127438095D01*
X123597676Y-127438095D02*
X123692914Y-127390476D01*
X123692914Y-127390476D02*
X123883390Y-127342857D01*
X123883390Y-127342857D02*
X124026247Y-127342857D01*
X124026247Y-127342857D02*
X124216723Y-127390476D01*
X124216723Y-127390476D02*
X124311961Y-127438095D01*
X124311961Y-127438095D02*
X124407200Y-127533333D01*
X124407200Y-127533333D02*
X124454819Y-127676190D01*
X124454819Y-127676190D02*
X124454819Y-127914285D01*
X123454819Y-127009523D02*
X123454819Y-126390476D01*
X123454819Y-126390476D02*
X123835771Y-126723809D01*
X123835771Y-126723809D02*
X123835771Y-126580952D01*
X123835771Y-126580952D02*
X123883390Y-126485714D01*
X123883390Y-126485714D02*
X123931009Y-126438095D01*
X123931009Y-126438095D02*
X124026247Y-126390476D01*
X124026247Y-126390476D02*
X124264342Y-126390476D01*
X124264342Y-126390476D02*
X124359580Y-126438095D01*
X124359580Y-126438095D02*
X124407200Y-126485714D01*
X124407200Y-126485714D02*
X124454819Y-126580952D01*
X124454819Y-126580952D02*
X124454819Y-126866666D01*
X124454819Y-126866666D02*
X124407200Y-126961904D01*
X124407200Y-126961904D02*
X124359580Y-127009523D01*
X123550057Y-126009523D02*
X123502438Y-125961904D01*
X123502438Y-125961904D02*
X123454819Y-125866666D01*
X123454819Y-125866666D02*
X123454819Y-125628571D01*
X123454819Y-125628571D02*
X123502438Y-125533333D01*
X123502438Y-125533333D02*
X123550057Y-125485714D01*
X123550057Y-125485714D02*
X123645295Y-125438095D01*
X123645295Y-125438095D02*
X123740533Y-125438095D01*
X123740533Y-125438095D02*
X123883390Y-125485714D01*
X123883390Y-125485714D02*
X124454819Y-126057142D01*
X124454819Y-126057142D02*
X124454819Y-125438095D01*
X166454819Y-141214285D02*
X165454819Y-141214285D01*
X165454819Y-141214285D02*
X165454819Y-140976190D01*
X165454819Y-140976190D02*
X165502438Y-140833333D01*
X165502438Y-140833333D02*
X165597676Y-140738095D01*
X165597676Y-140738095D02*
X165692914Y-140690476D01*
X165692914Y-140690476D02*
X165883390Y-140642857D01*
X165883390Y-140642857D02*
X166026247Y-140642857D01*
X166026247Y-140642857D02*
X166216723Y-140690476D01*
X166216723Y-140690476D02*
X166311961Y-140738095D01*
X166311961Y-140738095D02*
X166407200Y-140833333D01*
X166407200Y-140833333D02*
X166454819Y-140976190D01*
X166454819Y-140976190D02*
X166454819Y-141214285D01*
X165454819Y-140309523D02*
X165454819Y-139690476D01*
X165454819Y-139690476D02*
X165835771Y-140023809D01*
X165835771Y-140023809D02*
X165835771Y-139880952D01*
X165835771Y-139880952D02*
X165883390Y-139785714D01*
X165883390Y-139785714D02*
X165931009Y-139738095D01*
X165931009Y-139738095D02*
X166026247Y-139690476D01*
X166026247Y-139690476D02*
X166264342Y-139690476D01*
X166264342Y-139690476D02*
X166359580Y-139738095D01*
X166359580Y-139738095D02*
X166407200Y-139785714D01*
X166407200Y-139785714D02*
X166454819Y-139880952D01*
X166454819Y-139880952D02*
X166454819Y-140166666D01*
X166454819Y-140166666D02*
X166407200Y-140261904D01*
X166407200Y-140261904D02*
X166359580Y-140309523D01*
X165788152Y-138833333D02*
X166454819Y-138833333D01*
X165407200Y-139071428D02*
X166121485Y-139309523D01*
X166121485Y-139309523D02*
X166121485Y-138690476D01*
X100516667Y-25603200D02*
X100659524Y-25650819D01*
X100659524Y-25650819D02*
X100897619Y-25650819D01*
X100897619Y-25650819D02*
X100992857Y-25603200D01*
X100992857Y-25603200D02*
X101040476Y-25555580D01*
X101040476Y-25555580D02*
X101088095Y-25460342D01*
X101088095Y-25460342D02*
X101088095Y-25365104D01*
X101088095Y-25365104D02*
X101040476Y-25269866D01*
X101040476Y-25269866D02*
X100992857Y-25222247D01*
X100992857Y-25222247D02*
X100897619Y-25174628D01*
X100897619Y-25174628D02*
X100707143Y-25127009D01*
X100707143Y-25127009D02*
X100611905Y-25079390D01*
X100611905Y-25079390D02*
X100564286Y-25031771D01*
X100564286Y-25031771D02*
X100516667Y-24936533D01*
X100516667Y-24936533D02*
X100516667Y-24841295D01*
X100516667Y-24841295D02*
X100564286Y-24746057D01*
X100564286Y-24746057D02*
X100611905Y-24698438D01*
X100611905Y-24698438D02*
X100707143Y-24650819D01*
X100707143Y-24650819D02*
X100945238Y-24650819D01*
X100945238Y-24650819D02*
X101088095Y-24698438D01*
X101421429Y-24650819D02*
X101659524Y-25650819D01*
X101659524Y-25650819D02*
X101850000Y-24936533D01*
X101850000Y-24936533D02*
X102040476Y-25650819D01*
X102040476Y-25650819D02*
X102278572Y-24650819D01*
X102564286Y-24650819D02*
X103183333Y-24650819D01*
X103183333Y-24650819D02*
X102850000Y-25031771D01*
X102850000Y-25031771D02*
X102992857Y-25031771D01*
X102992857Y-25031771D02*
X103088095Y-25079390D01*
X103088095Y-25079390D02*
X103135714Y-25127009D01*
X103135714Y-25127009D02*
X103183333Y-25222247D01*
X103183333Y-25222247D02*
X103183333Y-25460342D01*
X103183333Y-25460342D02*
X103135714Y-25555580D01*
X103135714Y-25555580D02*
X103088095Y-25603200D01*
X103088095Y-25603200D02*
X102992857Y-25650819D01*
X102992857Y-25650819D02*
X102707143Y-25650819D01*
X102707143Y-25650819D02*
X102611905Y-25603200D01*
X102611905Y-25603200D02*
X102564286Y-25555580D01*
X138636667Y-25603200D02*
X138779524Y-25650819D01*
X138779524Y-25650819D02*
X139017619Y-25650819D01*
X139017619Y-25650819D02*
X139112857Y-25603200D01*
X139112857Y-25603200D02*
X139160476Y-25555580D01*
X139160476Y-25555580D02*
X139208095Y-25460342D01*
X139208095Y-25460342D02*
X139208095Y-25365104D01*
X139208095Y-25365104D02*
X139160476Y-25269866D01*
X139160476Y-25269866D02*
X139112857Y-25222247D01*
X139112857Y-25222247D02*
X139017619Y-25174628D01*
X139017619Y-25174628D02*
X138827143Y-25127009D01*
X138827143Y-25127009D02*
X138731905Y-25079390D01*
X138731905Y-25079390D02*
X138684286Y-25031771D01*
X138684286Y-25031771D02*
X138636667Y-24936533D01*
X138636667Y-24936533D02*
X138636667Y-24841295D01*
X138636667Y-24841295D02*
X138684286Y-24746057D01*
X138684286Y-24746057D02*
X138731905Y-24698438D01*
X138731905Y-24698438D02*
X138827143Y-24650819D01*
X138827143Y-24650819D02*
X139065238Y-24650819D01*
X139065238Y-24650819D02*
X139208095Y-24698438D01*
X139541429Y-24650819D02*
X139779524Y-25650819D01*
X139779524Y-25650819D02*
X139970000Y-24936533D01*
X139970000Y-24936533D02*
X140160476Y-25650819D01*
X140160476Y-25650819D02*
X140398572Y-24650819D01*
X141255714Y-24650819D02*
X140779524Y-24650819D01*
X140779524Y-24650819D02*
X140731905Y-25127009D01*
X140731905Y-25127009D02*
X140779524Y-25079390D01*
X140779524Y-25079390D02*
X140874762Y-25031771D01*
X140874762Y-25031771D02*
X141112857Y-25031771D01*
X141112857Y-25031771D02*
X141208095Y-25079390D01*
X141208095Y-25079390D02*
X141255714Y-25127009D01*
X141255714Y-25127009D02*
X141303333Y-25222247D01*
X141303333Y-25222247D02*
X141303333Y-25460342D01*
X141303333Y-25460342D02*
X141255714Y-25555580D01*
X141255714Y-25555580D02*
X141208095Y-25603200D01*
X141208095Y-25603200D02*
X141112857Y-25650819D01*
X141112857Y-25650819D02*
X140874762Y-25650819D01*
X140874762Y-25650819D02*
X140779524Y-25603200D01*
X140779524Y-25603200D02*
X140731905Y-25555580D01*
X62446667Y-25603200D02*
X62589524Y-25650819D01*
X62589524Y-25650819D02*
X62827619Y-25650819D01*
X62827619Y-25650819D02*
X62922857Y-25603200D01*
X62922857Y-25603200D02*
X62970476Y-25555580D01*
X62970476Y-25555580D02*
X63018095Y-25460342D01*
X63018095Y-25460342D02*
X63018095Y-25365104D01*
X63018095Y-25365104D02*
X62970476Y-25269866D01*
X62970476Y-25269866D02*
X62922857Y-25222247D01*
X62922857Y-25222247D02*
X62827619Y-25174628D01*
X62827619Y-25174628D02*
X62637143Y-25127009D01*
X62637143Y-25127009D02*
X62541905Y-25079390D01*
X62541905Y-25079390D02*
X62494286Y-25031771D01*
X62494286Y-25031771D02*
X62446667Y-24936533D01*
X62446667Y-24936533D02*
X62446667Y-24841295D01*
X62446667Y-24841295D02*
X62494286Y-24746057D01*
X62494286Y-24746057D02*
X62541905Y-24698438D01*
X62541905Y-24698438D02*
X62637143Y-24650819D01*
X62637143Y-24650819D02*
X62875238Y-24650819D01*
X62875238Y-24650819D02*
X63018095Y-24698438D01*
X63351429Y-24650819D02*
X63589524Y-25650819D01*
X63589524Y-25650819D02*
X63780000Y-24936533D01*
X63780000Y-24936533D02*
X63970476Y-25650819D01*
X63970476Y-25650819D02*
X64208572Y-24650819D01*
X65113333Y-25650819D02*
X64541905Y-25650819D01*
X64827619Y-25650819D02*
X64827619Y-24650819D01*
X64827619Y-24650819D02*
X64732381Y-24793676D01*
X64732381Y-24793676D02*
X64637143Y-24888914D01*
X64637143Y-24888914D02*
X64541905Y-24936533D01*
X89454819Y-108914285D02*
X88454819Y-108914285D01*
X88454819Y-108914285D02*
X88454819Y-108676190D01*
X88454819Y-108676190D02*
X88502438Y-108533333D01*
X88502438Y-108533333D02*
X88597676Y-108438095D01*
X88597676Y-108438095D02*
X88692914Y-108390476D01*
X88692914Y-108390476D02*
X88883390Y-108342857D01*
X88883390Y-108342857D02*
X89026247Y-108342857D01*
X89026247Y-108342857D02*
X89216723Y-108390476D01*
X89216723Y-108390476D02*
X89311961Y-108438095D01*
X89311961Y-108438095D02*
X89407200Y-108533333D01*
X89407200Y-108533333D02*
X89454819Y-108676190D01*
X89454819Y-108676190D02*
X89454819Y-108914285D01*
X88550057Y-107961904D02*
X88502438Y-107914285D01*
X88502438Y-107914285D02*
X88454819Y-107819047D01*
X88454819Y-107819047D02*
X88454819Y-107580952D01*
X88454819Y-107580952D02*
X88502438Y-107485714D01*
X88502438Y-107485714D02*
X88550057Y-107438095D01*
X88550057Y-107438095D02*
X88645295Y-107390476D01*
X88645295Y-107390476D02*
X88740533Y-107390476D01*
X88740533Y-107390476D02*
X88883390Y-107438095D01*
X88883390Y-107438095D02*
X89454819Y-108009523D01*
X89454819Y-108009523D02*
X89454819Y-107390476D01*
X88454819Y-106533333D02*
X88454819Y-106723809D01*
X88454819Y-106723809D02*
X88502438Y-106819047D01*
X88502438Y-106819047D02*
X88550057Y-106866666D01*
X88550057Y-106866666D02*
X88692914Y-106961904D01*
X88692914Y-106961904D02*
X88883390Y-107009523D01*
X88883390Y-107009523D02*
X89264342Y-107009523D01*
X89264342Y-107009523D02*
X89359580Y-106961904D01*
X89359580Y-106961904D02*
X89407200Y-106914285D01*
X89407200Y-106914285D02*
X89454819Y-106819047D01*
X89454819Y-106819047D02*
X89454819Y-106628571D01*
X89454819Y-106628571D02*
X89407200Y-106533333D01*
X89407200Y-106533333D02*
X89359580Y-106485714D01*
X89359580Y-106485714D02*
X89264342Y-106438095D01*
X89264342Y-106438095D02*
X89026247Y-106438095D01*
X89026247Y-106438095D02*
X88931009Y-106485714D01*
X88931009Y-106485714D02*
X88883390Y-106533333D01*
X88883390Y-106533333D02*
X88835771Y-106628571D01*
X88835771Y-106628571D02*
X88835771Y-106819047D01*
X88835771Y-106819047D02*
X88883390Y-106914285D01*
X88883390Y-106914285D02*
X88931009Y-106961904D01*
X88931009Y-106961904D02*
X89026247Y-107009523D01*
X154040476Y-139533200D02*
X154183333Y-139580819D01*
X154183333Y-139580819D02*
X154421428Y-139580819D01*
X154421428Y-139580819D02*
X154516666Y-139533200D01*
X154516666Y-139533200D02*
X154564285Y-139485580D01*
X154564285Y-139485580D02*
X154611904Y-139390342D01*
X154611904Y-139390342D02*
X154611904Y-139295104D01*
X154611904Y-139295104D02*
X154564285Y-139199866D01*
X154564285Y-139199866D02*
X154516666Y-139152247D01*
X154516666Y-139152247D02*
X154421428Y-139104628D01*
X154421428Y-139104628D02*
X154230952Y-139057009D01*
X154230952Y-139057009D02*
X154135714Y-139009390D01*
X154135714Y-139009390D02*
X154088095Y-138961771D01*
X154088095Y-138961771D02*
X154040476Y-138866533D01*
X154040476Y-138866533D02*
X154040476Y-138771295D01*
X154040476Y-138771295D02*
X154088095Y-138676057D01*
X154088095Y-138676057D02*
X154135714Y-138628438D01*
X154135714Y-138628438D02*
X154230952Y-138580819D01*
X154230952Y-138580819D02*
X154469047Y-138580819D01*
X154469047Y-138580819D02*
X154611904Y-138628438D01*
X154945238Y-138580819D02*
X155183333Y-139580819D01*
X155183333Y-139580819D02*
X155373809Y-138866533D01*
X155373809Y-138866533D02*
X155564285Y-139580819D01*
X155564285Y-139580819D02*
X155802381Y-138580819D01*
X156088095Y-138580819D02*
X156707142Y-138580819D01*
X156707142Y-138580819D02*
X156373809Y-138961771D01*
X156373809Y-138961771D02*
X156516666Y-138961771D01*
X156516666Y-138961771D02*
X156611904Y-139009390D01*
X156611904Y-139009390D02*
X156659523Y-139057009D01*
X156659523Y-139057009D02*
X156707142Y-139152247D01*
X156707142Y-139152247D02*
X156707142Y-139390342D01*
X156707142Y-139390342D02*
X156659523Y-139485580D01*
X156659523Y-139485580D02*
X156611904Y-139533200D01*
X156611904Y-139533200D02*
X156516666Y-139580819D01*
X156516666Y-139580819D02*
X156230952Y-139580819D01*
X156230952Y-139580819D02*
X156135714Y-139533200D01*
X156135714Y-139533200D02*
X156088095Y-139485580D01*
X157564285Y-138914152D02*
X157564285Y-139580819D01*
X157326190Y-138533200D02*
X157088095Y-139247485D01*
X157088095Y-139247485D02*
X157707142Y-139247485D01*
X89454819Y-72514285D02*
X88454819Y-72514285D01*
X88454819Y-72514285D02*
X88454819Y-72276190D01*
X88454819Y-72276190D02*
X88502438Y-72133333D01*
X88502438Y-72133333D02*
X88597676Y-72038095D01*
X88597676Y-72038095D02*
X88692914Y-71990476D01*
X88692914Y-71990476D02*
X88883390Y-71942857D01*
X88883390Y-71942857D02*
X89026247Y-71942857D01*
X89026247Y-71942857D02*
X89216723Y-71990476D01*
X89216723Y-71990476D02*
X89311961Y-72038095D01*
X89311961Y-72038095D02*
X89407200Y-72133333D01*
X89407200Y-72133333D02*
X89454819Y-72276190D01*
X89454819Y-72276190D02*
X89454819Y-72514285D01*
X89454819Y-70990476D02*
X89454819Y-71561904D01*
X89454819Y-71276190D02*
X88454819Y-71276190D01*
X88454819Y-71276190D02*
X88597676Y-71371428D01*
X88597676Y-71371428D02*
X88692914Y-71466666D01*
X88692914Y-71466666D02*
X88740533Y-71561904D01*
X88788152Y-70133333D02*
X89454819Y-70133333D01*
X88407200Y-70371428D02*
X89121485Y-70609523D01*
X89121485Y-70609523D02*
X89121485Y-69990476D01*
X146454819Y-33438094D02*
X145454819Y-33438094D01*
X145454819Y-33438094D02*
X145454819Y-33199999D01*
X145454819Y-33199999D02*
X145502438Y-33057142D01*
X145502438Y-33057142D02*
X145597676Y-32961904D01*
X145597676Y-32961904D02*
X145692914Y-32914285D01*
X145692914Y-32914285D02*
X145883390Y-32866666D01*
X145883390Y-32866666D02*
X146026247Y-32866666D01*
X146026247Y-32866666D02*
X146216723Y-32914285D01*
X146216723Y-32914285D02*
X146311961Y-32961904D01*
X146311961Y-32961904D02*
X146407200Y-33057142D01*
X146407200Y-33057142D02*
X146454819Y-33199999D01*
X146454819Y-33199999D02*
X146454819Y-33438094D01*
X145454819Y-31961904D02*
X145454819Y-32438094D01*
X145454819Y-32438094D02*
X145931009Y-32485713D01*
X145931009Y-32485713D02*
X145883390Y-32438094D01*
X145883390Y-32438094D02*
X145835771Y-32342856D01*
X145835771Y-32342856D02*
X145835771Y-32104761D01*
X145835771Y-32104761D02*
X145883390Y-32009523D01*
X145883390Y-32009523D02*
X145931009Y-31961904D01*
X145931009Y-31961904D02*
X146026247Y-31914285D01*
X146026247Y-31914285D02*
X146264342Y-31914285D01*
X146264342Y-31914285D02*
X146359580Y-31961904D01*
X146359580Y-31961904D02*
X146407200Y-32009523D01*
X146407200Y-32009523D02*
X146454819Y-32104761D01*
X146454819Y-32104761D02*
X146454819Y-32342856D01*
X146454819Y-32342856D02*
X146407200Y-32438094D01*
X146407200Y-32438094D02*
X146359580Y-32485713D01*
X119100476Y-82723200D02*
X119243333Y-82770819D01*
X119243333Y-82770819D02*
X119481428Y-82770819D01*
X119481428Y-82770819D02*
X119576666Y-82723200D01*
X119576666Y-82723200D02*
X119624285Y-82675580D01*
X119624285Y-82675580D02*
X119671904Y-82580342D01*
X119671904Y-82580342D02*
X119671904Y-82485104D01*
X119671904Y-82485104D02*
X119624285Y-82389866D01*
X119624285Y-82389866D02*
X119576666Y-82342247D01*
X119576666Y-82342247D02*
X119481428Y-82294628D01*
X119481428Y-82294628D02*
X119290952Y-82247009D01*
X119290952Y-82247009D02*
X119195714Y-82199390D01*
X119195714Y-82199390D02*
X119148095Y-82151771D01*
X119148095Y-82151771D02*
X119100476Y-82056533D01*
X119100476Y-82056533D02*
X119100476Y-81961295D01*
X119100476Y-81961295D02*
X119148095Y-81866057D01*
X119148095Y-81866057D02*
X119195714Y-81818438D01*
X119195714Y-81818438D02*
X119290952Y-81770819D01*
X119290952Y-81770819D02*
X119529047Y-81770819D01*
X119529047Y-81770819D02*
X119671904Y-81818438D01*
X120005238Y-81770819D02*
X120243333Y-82770819D01*
X120243333Y-82770819D02*
X120433809Y-82056533D01*
X120433809Y-82056533D02*
X120624285Y-82770819D01*
X120624285Y-82770819D02*
X120862381Y-81770819D01*
X121195714Y-81866057D02*
X121243333Y-81818438D01*
X121243333Y-81818438D02*
X121338571Y-81770819D01*
X121338571Y-81770819D02*
X121576666Y-81770819D01*
X121576666Y-81770819D02*
X121671904Y-81818438D01*
X121671904Y-81818438D02*
X121719523Y-81866057D01*
X121719523Y-81866057D02*
X121767142Y-81961295D01*
X121767142Y-81961295D02*
X121767142Y-82056533D01*
X121767142Y-82056533D02*
X121719523Y-82199390D01*
X121719523Y-82199390D02*
X121148095Y-82770819D01*
X121148095Y-82770819D02*
X121767142Y-82770819D01*
X122148095Y-81866057D02*
X122195714Y-81818438D01*
X122195714Y-81818438D02*
X122290952Y-81770819D01*
X122290952Y-81770819D02*
X122529047Y-81770819D01*
X122529047Y-81770819D02*
X122624285Y-81818438D01*
X122624285Y-81818438D02*
X122671904Y-81866057D01*
X122671904Y-81866057D02*
X122719523Y-81961295D01*
X122719523Y-81961295D02*
X122719523Y-82056533D01*
X122719523Y-82056533D02*
X122671904Y-82199390D01*
X122671904Y-82199390D02*
X122100476Y-82770819D01*
X122100476Y-82770819D02*
X122719523Y-82770819D01*
X214666666Y-113304819D02*
X214333333Y-112828628D01*
X214095238Y-113304819D02*
X214095238Y-112304819D01*
X214095238Y-112304819D02*
X214476190Y-112304819D01*
X214476190Y-112304819D02*
X214571428Y-112352438D01*
X214571428Y-112352438D02*
X214619047Y-112400057D01*
X214619047Y-112400057D02*
X214666666Y-112495295D01*
X214666666Y-112495295D02*
X214666666Y-112638152D01*
X214666666Y-112638152D02*
X214619047Y-112733390D01*
X214619047Y-112733390D02*
X214571428Y-112781009D01*
X214571428Y-112781009D02*
X214476190Y-112828628D01*
X214476190Y-112828628D02*
X214095238Y-112828628D01*
X215095238Y-112781009D02*
X215428571Y-112781009D01*
X215571428Y-113304819D02*
X215095238Y-113304819D01*
X215095238Y-113304819D02*
X215095238Y-112304819D01*
X215095238Y-112304819D02*
X215571428Y-112304819D01*
X216333333Y-112781009D02*
X216000000Y-112781009D01*
X216000000Y-113304819D02*
X216000000Y-112304819D01*
X216000000Y-112304819D02*
X216476190Y-112304819D01*
X217000000Y-112304819D02*
X217000000Y-112542914D01*
X216761905Y-112447676D02*
X217000000Y-112542914D01*
X217000000Y-112542914D02*
X217238095Y-112447676D01*
X216857143Y-112733390D02*
X217000000Y-112542914D01*
X217000000Y-112542914D02*
X217142857Y-112733390D01*
X217761905Y-112304819D02*
X217761905Y-112542914D01*
X217523810Y-112447676D02*
X217761905Y-112542914D01*
X217761905Y-112542914D02*
X218000000Y-112447676D01*
X217619048Y-112733390D02*
X217761905Y-112542914D01*
X217761905Y-112542914D02*
X217904762Y-112733390D01*
X108404819Y-52088094D02*
X107404819Y-52088094D01*
X107404819Y-52088094D02*
X107404819Y-51849999D01*
X107404819Y-51849999D02*
X107452438Y-51707142D01*
X107452438Y-51707142D02*
X107547676Y-51611904D01*
X107547676Y-51611904D02*
X107642914Y-51564285D01*
X107642914Y-51564285D02*
X107833390Y-51516666D01*
X107833390Y-51516666D02*
X107976247Y-51516666D01*
X107976247Y-51516666D02*
X108166723Y-51564285D01*
X108166723Y-51564285D02*
X108261961Y-51611904D01*
X108261961Y-51611904D02*
X108357200Y-51707142D01*
X108357200Y-51707142D02*
X108404819Y-51849999D01*
X108404819Y-51849999D02*
X108404819Y-52088094D01*
X108404819Y-51040475D02*
X108404819Y-50849999D01*
X108404819Y-50849999D02*
X108357200Y-50754761D01*
X108357200Y-50754761D02*
X108309580Y-50707142D01*
X108309580Y-50707142D02*
X108166723Y-50611904D01*
X108166723Y-50611904D02*
X107976247Y-50564285D01*
X107976247Y-50564285D02*
X107595295Y-50564285D01*
X107595295Y-50564285D02*
X107500057Y-50611904D01*
X107500057Y-50611904D02*
X107452438Y-50659523D01*
X107452438Y-50659523D02*
X107404819Y-50754761D01*
X107404819Y-50754761D02*
X107404819Y-50945237D01*
X107404819Y-50945237D02*
X107452438Y-51040475D01*
X107452438Y-51040475D02*
X107500057Y-51088094D01*
X107500057Y-51088094D02*
X107595295Y-51135713D01*
X107595295Y-51135713D02*
X107833390Y-51135713D01*
X107833390Y-51135713D02*
X107928628Y-51088094D01*
X107928628Y-51088094D02*
X107976247Y-51040475D01*
X107976247Y-51040475D02*
X108023866Y-50945237D01*
X108023866Y-50945237D02*
X108023866Y-50754761D01*
X108023866Y-50754761D02*
X107976247Y-50659523D01*
X107976247Y-50659523D02*
X107928628Y-50611904D01*
X107928628Y-50611904D02*
X107833390Y-50564285D01*
X100075476Y-63713200D02*
X100218333Y-63760819D01*
X100218333Y-63760819D02*
X100456428Y-63760819D01*
X100456428Y-63760819D02*
X100551666Y-63713200D01*
X100551666Y-63713200D02*
X100599285Y-63665580D01*
X100599285Y-63665580D02*
X100646904Y-63570342D01*
X100646904Y-63570342D02*
X100646904Y-63475104D01*
X100646904Y-63475104D02*
X100599285Y-63379866D01*
X100599285Y-63379866D02*
X100551666Y-63332247D01*
X100551666Y-63332247D02*
X100456428Y-63284628D01*
X100456428Y-63284628D02*
X100265952Y-63237009D01*
X100265952Y-63237009D02*
X100170714Y-63189390D01*
X100170714Y-63189390D02*
X100123095Y-63141771D01*
X100123095Y-63141771D02*
X100075476Y-63046533D01*
X100075476Y-63046533D02*
X100075476Y-62951295D01*
X100075476Y-62951295D02*
X100123095Y-62856057D01*
X100123095Y-62856057D02*
X100170714Y-62808438D01*
X100170714Y-62808438D02*
X100265952Y-62760819D01*
X100265952Y-62760819D02*
X100504047Y-62760819D01*
X100504047Y-62760819D02*
X100646904Y-62808438D01*
X100980238Y-62760819D02*
X101218333Y-63760819D01*
X101218333Y-63760819D02*
X101408809Y-63046533D01*
X101408809Y-63046533D02*
X101599285Y-63760819D01*
X101599285Y-63760819D02*
X101837381Y-62760819D01*
X102742142Y-63760819D02*
X102170714Y-63760819D01*
X102456428Y-63760819D02*
X102456428Y-62760819D01*
X102456428Y-62760819D02*
X102361190Y-62903676D01*
X102361190Y-62903676D02*
X102265952Y-62998914D01*
X102265952Y-62998914D02*
X102170714Y-63046533D01*
X103646904Y-62760819D02*
X103170714Y-62760819D01*
X103170714Y-62760819D02*
X103123095Y-63237009D01*
X103123095Y-63237009D02*
X103170714Y-63189390D01*
X103170714Y-63189390D02*
X103265952Y-63141771D01*
X103265952Y-63141771D02*
X103504047Y-63141771D01*
X103504047Y-63141771D02*
X103599285Y-63189390D01*
X103599285Y-63189390D02*
X103646904Y-63237009D01*
X103646904Y-63237009D02*
X103694523Y-63332247D01*
X103694523Y-63332247D02*
X103694523Y-63570342D01*
X103694523Y-63570342D02*
X103646904Y-63665580D01*
X103646904Y-63665580D02*
X103599285Y-63713200D01*
X103599285Y-63713200D02*
X103504047Y-63760819D01*
X103504047Y-63760819D02*
X103265952Y-63760819D01*
X103265952Y-63760819D02*
X103170714Y-63713200D01*
X103170714Y-63713200D02*
X103123095Y-63665580D01*
X138290476Y-82833200D02*
X138433333Y-82880819D01*
X138433333Y-82880819D02*
X138671428Y-82880819D01*
X138671428Y-82880819D02*
X138766666Y-82833200D01*
X138766666Y-82833200D02*
X138814285Y-82785580D01*
X138814285Y-82785580D02*
X138861904Y-82690342D01*
X138861904Y-82690342D02*
X138861904Y-82595104D01*
X138861904Y-82595104D02*
X138814285Y-82499866D01*
X138814285Y-82499866D02*
X138766666Y-82452247D01*
X138766666Y-82452247D02*
X138671428Y-82404628D01*
X138671428Y-82404628D02*
X138480952Y-82357009D01*
X138480952Y-82357009D02*
X138385714Y-82309390D01*
X138385714Y-82309390D02*
X138338095Y-82261771D01*
X138338095Y-82261771D02*
X138290476Y-82166533D01*
X138290476Y-82166533D02*
X138290476Y-82071295D01*
X138290476Y-82071295D02*
X138338095Y-81976057D01*
X138338095Y-81976057D02*
X138385714Y-81928438D01*
X138385714Y-81928438D02*
X138480952Y-81880819D01*
X138480952Y-81880819D02*
X138719047Y-81880819D01*
X138719047Y-81880819D02*
X138861904Y-81928438D01*
X139195238Y-81880819D02*
X139433333Y-82880819D01*
X139433333Y-82880819D02*
X139623809Y-82166533D01*
X139623809Y-82166533D02*
X139814285Y-82880819D01*
X139814285Y-82880819D02*
X140052381Y-81880819D01*
X140385714Y-81976057D02*
X140433333Y-81928438D01*
X140433333Y-81928438D02*
X140528571Y-81880819D01*
X140528571Y-81880819D02*
X140766666Y-81880819D01*
X140766666Y-81880819D02*
X140861904Y-81928438D01*
X140861904Y-81928438D02*
X140909523Y-81976057D01*
X140909523Y-81976057D02*
X140957142Y-82071295D01*
X140957142Y-82071295D02*
X140957142Y-82166533D01*
X140957142Y-82166533D02*
X140909523Y-82309390D01*
X140909523Y-82309390D02*
X140338095Y-82880819D01*
X140338095Y-82880819D02*
X140957142Y-82880819D01*
X141290476Y-81880819D02*
X141909523Y-81880819D01*
X141909523Y-81880819D02*
X141576190Y-82261771D01*
X141576190Y-82261771D02*
X141719047Y-82261771D01*
X141719047Y-82261771D02*
X141814285Y-82309390D01*
X141814285Y-82309390D02*
X141861904Y-82357009D01*
X141861904Y-82357009D02*
X141909523Y-82452247D01*
X141909523Y-82452247D02*
X141909523Y-82690342D01*
X141909523Y-82690342D02*
X141861904Y-82785580D01*
X141861904Y-82785580D02*
X141814285Y-82833200D01*
X141814285Y-82833200D02*
X141719047Y-82880819D01*
X141719047Y-82880819D02*
X141433333Y-82880819D01*
X141433333Y-82880819D02*
X141338095Y-82833200D01*
X141338095Y-82833200D02*
X141290476Y-82785580D01*
X157290476Y-101833200D02*
X157433333Y-101880819D01*
X157433333Y-101880819D02*
X157671428Y-101880819D01*
X157671428Y-101880819D02*
X157766666Y-101833200D01*
X157766666Y-101833200D02*
X157814285Y-101785580D01*
X157814285Y-101785580D02*
X157861904Y-101690342D01*
X157861904Y-101690342D02*
X157861904Y-101595104D01*
X157861904Y-101595104D02*
X157814285Y-101499866D01*
X157814285Y-101499866D02*
X157766666Y-101452247D01*
X157766666Y-101452247D02*
X157671428Y-101404628D01*
X157671428Y-101404628D02*
X157480952Y-101357009D01*
X157480952Y-101357009D02*
X157385714Y-101309390D01*
X157385714Y-101309390D02*
X157338095Y-101261771D01*
X157338095Y-101261771D02*
X157290476Y-101166533D01*
X157290476Y-101166533D02*
X157290476Y-101071295D01*
X157290476Y-101071295D02*
X157338095Y-100976057D01*
X157338095Y-100976057D02*
X157385714Y-100928438D01*
X157385714Y-100928438D02*
X157480952Y-100880819D01*
X157480952Y-100880819D02*
X157719047Y-100880819D01*
X157719047Y-100880819D02*
X157861904Y-100928438D01*
X158195238Y-100880819D02*
X158433333Y-101880819D01*
X158433333Y-101880819D02*
X158623809Y-101166533D01*
X158623809Y-101166533D02*
X158814285Y-101880819D01*
X158814285Y-101880819D02*
X159052381Y-100880819D01*
X159338095Y-100880819D02*
X159957142Y-100880819D01*
X159957142Y-100880819D02*
X159623809Y-101261771D01*
X159623809Y-101261771D02*
X159766666Y-101261771D01*
X159766666Y-101261771D02*
X159861904Y-101309390D01*
X159861904Y-101309390D02*
X159909523Y-101357009D01*
X159909523Y-101357009D02*
X159957142Y-101452247D01*
X159957142Y-101452247D02*
X159957142Y-101690342D01*
X159957142Y-101690342D02*
X159909523Y-101785580D01*
X159909523Y-101785580D02*
X159861904Y-101833200D01*
X159861904Y-101833200D02*
X159766666Y-101880819D01*
X159766666Y-101880819D02*
X159480952Y-101880819D01*
X159480952Y-101880819D02*
X159385714Y-101833200D01*
X159385714Y-101833200D02*
X159338095Y-101785580D01*
X160576190Y-100880819D02*
X160671428Y-100880819D01*
X160671428Y-100880819D02*
X160766666Y-100928438D01*
X160766666Y-100928438D02*
X160814285Y-100976057D01*
X160814285Y-100976057D02*
X160861904Y-101071295D01*
X160861904Y-101071295D02*
X160909523Y-101261771D01*
X160909523Y-101261771D02*
X160909523Y-101499866D01*
X160909523Y-101499866D02*
X160861904Y-101690342D01*
X160861904Y-101690342D02*
X160814285Y-101785580D01*
X160814285Y-101785580D02*
X160766666Y-101833200D01*
X160766666Y-101833200D02*
X160671428Y-101880819D01*
X160671428Y-101880819D02*
X160576190Y-101880819D01*
X160576190Y-101880819D02*
X160480952Y-101833200D01*
X160480952Y-101833200D02*
X160433333Y-101785580D01*
X160433333Y-101785580D02*
X160385714Y-101690342D01*
X160385714Y-101690342D02*
X160338095Y-101499866D01*
X160338095Y-101499866D02*
X160338095Y-101261771D01*
X160338095Y-101261771D02*
X160385714Y-101071295D01*
X160385714Y-101071295D02*
X160433333Y-100976057D01*
X160433333Y-100976057D02*
X160480952Y-100928438D01*
X160480952Y-100928438D02*
X160576190Y-100880819D01*
X146004819Y-72514285D02*
X145004819Y-72514285D01*
X145004819Y-72514285D02*
X145004819Y-72276190D01*
X145004819Y-72276190D02*
X145052438Y-72133333D01*
X145052438Y-72133333D02*
X145147676Y-72038095D01*
X145147676Y-72038095D02*
X145242914Y-71990476D01*
X145242914Y-71990476D02*
X145433390Y-71942857D01*
X145433390Y-71942857D02*
X145576247Y-71942857D01*
X145576247Y-71942857D02*
X145766723Y-71990476D01*
X145766723Y-71990476D02*
X145861961Y-72038095D01*
X145861961Y-72038095D02*
X145957200Y-72133333D01*
X145957200Y-72133333D02*
X146004819Y-72276190D01*
X146004819Y-72276190D02*
X146004819Y-72514285D01*
X146004819Y-70990476D02*
X146004819Y-71561904D01*
X146004819Y-71276190D02*
X145004819Y-71276190D01*
X145004819Y-71276190D02*
X145147676Y-71371428D01*
X145147676Y-71371428D02*
X145242914Y-71466666D01*
X145242914Y-71466666D02*
X145290533Y-71561904D01*
X145004819Y-70657142D02*
X145004819Y-69990476D01*
X145004819Y-69990476D02*
X146004819Y-70419047D01*
X127454819Y-109214285D02*
X126454819Y-109214285D01*
X126454819Y-109214285D02*
X126454819Y-108976190D01*
X126454819Y-108976190D02*
X126502438Y-108833333D01*
X126502438Y-108833333D02*
X126597676Y-108738095D01*
X126597676Y-108738095D02*
X126692914Y-108690476D01*
X126692914Y-108690476D02*
X126883390Y-108642857D01*
X126883390Y-108642857D02*
X127026247Y-108642857D01*
X127026247Y-108642857D02*
X127216723Y-108690476D01*
X127216723Y-108690476D02*
X127311961Y-108738095D01*
X127311961Y-108738095D02*
X127407200Y-108833333D01*
X127407200Y-108833333D02*
X127454819Y-108976190D01*
X127454819Y-108976190D02*
X127454819Y-109214285D01*
X126550057Y-108261904D02*
X126502438Y-108214285D01*
X126502438Y-108214285D02*
X126454819Y-108119047D01*
X126454819Y-108119047D02*
X126454819Y-107880952D01*
X126454819Y-107880952D02*
X126502438Y-107785714D01*
X126502438Y-107785714D02*
X126550057Y-107738095D01*
X126550057Y-107738095D02*
X126645295Y-107690476D01*
X126645295Y-107690476D02*
X126740533Y-107690476D01*
X126740533Y-107690476D02*
X126883390Y-107738095D01*
X126883390Y-107738095D02*
X127454819Y-108309523D01*
X127454819Y-108309523D02*
X127454819Y-107690476D01*
X126883390Y-107119047D02*
X126835771Y-107214285D01*
X126835771Y-107214285D02*
X126788152Y-107261904D01*
X126788152Y-107261904D02*
X126692914Y-107309523D01*
X126692914Y-107309523D02*
X126645295Y-107309523D01*
X126645295Y-107309523D02*
X126550057Y-107261904D01*
X126550057Y-107261904D02*
X126502438Y-107214285D01*
X126502438Y-107214285D02*
X126454819Y-107119047D01*
X126454819Y-107119047D02*
X126454819Y-106928571D01*
X126454819Y-106928571D02*
X126502438Y-106833333D01*
X126502438Y-106833333D02*
X126550057Y-106785714D01*
X126550057Y-106785714D02*
X126645295Y-106738095D01*
X126645295Y-106738095D02*
X126692914Y-106738095D01*
X126692914Y-106738095D02*
X126788152Y-106785714D01*
X126788152Y-106785714D02*
X126835771Y-106833333D01*
X126835771Y-106833333D02*
X126883390Y-106928571D01*
X126883390Y-106928571D02*
X126883390Y-107119047D01*
X126883390Y-107119047D02*
X126931009Y-107214285D01*
X126931009Y-107214285D02*
X126978628Y-107261904D01*
X126978628Y-107261904D02*
X127073866Y-107309523D01*
X127073866Y-107309523D02*
X127264342Y-107309523D01*
X127264342Y-107309523D02*
X127359580Y-107261904D01*
X127359580Y-107261904D02*
X127407200Y-107214285D01*
X127407200Y-107214285D02*
X127454819Y-107119047D01*
X127454819Y-107119047D02*
X127454819Y-106928571D01*
X127454819Y-106928571D02*
X127407200Y-106833333D01*
X127407200Y-106833333D02*
X127359580Y-106785714D01*
X127359580Y-106785714D02*
X127264342Y-106738095D01*
X127264342Y-106738095D02*
X127073866Y-106738095D01*
X127073866Y-106738095D02*
X126978628Y-106785714D01*
X126978628Y-106785714D02*
X126931009Y-106833333D01*
X126931009Y-106833333D02*
X126883390Y-106928571D01*
X165454819Y-54229285D02*
X164454819Y-54229285D01*
X164454819Y-54229285D02*
X164454819Y-53991190D01*
X164454819Y-53991190D02*
X164502438Y-53848333D01*
X164502438Y-53848333D02*
X164597676Y-53753095D01*
X164597676Y-53753095D02*
X164692914Y-53705476D01*
X164692914Y-53705476D02*
X164883390Y-53657857D01*
X164883390Y-53657857D02*
X165026247Y-53657857D01*
X165026247Y-53657857D02*
X165216723Y-53705476D01*
X165216723Y-53705476D02*
X165311961Y-53753095D01*
X165311961Y-53753095D02*
X165407200Y-53848333D01*
X165407200Y-53848333D02*
X165454819Y-53991190D01*
X165454819Y-53991190D02*
X165454819Y-54229285D01*
X165454819Y-52705476D02*
X165454819Y-53276904D01*
X165454819Y-52991190D02*
X164454819Y-52991190D01*
X164454819Y-52991190D02*
X164597676Y-53086428D01*
X164597676Y-53086428D02*
X164692914Y-53181666D01*
X164692914Y-53181666D02*
X164740533Y-53276904D01*
X164550057Y-52324523D02*
X164502438Y-52276904D01*
X164502438Y-52276904D02*
X164454819Y-52181666D01*
X164454819Y-52181666D02*
X164454819Y-51943571D01*
X164454819Y-51943571D02*
X164502438Y-51848333D01*
X164502438Y-51848333D02*
X164550057Y-51800714D01*
X164550057Y-51800714D02*
X164645295Y-51753095D01*
X164645295Y-51753095D02*
X164740533Y-51753095D01*
X164740533Y-51753095D02*
X164883390Y-51800714D01*
X164883390Y-51800714D02*
X165454819Y-52372142D01*
X165454819Y-52372142D02*
X165454819Y-51753095D01*
X81476667Y-25603200D02*
X81619524Y-25650819D01*
X81619524Y-25650819D02*
X81857619Y-25650819D01*
X81857619Y-25650819D02*
X81952857Y-25603200D01*
X81952857Y-25603200D02*
X82000476Y-25555580D01*
X82000476Y-25555580D02*
X82048095Y-25460342D01*
X82048095Y-25460342D02*
X82048095Y-25365104D01*
X82048095Y-25365104D02*
X82000476Y-25269866D01*
X82000476Y-25269866D02*
X81952857Y-25222247D01*
X81952857Y-25222247D02*
X81857619Y-25174628D01*
X81857619Y-25174628D02*
X81667143Y-25127009D01*
X81667143Y-25127009D02*
X81571905Y-25079390D01*
X81571905Y-25079390D02*
X81524286Y-25031771D01*
X81524286Y-25031771D02*
X81476667Y-24936533D01*
X81476667Y-24936533D02*
X81476667Y-24841295D01*
X81476667Y-24841295D02*
X81524286Y-24746057D01*
X81524286Y-24746057D02*
X81571905Y-24698438D01*
X81571905Y-24698438D02*
X81667143Y-24650819D01*
X81667143Y-24650819D02*
X81905238Y-24650819D01*
X81905238Y-24650819D02*
X82048095Y-24698438D01*
X82381429Y-24650819D02*
X82619524Y-25650819D01*
X82619524Y-25650819D02*
X82810000Y-24936533D01*
X82810000Y-24936533D02*
X83000476Y-25650819D01*
X83000476Y-25650819D02*
X83238572Y-24650819D01*
X83571905Y-24746057D02*
X83619524Y-24698438D01*
X83619524Y-24698438D02*
X83714762Y-24650819D01*
X83714762Y-24650819D02*
X83952857Y-24650819D01*
X83952857Y-24650819D02*
X84048095Y-24698438D01*
X84048095Y-24698438D02*
X84095714Y-24746057D01*
X84095714Y-24746057D02*
X84143333Y-24841295D01*
X84143333Y-24841295D02*
X84143333Y-24936533D01*
X84143333Y-24936533D02*
X84095714Y-25079390D01*
X84095714Y-25079390D02*
X83524286Y-25650819D01*
X83524286Y-25650819D02*
X84143333Y-25650819D01*
X81020476Y-82763200D02*
X81163333Y-82810819D01*
X81163333Y-82810819D02*
X81401428Y-82810819D01*
X81401428Y-82810819D02*
X81496666Y-82763200D01*
X81496666Y-82763200D02*
X81544285Y-82715580D01*
X81544285Y-82715580D02*
X81591904Y-82620342D01*
X81591904Y-82620342D02*
X81591904Y-82525104D01*
X81591904Y-82525104D02*
X81544285Y-82429866D01*
X81544285Y-82429866D02*
X81496666Y-82382247D01*
X81496666Y-82382247D02*
X81401428Y-82334628D01*
X81401428Y-82334628D02*
X81210952Y-82287009D01*
X81210952Y-82287009D02*
X81115714Y-82239390D01*
X81115714Y-82239390D02*
X81068095Y-82191771D01*
X81068095Y-82191771D02*
X81020476Y-82096533D01*
X81020476Y-82096533D02*
X81020476Y-82001295D01*
X81020476Y-82001295D02*
X81068095Y-81906057D01*
X81068095Y-81906057D02*
X81115714Y-81858438D01*
X81115714Y-81858438D02*
X81210952Y-81810819D01*
X81210952Y-81810819D02*
X81449047Y-81810819D01*
X81449047Y-81810819D02*
X81591904Y-81858438D01*
X81925238Y-81810819D02*
X82163333Y-82810819D01*
X82163333Y-82810819D02*
X82353809Y-82096533D01*
X82353809Y-82096533D02*
X82544285Y-82810819D01*
X82544285Y-82810819D02*
X82782381Y-81810819D01*
X83115714Y-81906057D02*
X83163333Y-81858438D01*
X83163333Y-81858438D02*
X83258571Y-81810819D01*
X83258571Y-81810819D02*
X83496666Y-81810819D01*
X83496666Y-81810819D02*
X83591904Y-81858438D01*
X83591904Y-81858438D02*
X83639523Y-81906057D01*
X83639523Y-81906057D02*
X83687142Y-82001295D01*
X83687142Y-82001295D02*
X83687142Y-82096533D01*
X83687142Y-82096533D02*
X83639523Y-82239390D01*
X83639523Y-82239390D02*
X83068095Y-82810819D01*
X83068095Y-82810819D02*
X83687142Y-82810819D01*
X84306190Y-81810819D02*
X84401428Y-81810819D01*
X84401428Y-81810819D02*
X84496666Y-81858438D01*
X84496666Y-81858438D02*
X84544285Y-81906057D01*
X84544285Y-81906057D02*
X84591904Y-82001295D01*
X84591904Y-82001295D02*
X84639523Y-82191771D01*
X84639523Y-82191771D02*
X84639523Y-82429866D01*
X84639523Y-82429866D02*
X84591904Y-82620342D01*
X84591904Y-82620342D02*
X84544285Y-82715580D01*
X84544285Y-82715580D02*
X84496666Y-82763200D01*
X84496666Y-82763200D02*
X84401428Y-82810819D01*
X84401428Y-82810819D02*
X84306190Y-82810819D01*
X84306190Y-82810819D02*
X84210952Y-82763200D01*
X84210952Y-82763200D02*
X84163333Y-82715580D01*
X84163333Y-82715580D02*
X84115714Y-82620342D01*
X84115714Y-82620342D02*
X84068095Y-82429866D01*
X84068095Y-82429866D02*
X84068095Y-82191771D01*
X84068095Y-82191771D02*
X84115714Y-82001295D01*
X84115714Y-82001295D02*
X84163333Y-81906057D01*
X84163333Y-81906057D02*
X84210952Y-81858438D01*
X84210952Y-81858438D02*
X84306190Y-81810819D01*
X146454819Y-108914285D02*
X145454819Y-108914285D01*
X145454819Y-108914285D02*
X145454819Y-108676190D01*
X145454819Y-108676190D02*
X145502438Y-108533333D01*
X145502438Y-108533333D02*
X145597676Y-108438095D01*
X145597676Y-108438095D02*
X145692914Y-108390476D01*
X145692914Y-108390476D02*
X145883390Y-108342857D01*
X145883390Y-108342857D02*
X146026247Y-108342857D01*
X146026247Y-108342857D02*
X146216723Y-108390476D01*
X146216723Y-108390476D02*
X146311961Y-108438095D01*
X146311961Y-108438095D02*
X146407200Y-108533333D01*
X146407200Y-108533333D02*
X146454819Y-108676190D01*
X146454819Y-108676190D02*
X146454819Y-108914285D01*
X145550057Y-107961904D02*
X145502438Y-107914285D01*
X145502438Y-107914285D02*
X145454819Y-107819047D01*
X145454819Y-107819047D02*
X145454819Y-107580952D01*
X145454819Y-107580952D02*
X145502438Y-107485714D01*
X145502438Y-107485714D02*
X145550057Y-107438095D01*
X145550057Y-107438095D02*
X145645295Y-107390476D01*
X145645295Y-107390476D02*
X145740533Y-107390476D01*
X145740533Y-107390476D02*
X145883390Y-107438095D01*
X145883390Y-107438095D02*
X146454819Y-108009523D01*
X146454819Y-108009523D02*
X146454819Y-107390476D01*
X146454819Y-106914285D02*
X146454819Y-106723809D01*
X146454819Y-106723809D02*
X146407200Y-106628571D01*
X146407200Y-106628571D02*
X146359580Y-106580952D01*
X146359580Y-106580952D02*
X146216723Y-106485714D01*
X146216723Y-106485714D02*
X146026247Y-106438095D01*
X146026247Y-106438095D02*
X145645295Y-106438095D01*
X145645295Y-106438095D02*
X145550057Y-106485714D01*
X145550057Y-106485714D02*
X145502438Y-106533333D01*
X145502438Y-106533333D02*
X145454819Y-106628571D01*
X145454819Y-106628571D02*
X145454819Y-106819047D01*
X145454819Y-106819047D02*
X145502438Y-106914285D01*
X145502438Y-106914285D02*
X145550057Y-106961904D01*
X145550057Y-106961904D02*
X145645295Y-107009523D01*
X145645295Y-107009523D02*
X145883390Y-107009523D01*
X145883390Y-107009523D02*
X145978628Y-106961904D01*
X145978628Y-106961904D02*
X146026247Y-106914285D01*
X146026247Y-106914285D02*
X146073866Y-106819047D01*
X146073866Y-106819047D02*
X146073866Y-106628571D01*
X146073866Y-106628571D02*
X146026247Y-106533333D01*
X146026247Y-106533333D02*
X145978628Y-106485714D01*
X145978628Y-106485714D02*
X145883390Y-106438095D01*
X100100476Y-82723200D02*
X100243333Y-82770819D01*
X100243333Y-82770819D02*
X100481428Y-82770819D01*
X100481428Y-82770819D02*
X100576666Y-82723200D01*
X100576666Y-82723200D02*
X100624285Y-82675580D01*
X100624285Y-82675580D02*
X100671904Y-82580342D01*
X100671904Y-82580342D02*
X100671904Y-82485104D01*
X100671904Y-82485104D02*
X100624285Y-82389866D01*
X100624285Y-82389866D02*
X100576666Y-82342247D01*
X100576666Y-82342247D02*
X100481428Y-82294628D01*
X100481428Y-82294628D02*
X100290952Y-82247009D01*
X100290952Y-82247009D02*
X100195714Y-82199390D01*
X100195714Y-82199390D02*
X100148095Y-82151771D01*
X100148095Y-82151771D02*
X100100476Y-82056533D01*
X100100476Y-82056533D02*
X100100476Y-81961295D01*
X100100476Y-81961295D02*
X100148095Y-81866057D01*
X100148095Y-81866057D02*
X100195714Y-81818438D01*
X100195714Y-81818438D02*
X100290952Y-81770819D01*
X100290952Y-81770819D02*
X100529047Y-81770819D01*
X100529047Y-81770819D02*
X100671904Y-81818438D01*
X101005238Y-81770819D02*
X101243333Y-82770819D01*
X101243333Y-82770819D02*
X101433809Y-82056533D01*
X101433809Y-82056533D02*
X101624285Y-82770819D01*
X101624285Y-82770819D02*
X101862381Y-81770819D01*
X102195714Y-81866057D02*
X102243333Y-81818438D01*
X102243333Y-81818438D02*
X102338571Y-81770819D01*
X102338571Y-81770819D02*
X102576666Y-81770819D01*
X102576666Y-81770819D02*
X102671904Y-81818438D01*
X102671904Y-81818438D02*
X102719523Y-81866057D01*
X102719523Y-81866057D02*
X102767142Y-81961295D01*
X102767142Y-81961295D02*
X102767142Y-82056533D01*
X102767142Y-82056533D02*
X102719523Y-82199390D01*
X102719523Y-82199390D02*
X102148095Y-82770819D01*
X102148095Y-82770819D02*
X102767142Y-82770819D01*
X103719523Y-82770819D02*
X103148095Y-82770819D01*
X103433809Y-82770819D02*
X103433809Y-81770819D01*
X103433809Y-81770819D02*
X103338571Y-81913676D01*
X103338571Y-81913676D02*
X103243333Y-82008914D01*
X103243333Y-82008914D02*
X103148095Y-82056533D01*
X127004819Y-92214285D02*
X126004819Y-92214285D01*
X126004819Y-92214285D02*
X126004819Y-91976190D01*
X126004819Y-91976190D02*
X126052438Y-91833333D01*
X126052438Y-91833333D02*
X126147676Y-91738095D01*
X126147676Y-91738095D02*
X126242914Y-91690476D01*
X126242914Y-91690476D02*
X126433390Y-91642857D01*
X126433390Y-91642857D02*
X126576247Y-91642857D01*
X126576247Y-91642857D02*
X126766723Y-91690476D01*
X126766723Y-91690476D02*
X126861961Y-91738095D01*
X126861961Y-91738095D02*
X126957200Y-91833333D01*
X126957200Y-91833333D02*
X127004819Y-91976190D01*
X127004819Y-91976190D02*
X127004819Y-92214285D01*
X126100057Y-91261904D02*
X126052438Y-91214285D01*
X126052438Y-91214285D02*
X126004819Y-91119047D01*
X126004819Y-91119047D02*
X126004819Y-90880952D01*
X126004819Y-90880952D02*
X126052438Y-90785714D01*
X126052438Y-90785714D02*
X126100057Y-90738095D01*
X126100057Y-90738095D02*
X126195295Y-90690476D01*
X126195295Y-90690476D02*
X126290533Y-90690476D01*
X126290533Y-90690476D02*
X126433390Y-90738095D01*
X126433390Y-90738095D02*
X127004819Y-91309523D01*
X127004819Y-91309523D02*
X127004819Y-90690476D01*
X126100057Y-90309523D02*
X126052438Y-90261904D01*
X126052438Y-90261904D02*
X126004819Y-90166666D01*
X126004819Y-90166666D02*
X126004819Y-89928571D01*
X126004819Y-89928571D02*
X126052438Y-89833333D01*
X126052438Y-89833333D02*
X126100057Y-89785714D01*
X126100057Y-89785714D02*
X126195295Y-89738095D01*
X126195295Y-89738095D02*
X126290533Y-89738095D01*
X126290533Y-89738095D02*
X126433390Y-89785714D01*
X126433390Y-89785714D02*
X127004819Y-90357142D01*
X127004819Y-90357142D02*
X127004819Y-89738095D01*
X205756660Y-68189104D02*
X206232850Y-68189104D01*
X205661422Y-68474819D02*
X205994755Y-67474819D01*
X205994755Y-67474819D02*
X206328088Y-68474819D01*
X207185231Y-68474819D02*
X206613803Y-68474819D01*
X206899517Y-68474819D02*
X206899517Y-67474819D01*
X206899517Y-67474819D02*
X206804279Y-67617676D01*
X206804279Y-67617676D02*
X206709041Y-67712914D01*
X206709041Y-67712914D02*
X206613803Y-67760533D01*
X165454819Y-33438094D02*
X164454819Y-33438094D01*
X164454819Y-33438094D02*
X164454819Y-33199999D01*
X164454819Y-33199999D02*
X164502438Y-33057142D01*
X164502438Y-33057142D02*
X164597676Y-32961904D01*
X164597676Y-32961904D02*
X164692914Y-32914285D01*
X164692914Y-32914285D02*
X164883390Y-32866666D01*
X164883390Y-32866666D02*
X165026247Y-32866666D01*
X165026247Y-32866666D02*
X165216723Y-32914285D01*
X165216723Y-32914285D02*
X165311961Y-32961904D01*
X165311961Y-32961904D02*
X165407200Y-33057142D01*
X165407200Y-33057142D02*
X165454819Y-33199999D01*
X165454819Y-33199999D02*
X165454819Y-33438094D01*
X164454819Y-32009523D02*
X164454819Y-32199999D01*
X164454819Y-32199999D02*
X164502438Y-32295237D01*
X164502438Y-32295237D02*
X164550057Y-32342856D01*
X164550057Y-32342856D02*
X164692914Y-32438094D01*
X164692914Y-32438094D02*
X164883390Y-32485713D01*
X164883390Y-32485713D02*
X165264342Y-32485713D01*
X165264342Y-32485713D02*
X165359580Y-32438094D01*
X165359580Y-32438094D02*
X165407200Y-32390475D01*
X165407200Y-32390475D02*
X165454819Y-32295237D01*
X165454819Y-32295237D02*
X165454819Y-32104761D01*
X165454819Y-32104761D02*
X165407200Y-32009523D01*
X165407200Y-32009523D02*
X165359580Y-31961904D01*
X165359580Y-31961904D02*
X165264342Y-31914285D01*
X165264342Y-31914285D02*
X165026247Y-31914285D01*
X165026247Y-31914285D02*
X164931009Y-31961904D01*
X164931009Y-31961904D02*
X164883390Y-32009523D01*
X164883390Y-32009523D02*
X164835771Y-32104761D01*
X164835771Y-32104761D02*
X164835771Y-32295237D01*
X164835771Y-32295237D02*
X164883390Y-32390475D01*
X164883390Y-32390475D02*
X164931009Y-32438094D01*
X164931009Y-32438094D02*
X165026247Y-32485713D01*
X119075476Y-44658200D02*
X119218333Y-44705819D01*
X119218333Y-44705819D02*
X119456428Y-44705819D01*
X119456428Y-44705819D02*
X119551666Y-44658200D01*
X119551666Y-44658200D02*
X119599285Y-44610580D01*
X119599285Y-44610580D02*
X119646904Y-44515342D01*
X119646904Y-44515342D02*
X119646904Y-44420104D01*
X119646904Y-44420104D02*
X119599285Y-44324866D01*
X119599285Y-44324866D02*
X119551666Y-44277247D01*
X119551666Y-44277247D02*
X119456428Y-44229628D01*
X119456428Y-44229628D02*
X119265952Y-44182009D01*
X119265952Y-44182009D02*
X119170714Y-44134390D01*
X119170714Y-44134390D02*
X119123095Y-44086771D01*
X119123095Y-44086771D02*
X119075476Y-43991533D01*
X119075476Y-43991533D02*
X119075476Y-43896295D01*
X119075476Y-43896295D02*
X119123095Y-43801057D01*
X119123095Y-43801057D02*
X119170714Y-43753438D01*
X119170714Y-43753438D02*
X119265952Y-43705819D01*
X119265952Y-43705819D02*
X119504047Y-43705819D01*
X119504047Y-43705819D02*
X119646904Y-43753438D01*
X119980238Y-43705819D02*
X120218333Y-44705819D01*
X120218333Y-44705819D02*
X120408809Y-43991533D01*
X120408809Y-43991533D02*
X120599285Y-44705819D01*
X120599285Y-44705819D02*
X120837381Y-43705819D01*
X121742142Y-44705819D02*
X121170714Y-44705819D01*
X121456428Y-44705819D02*
X121456428Y-43705819D01*
X121456428Y-43705819D02*
X121361190Y-43848676D01*
X121361190Y-43848676D02*
X121265952Y-43943914D01*
X121265952Y-43943914D02*
X121170714Y-43991533D01*
X122361190Y-43705819D02*
X122456428Y-43705819D01*
X122456428Y-43705819D02*
X122551666Y-43753438D01*
X122551666Y-43753438D02*
X122599285Y-43801057D01*
X122599285Y-43801057D02*
X122646904Y-43896295D01*
X122646904Y-43896295D02*
X122694523Y-44086771D01*
X122694523Y-44086771D02*
X122694523Y-44324866D01*
X122694523Y-44324866D02*
X122646904Y-44515342D01*
X122646904Y-44515342D02*
X122599285Y-44610580D01*
X122599285Y-44610580D02*
X122551666Y-44658200D01*
X122551666Y-44658200D02*
X122456428Y-44705819D01*
X122456428Y-44705819D02*
X122361190Y-44705819D01*
X122361190Y-44705819D02*
X122265952Y-44658200D01*
X122265952Y-44658200D02*
X122218333Y-44610580D01*
X122218333Y-44610580D02*
X122170714Y-44515342D01*
X122170714Y-44515342D02*
X122123095Y-44324866D01*
X122123095Y-44324866D02*
X122123095Y-44086771D01*
X122123095Y-44086771D02*
X122170714Y-43896295D01*
X122170714Y-43896295D02*
X122218333Y-43801057D01*
X122218333Y-43801057D02*
X122265952Y-43753438D01*
X122265952Y-43753438D02*
X122361190Y-43705819D01*
X146879819Y-53139285D02*
X145879819Y-53139285D01*
X145879819Y-53139285D02*
X145879819Y-52901190D01*
X145879819Y-52901190D02*
X145927438Y-52758333D01*
X145927438Y-52758333D02*
X146022676Y-52663095D01*
X146022676Y-52663095D02*
X146117914Y-52615476D01*
X146117914Y-52615476D02*
X146308390Y-52567857D01*
X146308390Y-52567857D02*
X146451247Y-52567857D01*
X146451247Y-52567857D02*
X146641723Y-52615476D01*
X146641723Y-52615476D02*
X146736961Y-52663095D01*
X146736961Y-52663095D02*
X146832200Y-52758333D01*
X146832200Y-52758333D02*
X146879819Y-52901190D01*
X146879819Y-52901190D02*
X146879819Y-53139285D01*
X146879819Y-51615476D02*
X146879819Y-52186904D01*
X146879819Y-51901190D02*
X145879819Y-51901190D01*
X145879819Y-51901190D02*
X146022676Y-51996428D01*
X146022676Y-51996428D02*
X146117914Y-52091666D01*
X146117914Y-52091666D02*
X146165533Y-52186904D01*
X146879819Y-50663095D02*
X146879819Y-51234523D01*
X146879819Y-50948809D02*
X145879819Y-50948809D01*
X145879819Y-50948809D02*
X146022676Y-51044047D01*
X146022676Y-51044047D02*
X146117914Y-51139285D01*
X146117914Y-51139285D02*
X146165533Y-51234523D01*
X119110476Y-63708200D02*
X119253333Y-63755819D01*
X119253333Y-63755819D02*
X119491428Y-63755819D01*
X119491428Y-63755819D02*
X119586666Y-63708200D01*
X119586666Y-63708200D02*
X119634285Y-63660580D01*
X119634285Y-63660580D02*
X119681904Y-63565342D01*
X119681904Y-63565342D02*
X119681904Y-63470104D01*
X119681904Y-63470104D02*
X119634285Y-63374866D01*
X119634285Y-63374866D02*
X119586666Y-63327247D01*
X119586666Y-63327247D02*
X119491428Y-63279628D01*
X119491428Y-63279628D02*
X119300952Y-63232009D01*
X119300952Y-63232009D02*
X119205714Y-63184390D01*
X119205714Y-63184390D02*
X119158095Y-63136771D01*
X119158095Y-63136771D02*
X119110476Y-63041533D01*
X119110476Y-63041533D02*
X119110476Y-62946295D01*
X119110476Y-62946295D02*
X119158095Y-62851057D01*
X119158095Y-62851057D02*
X119205714Y-62803438D01*
X119205714Y-62803438D02*
X119300952Y-62755819D01*
X119300952Y-62755819D02*
X119539047Y-62755819D01*
X119539047Y-62755819D02*
X119681904Y-62803438D01*
X120015238Y-62755819D02*
X120253333Y-63755819D01*
X120253333Y-63755819D02*
X120443809Y-63041533D01*
X120443809Y-63041533D02*
X120634285Y-63755819D01*
X120634285Y-63755819D02*
X120872381Y-62755819D01*
X121777142Y-63755819D02*
X121205714Y-63755819D01*
X121491428Y-63755819D02*
X121491428Y-62755819D01*
X121491428Y-62755819D02*
X121396190Y-62898676D01*
X121396190Y-62898676D02*
X121300952Y-62993914D01*
X121300952Y-62993914D02*
X121205714Y-63041533D01*
X122634285Y-62755819D02*
X122443809Y-62755819D01*
X122443809Y-62755819D02*
X122348571Y-62803438D01*
X122348571Y-62803438D02*
X122300952Y-62851057D01*
X122300952Y-62851057D02*
X122205714Y-62993914D01*
X122205714Y-62993914D02*
X122158095Y-63184390D01*
X122158095Y-63184390D02*
X122158095Y-63565342D01*
X122158095Y-63565342D02*
X122205714Y-63660580D01*
X122205714Y-63660580D02*
X122253333Y-63708200D01*
X122253333Y-63708200D02*
X122348571Y-63755819D01*
X122348571Y-63755819D02*
X122539047Y-63755819D01*
X122539047Y-63755819D02*
X122634285Y-63708200D01*
X122634285Y-63708200D02*
X122681904Y-63660580D01*
X122681904Y-63660580D02*
X122729523Y-63565342D01*
X122729523Y-63565342D02*
X122729523Y-63327247D01*
X122729523Y-63327247D02*
X122681904Y-63232009D01*
X122681904Y-63232009D02*
X122634285Y-63184390D01*
X122634285Y-63184390D02*
X122539047Y-63136771D01*
X122539047Y-63136771D02*
X122348571Y-63136771D01*
X122348571Y-63136771D02*
X122253333Y-63184390D01*
X122253333Y-63184390D02*
X122205714Y-63232009D01*
X122205714Y-63232009D02*
X122158095Y-63327247D01*
X127404819Y-52579285D02*
X126404819Y-52579285D01*
X126404819Y-52579285D02*
X126404819Y-52341190D01*
X126404819Y-52341190D02*
X126452438Y-52198333D01*
X126452438Y-52198333D02*
X126547676Y-52103095D01*
X126547676Y-52103095D02*
X126642914Y-52055476D01*
X126642914Y-52055476D02*
X126833390Y-52007857D01*
X126833390Y-52007857D02*
X126976247Y-52007857D01*
X126976247Y-52007857D02*
X127166723Y-52055476D01*
X127166723Y-52055476D02*
X127261961Y-52103095D01*
X127261961Y-52103095D02*
X127357200Y-52198333D01*
X127357200Y-52198333D02*
X127404819Y-52341190D01*
X127404819Y-52341190D02*
X127404819Y-52579285D01*
X127404819Y-51055476D02*
X127404819Y-51626904D01*
X127404819Y-51341190D02*
X126404819Y-51341190D01*
X126404819Y-51341190D02*
X126547676Y-51436428D01*
X126547676Y-51436428D02*
X126642914Y-51531666D01*
X126642914Y-51531666D02*
X126690533Y-51626904D01*
X126404819Y-50436428D02*
X126404819Y-50341190D01*
X126404819Y-50341190D02*
X126452438Y-50245952D01*
X126452438Y-50245952D02*
X126500057Y-50198333D01*
X126500057Y-50198333D02*
X126595295Y-50150714D01*
X126595295Y-50150714D02*
X126785771Y-50103095D01*
X126785771Y-50103095D02*
X127023866Y-50103095D01*
X127023866Y-50103095D02*
X127214342Y-50150714D01*
X127214342Y-50150714D02*
X127309580Y-50198333D01*
X127309580Y-50198333D02*
X127357200Y-50245952D01*
X127357200Y-50245952D02*
X127404819Y-50341190D01*
X127404819Y-50341190D02*
X127404819Y-50436428D01*
X127404819Y-50436428D02*
X127357200Y-50531666D01*
X127357200Y-50531666D02*
X127309580Y-50579285D01*
X127309580Y-50579285D02*
X127214342Y-50626904D01*
X127214342Y-50626904D02*
X127023866Y-50674523D01*
X127023866Y-50674523D02*
X126785771Y-50674523D01*
X126785771Y-50674523D02*
X126595295Y-50626904D01*
X126595295Y-50626904D02*
X126500057Y-50579285D01*
X126500057Y-50579285D02*
X126452438Y-50531666D01*
X126452438Y-50531666D02*
X126404819Y-50436428D01*
X70004819Y-108914285D02*
X69004819Y-108914285D01*
X69004819Y-108914285D02*
X69004819Y-108676190D01*
X69004819Y-108676190D02*
X69052438Y-108533333D01*
X69052438Y-108533333D02*
X69147676Y-108438095D01*
X69147676Y-108438095D02*
X69242914Y-108390476D01*
X69242914Y-108390476D02*
X69433390Y-108342857D01*
X69433390Y-108342857D02*
X69576247Y-108342857D01*
X69576247Y-108342857D02*
X69766723Y-108390476D01*
X69766723Y-108390476D02*
X69861961Y-108438095D01*
X69861961Y-108438095D02*
X69957200Y-108533333D01*
X69957200Y-108533333D02*
X70004819Y-108676190D01*
X70004819Y-108676190D02*
X70004819Y-108914285D01*
X69100057Y-107961904D02*
X69052438Y-107914285D01*
X69052438Y-107914285D02*
X69004819Y-107819047D01*
X69004819Y-107819047D02*
X69004819Y-107580952D01*
X69004819Y-107580952D02*
X69052438Y-107485714D01*
X69052438Y-107485714D02*
X69100057Y-107438095D01*
X69100057Y-107438095D02*
X69195295Y-107390476D01*
X69195295Y-107390476D02*
X69290533Y-107390476D01*
X69290533Y-107390476D02*
X69433390Y-107438095D01*
X69433390Y-107438095D02*
X70004819Y-108009523D01*
X70004819Y-108009523D02*
X70004819Y-107390476D01*
X69004819Y-106485714D02*
X69004819Y-106961904D01*
X69004819Y-106961904D02*
X69481009Y-107009523D01*
X69481009Y-107009523D02*
X69433390Y-106961904D01*
X69433390Y-106961904D02*
X69385771Y-106866666D01*
X69385771Y-106866666D02*
X69385771Y-106628571D01*
X69385771Y-106628571D02*
X69433390Y-106533333D01*
X69433390Y-106533333D02*
X69481009Y-106485714D01*
X69481009Y-106485714D02*
X69576247Y-106438095D01*
X69576247Y-106438095D02*
X69814342Y-106438095D01*
X69814342Y-106438095D02*
X69909580Y-106485714D01*
X69909580Y-106485714D02*
X69957200Y-106533333D01*
X69957200Y-106533333D02*
X70004819Y-106628571D01*
X70004819Y-106628571D02*
X70004819Y-106866666D01*
X70004819Y-106866666D02*
X69957200Y-106961904D01*
X69957200Y-106961904D02*
X69909580Y-107009523D01*
X108454819Y-33438094D02*
X107454819Y-33438094D01*
X107454819Y-33438094D02*
X107454819Y-33199999D01*
X107454819Y-33199999D02*
X107502438Y-33057142D01*
X107502438Y-33057142D02*
X107597676Y-32961904D01*
X107597676Y-32961904D02*
X107692914Y-32914285D01*
X107692914Y-32914285D02*
X107883390Y-32866666D01*
X107883390Y-32866666D02*
X108026247Y-32866666D01*
X108026247Y-32866666D02*
X108216723Y-32914285D01*
X108216723Y-32914285D02*
X108311961Y-32961904D01*
X108311961Y-32961904D02*
X108407200Y-33057142D01*
X108407200Y-33057142D02*
X108454819Y-33199999D01*
X108454819Y-33199999D02*
X108454819Y-33438094D01*
X107454819Y-32533332D02*
X107454819Y-31914285D01*
X107454819Y-31914285D02*
X107835771Y-32247618D01*
X107835771Y-32247618D02*
X107835771Y-32104761D01*
X107835771Y-32104761D02*
X107883390Y-32009523D01*
X107883390Y-32009523D02*
X107931009Y-31961904D01*
X107931009Y-31961904D02*
X108026247Y-31914285D01*
X108026247Y-31914285D02*
X108264342Y-31914285D01*
X108264342Y-31914285D02*
X108359580Y-31961904D01*
X108359580Y-31961904D02*
X108407200Y-32009523D01*
X108407200Y-32009523D02*
X108454819Y-32104761D01*
X108454819Y-32104761D02*
X108454819Y-32390475D01*
X108454819Y-32390475D02*
X108407200Y-32485713D01*
X108407200Y-32485713D02*
X108359580Y-32533332D01*
X134990476Y-126983200D02*
X135133333Y-127030819D01*
X135133333Y-127030819D02*
X135371428Y-127030819D01*
X135371428Y-127030819D02*
X135466666Y-126983200D01*
X135466666Y-126983200D02*
X135514285Y-126935580D01*
X135514285Y-126935580D02*
X135561904Y-126840342D01*
X135561904Y-126840342D02*
X135561904Y-126745104D01*
X135561904Y-126745104D02*
X135514285Y-126649866D01*
X135514285Y-126649866D02*
X135466666Y-126602247D01*
X135466666Y-126602247D02*
X135371428Y-126554628D01*
X135371428Y-126554628D02*
X135180952Y-126507009D01*
X135180952Y-126507009D02*
X135085714Y-126459390D01*
X135085714Y-126459390D02*
X135038095Y-126411771D01*
X135038095Y-126411771D02*
X134990476Y-126316533D01*
X134990476Y-126316533D02*
X134990476Y-126221295D01*
X134990476Y-126221295D02*
X135038095Y-126126057D01*
X135038095Y-126126057D02*
X135085714Y-126078438D01*
X135085714Y-126078438D02*
X135180952Y-126030819D01*
X135180952Y-126030819D02*
X135419047Y-126030819D01*
X135419047Y-126030819D02*
X135561904Y-126078438D01*
X135895238Y-126030819D02*
X136133333Y-127030819D01*
X136133333Y-127030819D02*
X136323809Y-126316533D01*
X136323809Y-126316533D02*
X136514285Y-127030819D01*
X136514285Y-127030819D02*
X136752381Y-126030819D01*
X137038095Y-126030819D02*
X137657142Y-126030819D01*
X137657142Y-126030819D02*
X137323809Y-126411771D01*
X137323809Y-126411771D02*
X137466666Y-126411771D01*
X137466666Y-126411771D02*
X137561904Y-126459390D01*
X137561904Y-126459390D02*
X137609523Y-126507009D01*
X137609523Y-126507009D02*
X137657142Y-126602247D01*
X137657142Y-126602247D02*
X137657142Y-126840342D01*
X137657142Y-126840342D02*
X137609523Y-126935580D01*
X137609523Y-126935580D02*
X137561904Y-126983200D01*
X137561904Y-126983200D02*
X137466666Y-127030819D01*
X137466666Y-127030819D02*
X137180952Y-127030819D01*
X137180952Y-127030819D02*
X137085714Y-126983200D01*
X137085714Y-126983200D02*
X137038095Y-126935580D01*
X137990476Y-126030819D02*
X138609523Y-126030819D01*
X138609523Y-126030819D02*
X138276190Y-126411771D01*
X138276190Y-126411771D02*
X138419047Y-126411771D01*
X138419047Y-126411771D02*
X138514285Y-126459390D01*
X138514285Y-126459390D02*
X138561904Y-126507009D01*
X138561904Y-126507009D02*
X138609523Y-126602247D01*
X138609523Y-126602247D02*
X138609523Y-126840342D01*
X138609523Y-126840342D02*
X138561904Y-126935580D01*
X138561904Y-126935580D02*
X138514285Y-126983200D01*
X138514285Y-126983200D02*
X138419047Y-127030819D01*
X138419047Y-127030819D02*
X138133333Y-127030819D01*
X138133333Y-127030819D02*
X138038095Y-126983200D01*
X138038095Y-126983200D02*
X137990476Y-126935580D01*
X81035476Y-63708200D02*
X81178333Y-63755819D01*
X81178333Y-63755819D02*
X81416428Y-63755819D01*
X81416428Y-63755819D02*
X81511666Y-63708200D01*
X81511666Y-63708200D02*
X81559285Y-63660580D01*
X81559285Y-63660580D02*
X81606904Y-63565342D01*
X81606904Y-63565342D02*
X81606904Y-63470104D01*
X81606904Y-63470104D02*
X81559285Y-63374866D01*
X81559285Y-63374866D02*
X81511666Y-63327247D01*
X81511666Y-63327247D02*
X81416428Y-63279628D01*
X81416428Y-63279628D02*
X81225952Y-63232009D01*
X81225952Y-63232009D02*
X81130714Y-63184390D01*
X81130714Y-63184390D02*
X81083095Y-63136771D01*
X81083095Y-63136771D02*
X81035476Y-63041533D01*
X81035476Y-63041533D02*
X81035476Y-62946295D01*
X81035476Y-62946295D02*
X81083095Y-62851057D01*
X81083095Y-62851057D02*
X81130714Y-62803438D01*
X81130714Y-62803438D02*
X81225952Y-62755819D01*
X81225952Y-62755819D02*
X81464047Y-62755819D01*
X81464047Y-62755819D02*
X81606904Y-62803438D01*
X81940238Y-62755819D02*
X82178333Y-63755819D01*
X82178333Y-63755819D02*
X82368809Y-63041533D01*
X82368809Y-63041533D02*
X82559285Y-63755819D01*
X82559285Y-63755819D02*
X82797381Y-62755819D01*
X83702142Y-63755819D02*
X83130714Y-63755819D01*
X83416428Y-63755819D02*
X83416428Y-62755819D01*
X83416428Y-62755819D02*
X83321190Y-62898676D01*
X83321190Y-62898676D02*
X83225952Y-62993914D01*
X83225952Y-62993914D02*
X83130714Y-63041533D01*
X84559285Y-63089152D02*
X84559285Y-63755819D01*
X84321190Y-62708200D02*
X84083095Y-63422485D01*
X84083095Y-63422485D02*
X84702142Y-63422485D01*
X119210476Y-101833200D02*
X119353333Y-101880819D01*
X119353333Y-101880819D02*
X119591428Y-101880819D01*
X119591428Y-101880819D02*
X119686666Y-101833200D01*
X119686666Y-101833200D02*
X119734285Y-101785580D01*
X119734285Y-101785580D02*
X119781904Y-101690342D01*
X119781904Y-101690342D02*
X119781904Y-101595104D01*
X119781904Y-101595104D02*
X119734285Y-101499866D01*
X119734285Y-101499866D02*
X119686666Y-101452247D01*
X119686666Y-101452247D02*
X119591428Y-101404628D01*
X119591428Y-101404628D02*
X119400952Y-101357009D01*
X119400952Y-101357009D02*
X119305714Y-101309390D01*
X119305714Y-101309390D02*
X119258095Y-101261771D01*
X119258095Y-101261771D02*
X119210476Y-101166533D01*
X119210476Y-101166533D02*
X119210476Y-101071295D01*
X119210476Y-101071295D02*
X119258095Y-100976057D01*
X119258095Y-100976057D02*
X119305714Y-100928438D01*
X119305714Y-100928438D02*
X119400952Y-100880819D01*
X119400952Y-100880819D02*
X119639047Y-100880819D01*
X119639047Y-100880819D02*
X119781904Y-100928438D01*
X120115238Y-100880819D02*
X120353333Y-101880819D01*
X120353333Y-101880819D02*
X120543809Y-101166533D01*
X120543809Y-101166533D02*
X120734285Y-101880819D01*
X120734285Y-101880819D02*
X120972381Y-100880819D01*
X121305714Y-100976057D02*
X121353333Y-100928438D01*
X121353333Y-100928438D02*
X121448571Y-100880819D01*
X121448571Y-100880819D02*
X121686666Y-100880819D01*
X121686666Y-100880819D02*
X121781904Y-100928438D01*
X121781904Y-100928438D02*
X121829523Y-100976057D01*
X121829523Y-100976057D02*
X121877142Y-101071295D01*
X121877142Y-101071295D02*
X121877142Y-101166533D01*
X121877142Y-101166533D02*
X121829523Y-101309390D01*
X121829523Y-101309390D02*
X121258095Y-101880819D01*
X121258095Y-101880819D02*
X121877142Y-101880819D01*
X122448571Y-101309390D02*
X122353333Y-101261771D01*
X122353333Y-101261771D02*
X122305714Y-101214152D01*
X122305714Y-101214152D02*
X122258095Y-101118914D01*
X122258095Y-101118914D02*
X122258095Y-101071295D01*
X122258095Y-101071295D02*
X122305714Y-100976057D01*
X122305714Y-100976057D02*
X122353333Y-100928438D01*
X122353333Y-100928438D02*
X122448571Y-100880819D01*
X122448571Y-100880819D02*
X122639047Y-100880819D01*
X122639047Y-100880819D02*
X122734285Y-100928438D01*
X122734285Y-100928438D02*
X122781904Y-100976057D01*
X122781904Y-100976057D02*
X122829523Y-101071295D01*
X122829523Y-101071295D02*
X122829523Y-101118914D01*
X122829523Y-101118914D02*
X122781904Y-101214152D01*
X122781904Y-101214152D02*
X122734285Y-101261771D01*
X122734285Y-101261771D02*
X122639047Y-101309390D01*
X122639047Y-101309390D02*
X122448571Y-101309390D01*
X122448571Y-101309390D02*
X122353333Y-101357009D01*
X122353333Y-101357009D02*
X122305714Y-101404628D01*
X122305714Y-101404628D02*
X122258095Y-101499866D01*
X122258095Y-101499866D02*
X122258095Y-101690342D01*
X122258095Y-101690342D02*
X122305714Y-101785580D01*
X122305714Y-101785580D02*
X122353333Y-101833200D01*
X122353333Y-101833200D02*
X122448571Y-101880819D01*
X122448571Y-101880819D02*
X122639047Y-101880819D01*
X122639047Y-101880819D02*
X122734285Y-101833200D01*
X122734285Y-101833200D02*
X122781904Y-101785580D01*
X122781904Y-101785580D02*
X122829523Y-101690342D01*
X122829523Y-101690342D02*
X122829523Y-101499866D01*
X122829523Y-101499866D02*
X122781904Y-101404628D01*
X122781904Y-101404628D02*
X122734285Y-101357009D01*
X122734285Y-101357009D02*
X122639047Y-101309390D01*
X51666666Y-113304819D02*
X51333333Y-112828628D01*
X51095238Y-113304819D02*
X51095238Y-112304819D01*
X51095238Y-112304819D02*
X51476190Y-112304819D01*
X51476190Y-112304819D02*
X51571428Y-112352438D01*
X51571428Y-112352438D02*
X51619047Y-112400057D01*
X51619047Y-112400057D02*
X51666666Y-112495295D01*
X51666666Y-112495295D02*
X51666666Y-112638152D01*
X51666666Y-112638152D02*
X51619047Y-112733390D01*
X51619047Y-112733390D02*
X51571428Y-112781009D01*
X51571428Y-112781009D02*
X51476190Y-112828628D01*
X51476190Y-112828628D02*
X51095238Y-112828628D01*
X52095238Y-112781009D02*
X52428571Y-112781009D01*
X52571428Y-113304819D02*
X52095238Y-113304819D01*
X52095238Y-113304819D02*
X52095238Y-112304819D01*
X52095238Y-112304819D02*
X52571428Y-112304819D01*
X53333333Y-112781009D02*
X53000000Y-112781009D01*
X53000000Y-113304819D02*
X53000000Y-112304819D01*
X53000000Y-112304819D02*
X53476190Y-112304819D01*
X54000000Y-112304819D02*
X54000000Y-112542914D01*
X53761905Y-112447676D02*
X54000000Y-112542914D01*
X54000000Y-112542914D02*
X54238095Y-112447676D01*
X53857143Y-112733390D02*
X54000000Y-112542914D01*
X54000000Y-112542914D02*
X54142857Y-112733390D01*
X54761905Y-112304819D02*
X54761905Y-112542914D01*
X54523810Y-112447676D02*
X54761905Y-112542914D01*
X54761905Y-112542914D02*
X55000000Y-112447676D01*
X54619048Y-112733390D02*
X54761905Y-112542914D01*
X54761905Y-112542914D02*
X54904762Y-112733390D01*
X157706667Y-25603200D02*
X157849524Y-25650819D01*
X157849524Y-25650819D02*
X158087619Y-25650819D01*
X158087619Y-25650819D02*
X158182857Y-25603200D01*
X158182857Y-25603200D02*
X158230476Y-25555580D01*
X158230476Y-25555580D02*
X158278095Y-25460342D01*
X158278095Y-25460342D02*
X158278095Y-25365104D01*
X158278095Y-25365104D02*
X158230476Y-25269866D01*
X158230476Y-25269866D02*
X158182857Y-25222247D01*
X158182857Y-25222247D02*
X158087619Y-25174628D01*
X158087619Y-25174628D02*
X157897143Y-25127009D01*
X157897143Y-25127009D02*
X157801905Y-25079390D01*
X157801905Y-25079390D02*
X157754286Y-25031771D01*
X157754286Y-25031771D02*
X157706667Y-24936533D01*
X157706667Y-24936533D02*
X157706667Y-24841295D01*
X157706667Y-24841295D02*
X157754286Y-24746057D01*
X157754286Y-24746057D02*
X157801905Y-24698438D01*
X157801905Y-24698438D02*
X157897143Y-24650819D01*
X157897143Y-24650819D02*
X158135238Y-24650819D01*
X158135238Y-24650819D02*
X158278095Y-24698438D01*
X158611429Y-24650819D02*
X158849524Y-25650819D01*
X158849524Y-25650819D02*
X159040000Y-24936533D01*
X159040000Y-24936533D02*
X159230476Y-25650819D01*
X159230476Y-25650819D02*
X159468572Y-24650819D01*
X160278095Y-24650819D02*
X160087619Y-24650819D01*
X160087619Y-24650819D02*
X159992381Y-24698438D01*
X159992381Y-24698438D02*
X159944762Y-24746057D01*
X159944762Y-24746057D02*
X159849524Y-24888914D01*
X159849524Y-24888914D02*
X159801905Y-25079390D01*
X159801905Y-25079390D02*
X159801905Y-25460342D01*
X159801905Y-25460342D02*
X159849524Y-25555580D01*
X159849524Y-25555580D02*
X159897143Y-25603200D01*
X159897143Y-25603200D02*
X159992381Y-25650819D01*
X159992381Y-25650819D02*
X160182857Y-25650819D01*
X160182857Y-25650819D02*
X160278095Y-25603200D01*
X160278095Y-25603200D02*
X160325714Y-25555580D01*
X160325714Y-25555580D02*
X160373333Y-25460342D01*
X160373333Y-25460342D02*
X160373333Y-25222247D01*
X160373333Y-25222247D02*
X160325714Y-25127009D01*
X160325714Y-25127009D02*
X160278095Y-25079390D01*
X160278095Y-25079390D02*
X160182857Y-25031771D01*
X160182857Y-25031771D02*
X159992381Y-25031771D01*
X159992381Y-25031771D02*
X159897143Y-25079390D01*
X159897143Y-25079390D02*
X159849524Y-25127009D01*
X159849524Y-25127009D02*
X159801905Y-25222247D01*
D12*
X76678572Y-126249757D02*
X76535715Y-126178328D01*
X76535715Y-126178328D02*
X76321429Y-126178328D01*
X76321429Y-126178328D02*
X76107143Y-126249757D01*
X76107143Y-126249757D02*
X75964286Y-126392614D01*
X75964286Y-126392614D02*
X75892857Y-126535471D01*
X75892857Y-126535471D02*
X75821429Y-126821185D01*
X75821429Y-126821185D02*
X75821429Y-127035471D01*
X75821429Y-127035471D02*
X75892857Y-127321185D01*
X75892857Y-127321185D02*
X75964286Y-127464042D01*
X75964286Y-127464042D02*
X76107143Y-127606900D01*
X76107143Y-127606900D02*
X76321429Y-127678328D01*
X76321429Y-127678328D02*
X76464286Y-127678328D01*
X76464286Y-127678328D02*
X76678572Y-127606900D01*
X76678572Y-127606900D02*
X76750000Y-127535471D01*
X76750000Y-127535471D02*
X76750000Y-127035471D01*
X76750000Y-127035471D02*
X76464286Y-127035471D01*
X77607143Y-126178328D02*
X77607143Y-126535471D01*
X77250000Y-126392614D02*
X77607143Y-126535471D01*
X77607143Y-126535471D02*
X77964286Y-126392614D01*
X77392857Y-126821185D02*
X77607143Y-126535471D01*
X77607143Y-126535471D02*
X77821429Y-126821185D01*
X78750000Y-126178328D02*
X78750000Y-126535471D01*
X78392857Y-126392614D02*
X78750000Y-126535471D01*
X78750000Y-126535471D02*
X79107143Y-126392614D01*
X78535714Y-126821185D02*
X78750000Y-126535471D01*
X78750000Y-126535471D02*
X78964286Y-126821185D01*
X79892857Y-126178328D02*
X79892857Y-126535471D01*
X79535714Y-126392614D02*
X79892857Y-126535471D01*
X79892857Y-126535471D02*
X80250000Y-126392614D01*
X79678571Y-126821185D02*
X79892857Y-126535471D01*
X79892857Y-126535471D02*
X80107143Y-126821185D01*
D11*
X157270476Y-44683200D02*
X157413333Y-44730819D01*
X157413333Y-44730819D02*
X157651428Y-44730819D01*
X157651428Y-44730819D02*
X157746666Y-44683200D01*
X157746666Y-44683200D02*
X157794285Y-44635580D01*
X157794285Y-44635580D02*
X157841904Y-44540342D01*
X157841904Y-44540342D02*
X157841904Y-44445104D01*
X157841904Y-44445104D02*
X157794285Y-44349866D01*
X157794285Y-44349866D02*
X157746666Y-44302247D01*
X157746666Y-44302247D02*
X157651428Y-44254628D01*
X157651428Y-44254628D02*
X157460952Y-44207009D01*
X157460952Y-44207009D02*
X157365714Y-44159390D01*
X157365714Y-44159390D02*
X157318095Y-44111771D01*
X157318095Y-44111771D02*
X157270476Y-44016533D01*
X157270476Y-44016533D02*
X157270476Y-43921295D01*
X157270476Y-43921295D02*
X157318095Y-43826057D01*
X157318095Y-43826057D02*
X157365714Y-43778438D01*
X157365714Y-43778438D02*
X157460952Y-43730819D01*
X157460952Y-43730819D02*
X157699047Y-43730819D01*
X157699047Y-43730819D02*
X157841904Y-43778438D01*
X158175238Y-43730819D02*
X158413333Y-44730819D01*
X158413333Y-44730819D02*
X158603809Y-44016533D01*
X158603809Y-44016533D02*
X158794285Y-44730819D01*
X158794285Y-44730819D02*
X159032381Y-43730819D01*
X159937142Y-44730819D02*
X159365714Y-44730819D01*
X159651428Y-44730819D02*
X159651428Y-43730819D01*
X159651428Y-43730819D02*
X159556190Y-43873676D01*
X159556190Y-43873676D02*
X159460952Y-43968914D01*
X159460952Y-43968914D02*
X159365714Y-44016533D01*
X160318095Y-43826057D02*
X160365714Y-43778438D01*
X160365714Y-43778438D02*
X160460952Y-43730819D01*
X160460952Y-43730819D02*
X160699047Y-43730819D01*
X160699047Y-43730819D02*
X160794285Y-43778438D01*
X160794285Y-43778438D02*
X160841904Y-43826057D01*
X160841904Y-43826057D02*
X160889523Y-43921295D01*
X160889523Y-43921295D02*
X160889523Y-44016533D01*
X160889523Y-44016533D02*
X160841904Y-44159390D01*
X160841904Y-44159390D02*
X160270476Y-44730819D01*
X160270476Y-44730819D02*
X160889523Y-44730819D01*
X70454819Y-72514285D02*
X69454819Y-72514285D01*
X69454819Y-72514285D02*
X69454819Y-72276190D01*
X69454819Y-72276190D02*
X69502438Y-72133333D01*
X69502438Y-72133333D02*
X69597676Y-72038095D01*
X69597676Y-72038095D02*
X69692914Y-71990476D01*
X69692914Y-71990476D02*
X69883390Y-71942857D01*
X69883390Y-71942857D02*
X70026247Y-71942857D01*
X70026247Y-71942857D02*
X70216723Y-71990476D01*
X70216723Y-71990476D02*
X70311961Y-72038095D01*
X70311961Y-72038095D02*
X70407200Y-72133333D01*
X70407200Y-72133333D02*
X70454819Y-72276190D01*
X70454819Y-72276190D02*
X70454819Y-72514285D01*
X70454819Y-70990476D02*
X70454819Y-71561904D01*
X70454819Y-71276190D02*
X69454819Y-71276190D01*
X69454819Y-71276190D02*
X69597676Y-71371428D01*
X69597676Y-71371428D02*
X69692914Y-71466666D01*
X69692914Y-71466666D02*
X69740533Y-71561904D01*
X69454819Y-70657142D02*
X69454819Y-70038095D01*
X69454819Y-70038095D02*
X69835771Y-70371428D01*
X69835771Y-70371428D02*
X69835771Y-70228571D01*
X69835771Y-70228571D02*
X69883390Y-70133333D01*
X69883390Y-70133333D02*
X69931009Y-70085714D01*
X69931009Y-70085714D02*
X70026247Y-70038095D01*
X70026247Y-70038095D02*
X70264342Y-70038095D01*
X70264342Y-70038095D02*
X70359580Y-70085714D01*
X70359580Y-70085714D02*
X70407200Y-70133333D01*
X70407200Y-70133333D02*
X70454819Y-70228571D01*
X70454819Y-70228571D02*
X70454819Y-70514285D01*
X70454819Y-70514285D02*
X70407200Y-70609523D01*
X70407200Y-70609523D02*
X70359580Y-70657142D01*
D13*
%TO.C,D20*%
X90000000Y-93360000D02*
X90000000Y-89350000D01*
X90000000Y-93360000D02*
X92000000Y-93360000D01*
X92000000Y-93360000D02*
X92000000Y-89350000D01*
%TO.C,D33*%
X143860000Y-125610000D02*
X143860000Y-129620000D01*
X145860000Y-125610000D02*
X143860000Y-125610000D01*
X145860000Y-125610000D02*
X145860000Y-129620000D01*
%TO.C,SW17*%
X133015000Y-64190000D02*
X146985000Y-64190000D01*
X133015000Y-78160000D02*
X133015000Y-64190000D01*
X146985000Y-64190000D02*
X146985000Y-78160000D01*
X146985000Y-78160000D02*
X133015000Y-78160000D01*
%TO.C,D18*%
X166000000Y-73660000D02*
X166000000Y-69650000D01*
X166000000Y-73660000D02*
X168000000Y-73660000D01*
X168000000Y-73660000D02*
X168000000Y-69650000D01*
%TO.C,SW24*%
X152115000Y-83315000D02*
X166085000Y-83315000D01*
X152115000Y-97285000D02*
X152115000Y-83315000D01*
X166085000Y-83315000D02*
X166085000Y-97285000D01*
X166085000Y-97285000D02*
X152115000Y-97285000D01*
%TO.C,SW25*%
X56835000Y-102365000D02*
X70805000Y-102365000D01*
X56835000Y-116335000D02*
X56835000Y-102365000D01*
X70805000Y-102365000D02*
X70805000Y-116335000D01*
X70805000Y-116335000D02*
X56835000Y-116335000D01*
%TO.C,D27*%
X109000000Y-110060000D02*
X109000000Y-106050000D01*
X109000000Y-110060000D02*
X111000000Y-110060000D01*
X111000000Y-110060000D02*
X111000000Y-106050000D01*
%TO.C,D16*%
X128000000Y-73660000D02*
X128000000Y-69650000D01*
X128000000Y-73660000D02*
X130000000Y-73660000D01*
X130000000Y-73660000D02*
X130000000Y-69650000D01*
%TO.C,SW9*%
X94850000Y-45140000D02*
X108820000Y-45140000D01*
X94850000Y-59110000D02*
X94850000Y-45140000D01*
X108820000Y-45140000D02*
X108820000Y-59110000D01*
X108820000Y-59110000D02*
X94850000Y-59110000D01*
%TO.C,SW8*%
X75865000Y-45135000D02*
X89835000Y-45135000D01*
X75865000Y-59105000D02*
X75865000Y-45135000D01*
X89835000Y-45135000D02*
X89835000Y-59105000D01*
X89835000Y-59105000D02*
X75865000Y-59105000D01*
D14*
%TO.C,G\u002A\u002A\u002A*%
G36*
X189516628Y-89452342D02*
G01*
X189704284Y-89613777D01*
X189848292Y-89810260D01*
X189893666Y-89957061D01*
X189822296Y-90034560D01*
X189643439Y-90132875D01*
X189563195Y-90166794D01*
X189232723Y-90296607D01*
X189130731Y-89932326D01*
X189071913Y-89637459D01*
X189105863Y-89465645D01*
X189242012Y-89392531D01*
X189342564Y-89385334D01*
X189516628Y-89452342D01*
G37*
G36*
X189175168Y-107046152D02*
G01*
X189201380Y-107048511D01*
X189528750Y-107082994D01*
X189716467Y-107135425D01*
X189793151Y-107242687D01*
X189787420Y-107441663D01*
X189734354Y-107735380D01*
X189682000Y-108009092D01*
X189061684Y-107576762D01*
X188772983Y-107362046D01*
X188583134Y-107192337D01*
X188511865Y-107086074D01*
X188517565Y-107068236D01*
X188634209Y-107038103D01*
X188869782Y-107030270D01*
X189175168Y-107046152D01*
G37*
G36*
X190711348Y-88920719D02*
G01*
X190913868Y-89047702D01*
X191092330Y-89268046D01*
X191203324Y-89529079D01*
X191215662Y-89652676D01*
X191137630Y-89732216D01*
X190932545Y-89802442D01*
X190907506Y-89809249D01*
X190609800Y-89855018D01*
X190419628Y-89784695D01*
X190305722Y-89579184D01*
X190267310Y-89418232D01*
X190262750Y-89135853D01*
X190355457Y-88961202D01*
X190515100Y-88890688D01*
X190711348Y-88920719D01*
G37*
G36*
X188713496Y-83719126D02*
G01*
X188892853Y-83907688D01*
X189142289Y-84186824D01*
X189444138Y-84535564D01*
X189780730Y-84932933D01*
X190134399Y-85357960D01*
X190487478Y-85789671D01*
X190822298Y-86207095D01*
X191121193Y-86589258D01*
X191274344Y-86790781D01*
X192345124Y-88286026D01*
X193277156Y-89727540D01*
X194068245Y-91111041D01*
X194716193Y-92432247D01*
X195218803Y-93686876D01*
X195573881Y-94870647D01*
X195687919Y-95394679D01*
X195750031Y-95850411D01*
X195792640Y-96435664D01*
X195815307Y-97111701D01*
X195817591Y-97839787D01*
X195799055Y-98581185D01*
X195759258Y-99297159D01*
X195735490Y-99587667D01*
X195636259Y-100547382D01*
X195514313Y-101468396D01*
X195363493Y-102379845D01*
X195177641Y-103310860D01*
X194950598Y-104290573D01*
X194676206Y-105348119D01*
X194348307Y-106512629D01*
X194079942Y-107419334D01*
X193694824Y-108716340D01*
X193363910Y-109869907D01*
X193094655Y-110856234D01*
X193083842Y-110895844D01*
X192851262Y-111809964D01*
X192662813Y-112628074D01*
X192515136Y-113365987D01*
X192404874Y-114039512D01*
X192328669Y-114664460D01*
X192283162Y-115256640D01*
X192264997Y-115831864D01*
X192264333Y-115968032D01*
X192264333Y-117129507D01*
X192947081Y-117396754D01*
X193263695Y-117517632D01*
X193520578Y-117610033D01*
X193676862Y-117659483D01*
X193701528Y-117664001D01*
X193776201Y-117594316D01*
X193888390Y-117416183D01*
X193960371Y-117277414D01*
X194246605Y-116863870D01*
X194640167Y-116580547D01*
X195137322Y-116429842D01*
X195311017Y-116410489D01*
X195642275Y-116407673D01*
X195954879Y-116439195D01*
X196098262Y-116472593D01*
X196414785Y-116635076D01*
X196711336Y-116885236D01*
X196940244Y-117174681D01*
X197051281Y-117440047D01*
X197104407Y-117723238D01*
X197414870Y-117561228D01*
X197810186Y-117436498D01*
X198271912Y-117414665D01*
X198735804Y-117490906D01*
X199137622Y-117660396D01*
X199189951Y-117694520D01*
X199428583Y-117900252D01*
X199621611Y-118135462D01*
X199668703Y-118217941D01*
X199804205Y-118503490D01*
X200204102Y-118288725D01*
X200659935Y-118124552D01*
X201142438Y-118087539D01*
X201614540Y-118167926D01*
X202039170Y-118355954D01*
X202379254Y-118641864D01*
X202552979Y-118907095D01*
X202650251Y-119294029D01*
X202582273Y-119680270D01*
X202352265Y-120048092D01*
X202343792Y-120057654D01*
X202141866Y-120242311D01*
X201928724Y-120317537D01*
X201755664Y-120327152D01*
X201540283Y-120329720D01*
X201418493Y-120336153D01*
X201408333Y-120338992D01*
X201471659Y-120388151D01*
X201631809Y-120498815D01*
X201725833Y-120561833D01*
X202317119Y-121021028D01*
X202841951Y-121556677D01*
X203251554Y-122118572D01*
X203272784Y-122154390D01*
X203425323Y-122434227D01*
X203527525Y-122685524D01*
X203585028Y-122948438D01*
X203603469Y-123263127D01*
X203588485Y-123669747D01*
X203551646Y-124141001D01*
X203419436Y-125267434D01*
X203224215Y-126380066D01*
X202973743Y-127451924D01*
X202675779Y-128456036D01*
X202338083Y-129365430D01*
X201968414Y-130153134D01*
X201683400Y-130634950D01*
X201527469Y-130839765D01*
X201376557Y-130933299D01*
X201161736Y-130956605D01*
X201143223Y-130956667D01*
X200815948Y-130956667D01*
X201113265Y-130542824D01*
X201460944Y-129976305D01*
X201797292Y-129272452D01*
X202112302Y-128463261D01*
X202395969Y-127580726D01*
X202638287Y-126656841D01*
X202829251Y-125723601D01*
X202958853Y-124813002D01*
X202982965Y-124564334D01*
X203009987Y-124231094D01*
X203016455Y-124039655D01*
X202997119Y-123963179D01*
X202946728Y-123974828D01*
X202878663Y-124031213D01*
X202589158Y-124224462D01*
X202183136Y-124411413D01*
X201712837Y-124571855D01*
X201230504Y-124685578D01*
X201154333Y-124698302D01*
X200439388Y-124758131D01*
X200138333Y-124751258D01*
X199605471Y-124739092D01*
X198680675Y-124646256D01*
X197693097Y-124484690D01*
X196670829Y-124259464D01*
X195641967Y-123975645D01*
X194634604Y-123638302D01*
X194072686Y-123420700D01*
X193399079Y-123126936D01*
X192852520Y-122842620D01*
X192394000Y-122544049D01*
X191984511Y-122207522D01*
X191821435Y-122052775D01*
X191592958Y-121837935D01*
X191413335Y-121687670D01*
X191312606Y-121626467D01*
X191302077Y-121629442D01*
X191265678Y-121728828D01*
X191191685Y-121954715D01*
X191091550Y-122271525D01*
X190997822Y-122574667D01*
X190619352Y-123702471D01*
X190157336Y-124902415D01*
X189632892Y-126127708D01*
X189067143Y-127331554D01*
X188481210Y-128467159D01*
X187896212Y-129487730D01*
X187825990Y-129602001D01*
X187525239Y-130082618D01*
X187293973Y-130435955D01*
X187115492Y-130680490D01*
X186973098Y-130834702D01*
X186850089Y-130917069D01*
X186729767Y-130946071D01*
X186614699Y-130942317D01*
X186344796Y-130914334D01*
X187053470Y-129830767D01*
X187511865Y-129091069D01*
X187996066Y-128241105D01*
X188479543Y-127331650D01*
X188935765Y-126413481D01*
X189338201Y-125537371D01*
X189517653Y-125114667D01*
X189821952Y-124343829D01*
X190114865Y-123546683D01*
X190386943Y-122753029D01*
X190628740Y-121992669D01*
X190830807Y-121295404D01*
X190983696Y-120691034D01*
X191064682Y-120277212D01*
X191598215Y-120277212D01*
X191648238Y-120814353D01*
X191858735Y-121320299D01*
X192226948Y-121779980D01*
X192512498Y-122020051D01*
X193098408Y-122390546D01*
X193822299Y-122752315D01*
X194652819Y-123096126D01*
X195558618Y-123412751D01*
X196508343Y-123692960D01*
X197470644Y-123927523D01*
X198414167Y-124107209D01*
X199307563Y-124222790D01*
X200119480Y-124265036D01*
X200138333Y-124265072D01*
X200857273Y-124223927D01*
X201507622Y-124104962D01*
X202066581Y-123916205D01*
X202511352Y-123665686D01*
X202819134Y-123361433D01*
X202853824Y-123308822D01*
X202968147Y-122999813D01*
X202936828Y-122663210D01*
X202757442Y-122274373D01*
X202750900Y-122263541D01*
X202603861Y-122071009D01*
X202369322Y-121814976D01*
X202088540Y-121535292D01*
X201802773Y-121271808D01*
X201553280Y-121064378D01*
X201406602Y-120965075D01*
X201284433Y-120926339D01*
X201220311Y-121008832D01*
X201194498Y-121112302D01*
X201112502Y-121477510D01*
X201041823Y-121706421D01*
X200969374Y-121830305D01*
X200882070Y-121880433D01*
X200872144Y-121882569D01*
X200686438Y-121844015D01*
X200583336Y-121779416D01*
X200440793Y-121690104D01*
X200168091Y-121447106D01*
X199901214Y-121141291D01*
X199838033Y-121056398D01*
X199639906Y-120814721D01*
X199422003Y-120640866D01*
X199266655Y-120562533D01*
X199122897Y-120490045D01*
X198981793Y-120432080D01*
X198649291Y-120312179D01*
X198614333Y-120306256D01*
X198439943Y-120276706D01*
X198326563Y-120332163D01*
X198281966Y-120485051D01*
X198276963Y-120600656D01*
X198232626Y-120898405D01*
X198119608Y-121118117D01*
X197961110Y-121217948D01*
X197933573Y-121220001D01*
X197750438Y-121152606D01*
X197704669Y-121117880D01*
X197514817Y-120973837D01*
X197259147Y-120718820D01*
X197015867Y-120422677D01*
X196817414Y-120120535D01*
X196712681Y-119897983D01*
X196602841Y-119633210D01*
X196476064Y-119470401D01*
X196466510Y-119464619D01*
X196274166Y-119348212D01*
X196131362Y-119285079D01*
X195892233Y-119190381D01*
X195726124Y-119136513D01*
X195678890Y-119131888D01*
X195649524Y-119223049D01*
X195602682Y-119428647D01*
X195567880Y-119603173D01*
X195502163Y-119916709D01*
X195440462Y-120097824D01*
X195363217Y-120181779D01*
X195250867Y-120203839D01*
X195234590Y-120204001D01*
X195032837Y-120133158D01*
X194995336Y-120104297D01*
X194787227Y-119944137D01*
X194525531Y-119672197D01*
X194275519Y-119352598D01*
X194064961Y-119020600D01*
X193921628Y-118711463D01*
X193873000Y-118475190D01*
X193798528Y-118356275D01*
X193609610Y-118283977D01*
X193357988Y-118272441D01*
X193216833Y-118295816D01*
X192883606Y-118430947D01*
X192520624Y-118658567D01*
X192193984Y-118931575D01*
X191990630Y-119169626D01*
X191711426Y-119723946D01*
X191598215Y-120277212D01*
X191064682Y-120277212D01*
X191077960Y-120209362D01*
X191082406Y-120178992D01*
X191252594Y-119488090D01*
X191553477Y-118903415D01*
X191988407Y-118419580D01*
X192338598Y-118160398D01*
X192551847Y-118021008D01*
X192553323Y-118019630D01*
X194296400Y-118019630D01*
X194336441Y-118253715D01*
X194439857Y-118565547D01*
X194581716Y-118898084D01*
X194737085Y-119194282D01*
X194881031Y-119397099D01*
X194910804Y-119425292D01*
X194995336Y-119477987D01*
X195055837Y-119452250D01*
X195105042Y-119322544D01*
X195155681Y-119063333D01*
X195160118Y-119035630D01*
X197005733Y-119035630D01*
X197045774Y-119269715D01*
X197149190Y-119581547D01*
X197291050Y-119914084D01*
X197446419Y-120210282D01*
X197590364Y-120413099D01*
X197620138Y-120441292D01*
X197704669Y-120493987D01*
X197765171Y-120468250D01*
X197814375Y-120338544D01*
X197865015Y-120079333D01*
X197895502Y-119888993D01*
X197943899Y-119712822D01*
X198807636Y-119712822D01*
X198846861Y-119760413D01*
X198868333Y-119773001D01*
X199082105Y-119870293D01*
X199266655Y-119916208D01*
X199369348Y-119899650D01*
X199376333Y-119880098D01*
X199308531Y-119783439D01*
X199242408Y-119747393D01*
X199081204Y-119712963D01*
X199884400Y-119712963D01*
X199924441Y-119947048D01*
X200027857Y-120258880D01*
X200169716Y-120591417D01*
X200325085Y-120887615D01*
X200469031Y-121090432D01*
X200498804Y-121118625D01*
X200583336Y-121171321D01*
X200643837Y-121145584D01*
X200693042Y-121015878D01*
X200743681Y-120756666D01*
X200774169Y-120566327D01*
X200852995Y-120279391D01*
X200977041Y-120025281D01*
X201005511Y-119985488D01*
X201151719Y-119837957D01*
X201317507Y-119791345D01*
X201506664Y-119805629D01*
X201742168Y-119816296D01*
X201895723Y-119748462D01*
X202002656Y-119632331D01*
X202121382Y-119371235D01*
X202071868Y-119100675D01*
X201969471Y-118942052D01*
X201764780Y-118786887D01*
X201458254Y-118664866D01*
X201117157Y-118600245D01*
X201008886Y-118595651D01*
X200601143Y-118673288D01*
X200258587Y-118885097D01*
X200011793Y-119200696D01*
X199891335Y-119589706D01*
X199884400Y-119712963D01*
X199081204Y-119712963D01*
X199046032Y-119705451D01*
X198924908Y-119698575D01*
X198807636Y-119712822D01*
X197943899Y-119712822D01*
X197964026Y-119639556D01*
X198557888Y-119639556D01*
X198569511Y-119689891D01*
X198614333Y-119696001D01*
X198684023Y-119665023D01*
X198670777Y-119639556D01*
X198570298Y-119629423D01*
X198557888Y-119639556D01*
X197964026Y-119639556D01*
X197974328Y-119602057D01*
X198098375Y-119347948D01*
X198126845Y-119308155D01*
X198273052Y-119160624D01*
X198438840Y-119114012D01*
X198627997Y-119128296D01*
X198863502Y-119138962D01*
X199017057Y-119071128D01*
X199123990Y-118954997D01*
X199242715Y-118693902D01*
X199193201Y-118423341D01*
X199090804Y-118264719D01*
X198886114Y-118109554D01*
X198579588Y-117987532D01*
X198238490Y-117922912D01*
X198130219Y-117918317D01*
X197722477Y-117995955D01*
X197379920Y-118207764D01*
X197133126Y-118523363D01*
X197012669Y-118912373D01*
X197005733Y-119035630D01*
X195160118Y-119035630D01*
X195186169Y-118872993D01*
X195236494Y-118689803D01*
X196257072Y-118689803D01*
X196314761Y-118756115D01*
X196328471Y-118764753D01*
X196466510Y-118785130D01*
X196511995Y-118741484D01*
X196544123Y-118623713D01*
X196444395Y-118604629D01*
X196355524Y-118631763D01*
X196257072Y-118689803D01*
X195236494Y-118689803D01*
X195264995Y-118586057D01*
X195389041Y-118331948D01*
X195417511Y-118292155D01*
X195563719Y-118144624D01*
X195729507Y-118098012D01*
X195918664Y-118112296D01*
X196154168Y-118122962D01*
X196307723Y-118055128D01*
X196414656Y-117938997D01*
X196533382Y-117677902D01*
X196483868Y-117407341D01*
X196381471Y-117248719D01*
X196176780Y-117093554D01*
X195870254Y-116971532D01*
X195529157Y-116906912D01*
X195420886Y-116902317D01*
X195013143Y-116979955D01*
X194670587Y-117191764D01*
X194423793Y-117507363D01*
X194303335Y-117896373D01*
X194296400Y-118019630D01*
X192553323Y-118019630D01*
X192637692Y-117940844D01*
X192612480Y-117889638D01*
X192509595Y-117843783D01*
X191721343Y-117532800D01*
X190913447Y-117209904D01*
X190248732Y-116941177D01*
X190101693Y-116881733D01*
X189301861Y-116554924D01*
X188529736Y-116236112D01*
X187801099Y-115931935D01*
X187131734Y-115649030D01*
X186537424Y-115394033D01*
X186033951Y-115173582D01*
X185637099Y-114994312D01*
X185362650Y-114862861D01*
X185226386Y-114785866D01*
X185216649Y-114777051D01*
X185091630Y-114559783D01*
X184957153Y-114215230D01*
X184825782Y-113784001D01*
X184710080Y-113306708D01*
X184632408Y-112888575D01*
X184581861Y-112368514D01*
X184580965Y-112326941D01*
X186253000Y-112326941D01*
X186282004Y-112490524D01*
X186384460Y-112622685D01*
X186583531Y-112736298D01*
X186902381Y-112844239D01*
X187364174Y-112959380D01*
X187409177Y-112969556D01*
X187890680Y-113086144D01*
X188407413Y-113224681D01*
X188880713Y-113363556D01*
X189096902Y-113433226D01*
X189610029Y-113592310D01*
X189988611Y-113672616D01*
X190248732Y-113672722D01*
X190406478Y-113591206D01*
X190477934Y-113426647D01*
X190486333Y-113310450D01*
X190401836Y-113013244D01*
X190148379Y-112726545D01*
X189726012Y-112450408D01*
X189682000Y-112427257D01*
X189394692Y-112276110D01*
X189234322Y-112162883D01*
X189180330Y-112042320D01*
X189212158Y-111869164D01*
X189307507Y-111602897D01*
X189411829Y-111331716D01*
X189499410Y-111127025D01*
X189545519Y-111041837D01*
X189650144Y-111028218D01*
X189867762Y-111053567D01*
X190106563Y-111102321D01*
X190612226Y-111200398D01*
X190974015Y-111218111D01*
X191197043Y-111155575D01*
X191231400Y-111127734D01*
X191317042Y-111007193D01*
X191309822Y-110869279D01*
X191205042Y-110658031D01*
X191196458Y-110643395D01*
X191189783Y-110632014D01*
X191092146Y-110503834D01*
X190946086Y-110384739D01*
X190731632Y-110266198D01*
X190428815Y-110139680D01*
X190017663Y-109996653D01*
X189478207Y-109828585D01*
X188934354Y-109668490D01*
X188291886Y-109489014D01*
X187791987Y-109367464D01*
X187417992Y-109304164D01*
X187153235Y-109299438D01*
X186981049Y-109353612D01*
X186884770Y-109467008D01*
X186847730Y-109639953D01*
X186845666Y-109709145D01*
X186869851Y-109872185D01*
X186958474Y-110016314D01*
X187135640Y-110161877D01*
X187425453Y-110329216D01*
X187798525Y-110513359D01*
X188094846Y-110661029D01*
X188321489Y-110787200D01*
X188443051Y-110871608D01*
X188454333Y-110888777D01*
X188424116Y-110996734D01*
X188346266Y-111207298D01*
X188272932Y-111389252D01*
X188159668Y-111638580D01*
X188069448Y-111758738D01*
X187972133Y-111781322D01*
X187913099Y-111766466D01*
X187584664Y-111709592D01*
X187224553Y-111729132D01*
X186872094Y-111811807D01*
X186566617Y-111944340D01*
X186347452Y-112113451D01*
X186253930Y-112305863D01*
X186253000Y-112326941D01*
X184580965Y-112326941D01*
X184568094Y-111729414D01*
X184588680Y-111016967D01*
X184641191Y-110276867D01*
X184723203Y-109554806D01*
X184832288Y-108896477D01*
X184848671Y-108816334D01*
X185059883Y-107897577D01*
X185306050Y-107003445D01*
X185315172Y-106975308D01*
X187279094Y-106975308D01*
X187358986Y-107245156D01*
X187385003Y-107287434D01*
X187501576Y-107393895D01*
X187739705Y-107560009D01*
X188070638Y-107767450D01*
X188465621Y-107997890D01*
X188725033Y-108141546D01*
X189189967Y-108395144D01*
X189653784Y-108650411D01*
X190073334Y-108883448D01*
X190405468Y-109070354D01*
X190510512Y-109130502D01*
X190909328Y-109336069D01*
X191196458Y-109424211D01*
X191381655Y-109395509D01*
X191474670Y-109250548D01*
X191485570Y-109188805D01*
X191460845Y-109002664D01*
X191322974Y-108810843D01*
X191207458Y-108701972D01*
X191012282Y-108544541D01*
X190862995Y-108448809D01*
X190822053Y-108435334D01*
X190772212Y-108361545D01*
X190746892Y-108180226D01*
X190746457Y-107951446D01*
X190771270Y-107735276D01*
X190817002Y-107598709D01*
X190886945Y-107536497D01*
X191010679Y-107535935D01*
X191234537Y-107599066D01*
X191296455Y-107619875D01*
X191685794Y-107727863D01*
X191969987Y-107754057D01*
X192123222Y-107701556D01*
X192182138Y-107535205D01*
X192133540Y-107310612D01*
X191991984Y-107086890D01*
X191964787Y-107058213D01*
X191721160Y-106899541D01*
X191342430Y-106755718D01*
X191272955Y-106737619D01*
X190862476Y-106630682D01*
X190315178Y-106528372D01*
X189734414Y-106452728D01*
X189154063Y-106407688D01*
X188608005Y-106397191D01*
X188130117Y-106425175D01*
X187754279Y-106495581D01*
X187607666Y-106551632D01*
X187363148Y-106740295D01*
X187279094Y-106975308D01*
X185315172Y-106975308D01*
X185598834Y-106100345D01*
X185949895Y-105154688D01*
X186370893Y-104132882D01*
X186385180Y-104100669D01*
X188300717Y-104100669D01*
X188355835Y-104456479D01*
X188492095Y-104757240D01*
X188776634Y-105063622D01*
X189204477Y-105348850D01*
X189749684Y-105597174D01*
X190039413Y-105696756D01*
X190677097Y-105846811D01*
X191272955Y-105893536D01*
X191805252Y-105841009D01*
X192252253Y-105693311D01*
X192592224Y-105454522D01*
X192781214Y-105182090D01*
X192901717Y-104872548D01*
X192931664Y-104636860D01*
X192875811Y-104408921D01*
X192842484Y-104330955D01*
X192696693Y-104152091D01*
X192493071Y-104050169D01*
X192299288Y-104056164D01*
X192272424Y-104070000D01*
X192199540Y-104182958D01*
X192136963Y-104387235D01*
X192132228Y-104411103D01*
X192006277Y-104732563D01*
X191764476Y-104935194D01*
X191484222Y-105018804D01*
X191127963Y-105026251D01*
X190708428Y-104958595D01*
X190269087Y-104831823D01*
X189853406Y-104661926D01*
X189504854Y-104464891D01*
X189266897Y-104256707D01*
X189218454Y-104185397D01*
X189143375Y-104014681D01*
X189170231Y-103890054D01*
X189281954Y-103756607D01*
X189440757Y-103521175D01*
X189454758Y-103333067D01*
X189345561Y-103208259D01*
X189134773Y-103162722D01*
X188843996Y-103212432D01*
X188650416Y-103289664D01*
X188453073Y-103470307D01*
X188334818Y-103756294D01*
X188300717Y-104100669D01*
X186385180Y-104100669D01*
X186847168Y-103059001D01*
X187198150Y-102252256D01*
X188979364Y-102252256D01*
X189103686Y-102408416D01*
X189121010Y-102418298D01*
X189269397Y-102461731D01*
X189542638Y-102510953D01*
X189896745Y-102558823D01*
X190158177Y-102586665D01*
X190675095Y-102645081D01*
X191091064Y-102720637D01*
X191468105Y-102831381D01*
X191868241Y-102995358D01*
X192329036Y-103218280D01*
X192687998Y-103392168D01*
X192932441Y-103487999D01*
X193094655Y-103512100D01*
X193206930Y-103470803D01*
X193275285Y-103403749D01*
X193321841Y-103228481D01*
X193239605Y-103007418D01*
X193052660Y-102767582D01*
X192785089Y-102535999D01*
X192460976Y-102339692D01*
X192246106Y-102248922D01*
X192010605Y-102131733D01*
X191880522Y-101997380D01*
X191878378Y-101875027D01*
X191924294Y-101832182D01*
X192041922Y-101793538D01*
X192284918Y-101734850D01*
X192611925Y-101665674D01*
X192819757Y-101625270D01*
X193181647Y-101547146D01*
X193487791Y-101462736D01*
X193694418Y-101385000D01*
X193749595Y-101349977D01*
X193856487Y-101145062D01*
X193852621Y-100909530D01*
X193744487Y-100729412D01*
X193557206Y-100664412D01*
X193254268Y-100658148D01*
X192876903Y-100705636D01*
X192466339Y-100801890D01*
X192096035Y-100928709D01*
X191912138Y-101002988D01*
X191559296Y-101145507D01*
X191046961Y-100717411D01*
X190673171Y-100423474D01*
X190389443Y-100246168D01*
X190174462Y-100174570D01*
X190021401Y-100191768D01*
X189916690Y-100277193D01*
X189915840Y-100423935D01*
X190024956Y-100645680D01*
X190250141Y-100956116D01*
X190492347Y-101247792D01*
X190900348Y-101722584D01*
X190121840Y-101683813D01*
X189911598Y-101675393D01*
X189747194Y-101668809D01*
X189500466Y-101672846D01*
X189340747Y-101701936D01*
X189227125Y-101762086D01*
X189152833Y-101826153D01*
X189058528Y-101958666D01*
X188996403Y-102045961D01*
X188979364Y-102252256D01*
X187198150Y-102252256D01*
X187304484Y-102007844D01*
X187670269Y-101050702D01*
X187955608Y-100146891D01*
X188171584Y-99255724D01*
X188329281Y-98336518D01*
X188439785Y-97348589D01*
X188456062Y-97153501D01*
X188456534Y-97136994D01*
X190147666Y-97136994D01*
X190192556Y-97364133D01*
X190302269Y-97615451D01*
X190318625Y-97642965D01*
X190572386Y-97903467D01*
X190946043Y-98095215D01*
X191404369Y-98217352D01*
X191912138Y-98269020D01*
X192434120Y-98249365D01*
X192935090Y-98157529D01*
X193379818Y-97992656D01*
X193733078Y-97753889D01*
X193761271Y-97726663D01*
X193926260Y-97542209D01*
X194010252Y-97369784D01*
X194039741Y-97137831D01*
X194042333Y-96967619D01*
X194028391Y-96664854D01*
X193973285Y-96465549D01*
X193857089Y-96305168D01*
X193828862Y-96276167D01*
X193606876Y-96121003D01*
X193426696Y-96089515D01*
X193320159Y-96119641D01*
X193267801Y-96199381D01*
X193255896Y-96371705D01*
X193265623Y-96593854D01*
X193271663Y-96885232D01*
X193237428Y-97068746D01*
X193147768Y-97203989D01*
X193097941Y-97253328D01*
X192769317Y-97463259D01*
X192350404Y-97595662D01*
X191896954Y-97644817D01*
X191464721Y-97605003D01*
X191109457Y-97470498D01*
X191091661Y-97459197D01*
X190954549Y-97332259D01*
X190929768Y-97164327D01*
X190946144Y-97061310D01*
X191002659Y-96748553D01*
X191012903Y-96563732D01*
X190971086Y-96470360D01*
X190871416Y-96431948D01*
X190845614Y-96427873D01*
X190640373Y-96473217D01*
X190554132Y-96535647D01*
X190424707Y-96629339D01*
X190246172Y-96847919D01*
X190152326Y-97080639D01*
X190147666Y-97136994D01*
X188456534Y-97136994D01*
X188498264Y-95677401D01*
X188482706Y-95435305D01*
X189997982Y-95435305D01*
X190037717Y-95565034D01*
X190190054Y-95666098D01*
X190342760Y-95711813D01*
X190554132Y-95725053D01*
X190861704Y-95705694D01*
X191233250Y-95662690D01*
X191699329Y-95603780D01*
X192206869Y-95541230D01*
X192663317Y-95486414D01*
X192762878Y-95474753D01*
X193096513Y-95431868D01*
X193365236Y-95389718D01*
X193524731Y-95355526D01*
X193546045Y-95347096D01*
X193604977Y-95217652D01*
X193610120Y-94951591D01*
X193562649Y-94572458D01*
X193489379Y-94211334D01*
X193358171Y-93708791D01*
X193232277Y-93368633D01*
X193107250Y-93184196D01*
X192978645Y-93148812D01*
X192847560Y-93249042D01*
X192791689Y-93363979D01*
X192787661Y-93542590D01*
X192835003Y-93831805D01*
X192841370Y-93862939D01*
X192897263Y-94171567D01*
X192933673Y-94445556D01*
X192941666Y-94571076D01*
X192933283Y-94668483D01*
X192892027Y-94740603D01*
X192793737Y-94793690D01*
X192614253Y-94834000D01*
X192329412Y-94867787D01*
X191915056Y-94901304D01*
X191573183Y-94925335D01*
X191074330Y-94980613D01*
X190651573Y-95067717D01*
X190320721Y-95178179D01*
X190097587Y-95303531D01*
X189997982Y-95435305D01*
X188482706Y-95435305D01*
X188399315Y-94137689D01*
X188163665Y-92557204D01*
X187964545Y-91692086D01*
X189309729Y-91692086D01*
X189380381Y-91869208D01*
X189410347Y-91901635D01*
X189490407Y-91963486D01*
X189597188Y-91989063D01*
X189769940Y-91977747D01*
X190047909Y-91928919D01*
X190247425Y-91888424D01*
X190674824Y-91818889D01*
X191120066Y-91776652D01*
X191493768Y-91770110D01*
X191502333Y-91770522D01*
X191797805Y-91788532D01*
X191962422Y-91817808D01*
X192034461Y-91877873D01*
X192052200Y-91988247D01*
X192052666Y-92051193D01*
X192036219Y-92190309D01*
X191971416Y-92302875D01*
X191835062Y-92400893D01*
X191603964Y-92496365D01*
X191254929Y-92601290D01*
X190764763Y-92727670D01*
X190727385Y-92736933D01*
X190278545Y-92853215D01*
X189970679Y-92949367D01*
X189778637Y-93038052D01*
X189677264Y-93131938D01*
X189641410Y-93243689D01*
X189639666Y-93284662D01*
X189712882Y-93434022D01*
X189911598Y-93509206D01*
X190204417Y-93499736D01*
X190255402Y-93490183D01*
X190610952Y-93406927D01*
X191010795Y-93297996D01*
X191410959Y-93177156D01*
X191767471Y-93058172D01*
X192036357Y-92954810D01*
X192154137Y-92895776D01*
X192416730Y-92648182D01*
X192595853Y-92329491D01*
X192681638Y-91984095D01*
X192664216Y-91656386D01*
X192533718Y-91390756D01*
X192497166Y-91352686D01*
X192195452Y-91150043D01*
X191811717Y-91042786D01*
X191325003Y-91028047D01*
X190714356Y-91102958D01*
X190696077Y-91106175D01*
X190101060Y-91233082D01*
X189671026Y-91373430D01*
X189406930Y-91526629D01*
X189309729Y-91692086D01*
X187964545Y-91692086D01*
X187795766Y-90958788D01*
X187303883Y-89377546D01*
X188466440Y-89377546D01*
X188486887Y-89621433D01*
X188557482Y-89905229D01*
X188682802Y-90221546D01*
X188835498Y-90514503D01*
X188988222Y-90728220D01*
X189058528Y-90789459D01*
X189168319Y-90787040D01*
X189410519Y-90742630D01*
X189755351Y-90662911D01*
X190173036Y-90554564D01*
X190454150Y-90476335D01*
X191755586Y-90105001D01*
X191755960Y-89828911D01*
X191719242Y-89582790D01*
X191626308Y-89286783D01*
X191577427Y-89172216D01*
X191362511Y-88819823D01*
X191101453Y-88550182D01*
X190829301Y-88394759D01*
X190683132Y-88369334D01*
X190399864Y-88420049D01*
X190109781Y-88548934D01*
X189878762Y-88721097D01*
X189790306Y-88842218D01*
X189697534Y-88975778D01*
X189560527Y-88977881D01*
X189496385Y-88955811D01*
X189132524Y-88880536D01*
X188809124Y-88931632D01*
X188613545Y-89056788D01*
X188502013Y-89202671D01*
X188466440Y-89377546D01*
X187303883Y-89377546D01*
X187300067Y-89365279D01*
X186681020Y-87799519D01*
X186596355Y-87609475D01*
X186392494Y-87172210D01*
X186169915Y-86718134D01*
X185961023Y-86312374D01*
X185848567Y-86106511D01*
X185696553Y-85823047D01*
X185592023Y-85598128D01*
X185551871Y-85469307D01*
X185555276Y-85454613D01*
X185642038Y-85476426D01*
X185853856Y-85566460D01*
X186166359Y-85713275D01*
X186555179Y-85905431D01*
X186984808Y-86125682D01*
X187428276Y-86354434D01*
X187822205Y-86553186D01*
X188141269Y-86709520D01*
X188360146Y-86811015D01*
X188452377Y-86845334D01*
X188485910Y-86761810D01*
X188511564Y-86515469D01*
X188529000Y-86112663D01*
X188537877Y-85559740D01*
X188539000Y-85229612D01*
X188543195Y-84633242D01*
X188555407Y-84167139D01*
X188575077Y-83842017D01*
X188601646Y-83668591D01*
X188621885Y-83642112D01*
X188713496Y-83719126D01*
G37*
D13*
%TO.C,D15*%
X109100000Y-73660000D02*
X109100000Y-69650000D01*
X109100000Y-73660000D02*
X111100000Y-73660000D01*
X111100000Y-73660000D02*
X111100000Y-69650000D01*
%TO.C,SW29*%
X133085000Y-102315000D02*
X147055000Y-102315000D01*
X133085000Y-116285000D02*
X133085000Y-102315000D01*
X147055000Y-102315000D02*
X147055000Y-116285000D01*
X147055000Y-116285000D02*
X133085000Y-116285000D01*
%TO.C,SW27*%
X95035000Y-102315000D02*
X109005000Y-102315000D01*
X95035000Y-116285000D02*
X95035000Y-102315000D01*
X109005000Y-102315000D02*
X109005000Y-116285000D01*
X109005000Y-116285000D02*
X95035000Y-116285000D01*
%TO.C,D4*%
X128000000Y-35060000D02*
X128000000Y-31050000D01*
X128000000Y-35060000D02*
X130000000Y-35060000D01*
X130000000Y-35060000D02*
X130000000Y-31050000D01*
%TO.C,D23*%
X146550000Y-93360000D02*
X146550000Y-89350000D01*
X146550000Y-93360000D02*
X148550000Y-93360000D01*
X148550000Y-93360000D02*
X148550000Y-89350000D01*
%TO.C,SW7*%
X56785000Y-45145000D02*
X70755000Y-45145000D01*
X56785000Y-59115000D02*
X56785000Y-45145000D01*
X70755000Y-45145000D02*
X70755000Y-59115000D01*
X70755000Y-59115000D02*
X56785000Y-59115000D01*
%TO.C,D31*%
X108360000Y-133000000D02*
X104350000Y-133000000D01*
X108360000Y-135000000D02*
X104350000Y-135000000D01*
X108360000Y-135000000D02*
X108360000Y-133000000D01*
%TO.C,SW19*%
X56785000Y-83275000D02*
X70755000Y-83275000D01*
X56785000Y-97245000D02*
X56785000Y-83275000D01*
X70755000Y-83275000D02*
X70755000Y-97245000D01*
X70755000Y-97245000D02*
X56785000Y-97245000D01*
%TO.C,D1*%
X70200000Y-35060000D02*
X70200000Y-31050000D01*
X70200000Y-35060000D02*
X72200000Y-35060000D01*
X72200000Y-35060000D02*
X72200000Y-31050000D01*
%TO.C,D2*%
X90000000Y-35060000D02*
X90000000Y-31050000D01*
X90000000Y-35060000D02*
X92000000Y-35060000D01*
X92000000Y-35060000D02*
X92000000Y-31050000D01*
%TO.C,D30*%
X166000000Y-110360000D02*
X166000000Y-106350000D01*
X166000000Y-110360000D02*
X168000000Y-110360000D01*
X168000000Y-110360000D02*
X168000000Y-106350000D01*
%TO.C,D24*%
X166000000Y-93360000D02*
X166000000Y-89350000D01*
X166000000Y-93360000D02*
X168000000Y-93360000D01*
X168000000Y-93360000D02*
X168000000Y-89350000D01*
%TO.C,SW4*%
X113905000Y-26085000D02*
X127875000Y-26085000D01*
X113905000Y-40055000D02*
X113905000Y-26085000D01*
X127875000Y-26085000D02*
X127875000Y-40055000D01*
X127875000Y-40055000D02*
X113905000Y-40055000D01*
%TO.C,SW26*%
X76035000Y-102315000D02*
X90005000Y-102315000D01*
X76035000Y-116285000D02*
X76035000Y-102315000D01*
X90005000Y-102315000D02*
X90005000Y-116285000D01*
X90005000Y-116285000D02*
X76035000Y-116285000D01*
%TO.C,D21*%
X109100000Y-93360000D02*
X109100000Y-89350000D01*
X109100000Y-93360000D02*
X111100000Y-93360000D01*
X111100000Y-93360000D02*
X111100000Y-89350000D01*
%TO.C,D8*%
X89950000Y-53710000D02*
X89950000Y-49700000D01*
X89950000Y-53710000D02*
X91950000Y-53710000D01*
X91950000Y-53710000D02*
X91950000Y-49700000D01*
%TO.C,D19*%
X70650000Y-93360000D02*
X70650000Y-89350000D01*
X70650000Y-93360000D02*
X72650000Y-93360000D01*
X72650000Y-93360000D02*
X72650000Y-89350000D01*
%TO.C,SW18*%
X152115000Y-64195000D02*
X166085000Y-64195000D01*
X152115000Y-78165000D02*
X152115000Y-64195000D01*
X166085000Y-64195000D02*
X166085000Y-78165000D01*
X166085000Y-78165000D02*
X152115000Y-78165000D01*
%TO.C,D7*%
X70950000Y-53710000D02*
X70950000Y-49700000D01*
X70950000Y-53710000D02*
X72950000Y-53710000D01*
X72950000Y-53710000D02*
X72950000Y-49700000D01*
%TO.C,SW11*%
X132990000Y-45140000D02*
X146960000Y-45140000D01*
X132990000Y-59110000D02*
X132990000Y-45140000D01*
X146960000Y-45140000D02*
X146960000Y-59110000D01*
X146960000Y-59110000D02*
X132990000Y-59110000D01*
%TO.C,SW31*%
X91125000Y-135555000D02*
X105095000Y-135555000D01*
X91125000Y-149525000D02*
X91125000Y-135555000D01*
X105095000Y-135555000D02*
X105095000Y-149525000D01*
X105095000Y-149525000D02*
X91125000Y-149525000D01*
%TO.C,SW13*%
X56775000Y-64180000D02*
X70745000Y-64180000D01*
X56775000Y-78150000D02*
X56775000Y-64180000D01*
X70745000Y-64180000D02*
X70745000Y-78150000D01*
X70745000Y-78150000D02*
X56775000Y-78150000D01*
%TO.C,SW32*%
X110565000Y-124315000D02*
X124535000Y-124315000D01*
X110565000Y-138285000D02*
X110565000Y-124315000D01*
X124535000Y-124315000D02*
X124535000Y-138285000D01*
X124535000Y-138285000D02*
X110565000Y-138285000D01*
%TO.C,D32*%
X125000000Y-129060000D02*
X125000000Y-125050000D01*
X125000000Y-129060000D02*
X127000000Y-129060000D01*
X127000000Y-129060000D02*
X127000000Y-125050000D01*
%TO.C,D34*%
X163000000Y-137640000D02*
X163000000Y-141650000D01*
X165000000Y-137640000D02*
X163000000Y-137640000D01*
X165000000Y-137640000D02*
X165000000Y-141650000D01*
%TO.C,SW3*%
X94865000Y-26085000D02*
X108835000Y-26085000D01*
X94865000Y-40055000D02*
X94865000Y-26085000D01*
X108835000Y-26085000D02*
X108835000Y-40055000D01*
X108835000Y-40055000D02*
X94865000Y-40055000D01*
%TO.C,SW5*%
X132985000Y-26085000D02*
X146955000Y-26085000D01*
X132985000Y-40055000D02*
X132985000Y-26085000D01*
X146955000Y-26085000D02*
X146955000Y-40055000D01*
X146955000Y-40055000D02*
X132985000Y-40055000D01*
%TO.C,SW1*%
X56795000Y-26085000D02*
X70765000Y-26085000D01*
X56795000Y-40055000D02*
X56795000Y-26085000D01*
X70765000Y-26085000D02*
X70765000Y-40055000D01*
X70765000Y-40055000D02*
X56795000Y-40055000D01*
%TO.C,D26*%
X90000000Y-110060000D02*
X90000000Y-106050000D01*
X90000000Y-110060000D02*
X92000000Y-110060000D01*
X92000000Y-110060000D02*
X92000000Y-106050000D01*
%TO.C,SW34*%
X148865000Y-140015000D02*
X162835000Y-140015000D01*
X148865000Y-153985000D02*
X148865000Y-140015000D01*
X162835000Y-140015000D02*
X162835000Y-153985000D01*
X162835000Y-153985000D02*
X148865000Y-153985000D01*
%TO.C,D14*%
X90000000Y-73660000D02*
X90000000Y-69650000D01*
X90000000Y-73660000D02*
X92000000Y-73660000D01*
X92000000Y-73660000D02*
X92000000Y-69650000D01*
%TO.C,D5*%
X147000000Y-35060000D02*
X147000000Y-31050000D01*
X147000000Y-35060000D02*
X149000000Y-35060000D01*
X149000000Y-35060000D02*
X149000000Y-31050000D01*
%TO.C,SW22*%
X113925000Y-83205000D02*
X127895000Y-83205000D01*
X113925000Y-97175000D02*
X113925000Y-83205000D01*
X127895000Y-83205000D02*
X127895000Y-97175000D01*
X127895000Y-97175000D02*
X113925000Y-97175000D01*
%TO.C,D9*%
X108950000Y-53710000D02*
X108950000Y-49700000D01*
X108950000Y-53710000D02*
X110950000Y-53710000D01*
X110950000Y-53710000D02*
X110950000Y-49700000D01*
%TO.C,SW15*%
X94900000Y-64195000D02*
X108870000Y-64195000D01*
X94900000Y-78165000D02*
X94900000Y-64195000D01*
X108870000Y-64195000D02*
X108870000Y-78165000D01*
X108870000Y-78165000D02*
X94900000Y-78165000D01*
%TO.C,SW23*%
X133115000Y-83315000D02*
X147085000Y-83315000D01*
X133115000Y-97285000D02*
X133115000Y-83315000D01*
X147085000Y-83315000D02*
X147085000Y-97285000D01*
X147085000Y-97285000D02*
X133115000Y-97285000D01*
%TO.C,SW30*%
X152115000Y-102315000D02*
X166085000Y-102315000D01*
X152115000Y-116285000D02*
X152115000Y-102315000D01*
X166085000Y-102315000D02*
X166085000Y-116285000D01*
X166085000Y-116285000D02*
X152115000Y-116285000D01*
%TO.C,D17*%
X146550000Y-73660000D02*
X146550000Y-69650000D01*
X146550000Y-73660000D02*
X148550000Y-73660000D01*
X148550000Y-73660000D02*
X148550000Y-69650000D01*
%TO.C,D28*%
X128000000Y-110360000D02*
X128000000Y-106350000D01*
X128000000Y-110360000D02*
X130000000Y-110360000D01*
X130000000Y-110360000D02*
X130000000Y-106350000D01*
%TO.C,D12*%
X166000000Y-55375000D02*
X166000000Y-51365000D01*
X166000000Y-55375000D02*
X168000000Y-55375000D01*
X168000000Y-55375000D02*
X168000000Y-51365000D01*
%TO.C,SW2*%
X75825000Y-26085000D02*
X89795000Y-26085000D01*
X75825000Y-40055000D02*
X75825000Y-26085000D01*
X89795000Y-26085000D02*
X89795000Y-40055000D01*
X89795000Y-40055000D02*
X75825000Y-40055000D01*
%TO.C,SW20*%
X75845000Y-83245000D02*
X89815000Y-83245000D01*
X75845000Y-97215000D02*
X75845000Y-83245000D01*
X89815000Y-83245000D02*
X89815000Y-97215000D01*
X89815000Y-97215000D02*
X75845000Y-97215000D01*
%TO.C,D29*%
X147000000Y-110060000D02*
X147000000Y-106050000D01*
X147000000Y-110060000D02*
X149000000Y-110060000D01*
X149000000Y-110060000D02*
X149000000Y-106050000D01*
%TO.C,SW21*%
X94925000Y-83205000D02*
X108895000Y-83205000D01*
X94925000Y-97175000D02*
X94925000Y-83205000D01*
X108895000Y-83205000D02*
X108895000Y-97175000D01*
X108895000Y-97175000D02*
X94925000Y-97175000D01*
%TO.C,D22*%
X127550000Y-93360000D02*
X127550000Y-89350000D01*
X127550000Y-93360000D02*
X129550000Y-93360000D01*
X129550000Y-93360000D02*
X129550000Y-89350000D01*
%TO.C,A1*%
X183110000Y-20185000D02*
X182630000Y-20185000D01*
X183110000Y-20185000D02*
X183110000Y-20605000D01*
X183110000Y-22725000D02*
X183110000Y-23145000D01*
X183110000Y-25265000D02*
X183110000Y-25685000D01*
X183110000Y-27805000D02*
X183110000Y-28225000D01*
X183110000Y-30345000D02*
X183110000Y-30765000D01*
X183110000Y-32885000D02*
X183110000Y-33305000D01*
X183110000Y-35425000D02*
X183110000Y-35845000D01*
X183110000Y-37965000D02*
X183110000Y-38385000D01*
X183110000Y-40505000D02*
X183110000Y-40925000D01*
X183110000Y-43045000D02*
X183110000Y-43465000D01*
X183110000Y-45585000D02*
X183110000Y-46005000D01*
X183110000Y-48125000D02*
X183110000Y-48545000D01*
X183110000Y-50665000D02*
X183110000Y-51085000D01*
X183110000Y-53205000D02*
X183110000Y-53625000D01*
X183110000Y-55745000D02*
X183110000Y-56165000D01*
X183110000Y-58285000D02*
X183110000Y-58705000D01*
X183110000Y-60825000D02*
X183110000Y-61245000D01*
X183110000Y-63365000D02*
X183110000Y-63785000D01*
X183110000Y-65905000D02*
X183110000Y-66325000D01*
X183140324Y-18065000D02*
X182630000Y-18065000D01*
X183720000Y-17645000D02*
X186210000Y-17645000D01*
X186210000Y-17645000D02*
X187557940Y-17645000D01*
X188482061Y-17645000D02*
X189485000Y-17645000D01*
X189485000Y-17645000D02*
X197955000Y-17645000D01*
X189820000Y-17645000D02*
X189820000Y-18561000D01*
X189820000Y-20949000D02*
X189820000Y-22165000D01*
X189820000Y-22165000D02*
X190116090Y-22165000D01*
X192473910Y-22165000D02*
X194966090Y-22165000D01*
X197323910Y-22165000D02*
X197620000Y-22165000D01*
X197620000Y-17645000D02*
X197620000Y-18561000D01*
X197620000Y-20949000D02*
X197620000Y-22165000D01*
X197955000Y-17645000D02*
X198957939Y-17645000D01*
X199882061Y-17645000D02*
X201230000Y-17645000D01*
X203720000Y-17645000D02*
X201230000Y-17645000D01*
X204330000Y-20185000D02*
X204330000Y-20605000D01*
X204330000Y-22725000D02*
X204330000Y-23145000D01*
X204330000Y-25265000D02*
X204330000Y-25685000D01*
X204330000Y-27805000D02*
X204330000Y-28225000D01*
X204330000Y-30345000D02*
X204330000Y-30765000D01*
X204330000Y-32885000D02*
X204330000Y-33305000D01*
X204330000Y-35425000D02*
X204330000Y-35845000D01*
X204330000Y-37965000D02*
X204330000Y-38385000D01*
X204330000Y-40505000D02*
X204330000Y-40925000D01*
X204330000Y-43045000D02*
X204330000Y-43465000D01*
X204330000Y-45585000D02*
X204330000Y-46005000D01*
X204330000Y-48125000D02*
X204330000Y-48545000D01*
X204330000Y-50665000D02*
X204330000Y-51085000D01*
X204330000Y-53205000D02*
X204330000Y-53625000D01*
X204330000Y-55745000D02*
X204330000Y-56165000D01*
X204330000Y-58285000D02*
X204330000Y-58705000D01*
X204330000Y-60825000D02*
X204330000Y-61245000D01*
X204330000Y-63365000D02*
X204330000Y-63785000D01*
X204330000Y-65905000D02*
X204330000Y-66325000D01*
X183140324Y-18065000D02*
G75*
G02*
X183720000Y-17645000I579692J-190051D01*
G01*
X183356682Y-68745000D02*
G75*
G02*
X183140324Y-68444937I363328J490008D01*
G01*
X203720000Y-17645000D02*
G75*
G02*
X204299676Y-18065063I0J-610000D01*
G01*
X204299676Y-68444937D02*
G75*
G02*
X204083335Y-68745022I-579476J189737D01*
G01*
%TO.C,D6*%
X166000000Y-35060000D02*
X166000000Y-31050000D01*
X166000000Y-35060000D02*
X168000000Y-35060000D01*
X168000000Y-35060000D02*
X168000000Y-31050000D01*
%TO.C,SW10*%
X113900000Y-45140000D02*
X127870000Y-45140000D01*
X113900000Y-59110000D02*
X113900000Y-45140000D01*
X127870000Y-45140000D02*
X127870000Y-59110000D01*
X127870000Y-59110000D02*
X113900000Y-59110000D01*
%TO.C,D11*%
X147425000Y-54285000D02*
X147425000Y-50275000D01*
X147425000Y-54285000D02*
X149425000Y-54285000D01*
X149425000Y-54285000D02*
X149425000Y-50275000D01*
%TO.C,SW16*%
X113935000Y-64190000D02*
X127905000Y-64190000D01*
X113935000Y-78160000D02*
X113935000Y-64190000D01*
X127905000Y-64190000D02*
X127905000Y-78160000D01*
X127905000Y-78160000D02*
X113935000Y-78160000D01*
%TO.C,D10*%
X127950000Y-53725000D02*
X127950000Y-49715000D01*
X127950000Y-53725000D02*
X129950000Y-53725000D01*
X129950000Y-53725000D02*
X129950000Y-49715000D01*
%TO.C,D25*%
X70550000Y-110060000D02*
X70550000Y-106050000D01*
X70550000Y-110060000D02*
X72550000Y-110060000D01*
X72550000Y-110060000D02*
X72550000Y-106050000D01*
%TO.C,D3*%
X109000000Y-35060000D02*
X109000000Y-31050000D01*
X109000000Y-35060000D02*
X111000000Y-35060000D01*
X111000000Y-35060000D02*
X111000000Y-31050000D01*
%TO.C,SW33*%
X129815000Y-127465000D02*
X143785000Y-127465000D01*
X129815000Y-141435000D02*
X129815000Y-127465000D01*
X143785000Y-127465000D02*
X143785000Y-141435000D01*
X143785000Y-141435000D02*
X129815000Y-141435000D01*
%TO.C,SW14*%
X75860000Y-64190000D02*
X89830000Y-64190000D01*
X75860000Y-78160000D02*
X75860000Y-64190000D01*
X89830000Y-64190000D02*
X89830000Y-78160000D01*
X89830000Y-78160000D02*
X75860000Y-78160000D01*
%TO.C,SW28*%
X114035000Y-102315000D02*
X128005000Y-102315000D01*
X114035000Y-116285000D02*
X114035000Y-102315000D01*
X128005000Y-102315000D02*
X128005000Y-116285000D01*
X128005000Y-116285000D02*
X114035000Y-116285000D01*
%TO.C,SW6*%
X152055000Y-26085000D02*
X166025000Y-26085000D01*
X152055000Y-40055000D02*
X152055000Y-26085000D01*
X166025000Y-26085000D02*
X166025000Y-40055000D01*
X166025000Y-40055000D02*
X152055000Y-40055000D01*
D14*
%TO.C,G\u002A\u002A\u002A*%
G36*
X80001694Y-125975592D02*
G01*
X80298685Y-126028025D01*
X80505060Y-126109505D01*
X80582333Y-126217632D01*
X80641594Y-126337357D01*
X80784251Y-126487583D01*
X80785705Y-126488819D01*
X80922013Y-126668765D01*
X81083175Y-126988624D01*
X81256762Y-127423130D01*
X81287113Y-127508000D01*
X81433401Y-127918216D01*
X81580759Y-128322435D01*
X81707065Y-128660347D01*
X81759846Y-128796844D01*
X81856311Y-129049162D01*
X81890748Y-129190322D01*
X81863880Y-129266440D01*
X81776431Y-129323636D01*
X81768176Y-129328060D01*
X81508438Y-129381861D01*
X81246848Y-129282283D01*
X81000548Y-129044208D01*
X80786684Y-128682523D01*
X80668460Y-128373336D01*
X80567552Y-128053339D01*
X80289045Y-128418089D01*
X79891464Y-128841766D01*
X79442741Y-129156391D01*
X78970178Y-129353220D01*
X78501078Y-129423507D01*
X78062743Y-129358508D01*
X77779687Y-129221816D01*
X77478664Y-128940185D01*
X77259920Y-128575428D01*
X77150744Y-128183733D01*
X77151340Y-128114323D01*
X77968893Y-128114323D01*
X78102457Y-128321464D01*
X78188224Y-128396733D01*
X78484430Y-128527670D01*
X78836519Y-128500034D01*
X79241903Y-128314170D01*
X79353413Y-128241551D01*
X79771256Y-127863466D01*
X80045627Y-127397760D01*
X80146895Y-127061143D01*
X80190526Y-126823141D01*
X80206134Y-126664928D01*
X80200664Y-126632442D01*
X80108168Y-126628173D01*
X79890542Y-126644607D01*
X79590253Y-126678283D01*
X79508143Y-126688872D01*
X79172976Y-126737307D01*
X78947519Y-126794101D01*
X78773497Y-126888925D01*
X78592633Y-127051447D01*
X78402166Y-127251953D01*
X78115252Y-127598268D01*
X77971993Y-127879491D01*
X77968893Y-128114323D01*
X77151340Y-128114323D01*
X77152913Y-127931333D01*
X77299537Y-127467397D01*
X77581197Y-127005810D01*
X77967152Y-126583447D01*
X78426662Y-126237181D01*
X78677333Y-126102739D01*
X78951908Y-126015777D01*
X79289818Y-125967146D01*
X79652576Y-125954525D01*
X80001694Y-125975592D01*
G37*
G36*
X90246815Y-125238654D02*
G01*
X90470836Y-125398074D01*
X90570788Y-125631614D01*
X90572999Y-125675534D01*
X90542337Y-125887656D01*
X90431675Y-126020424D01*
X90212997Y-126090006D01*
X89858290Y-126112569D01*
X89815232Y-126112859D01*
X89466966Y-126139295D01*
X89124921Y-126207471D01*
X88829589Y-126304085D01*
X88621460Y-126415836D01*
X88541027Y-126529423D01*
X88540999Y-126531438D01*
X88572240Y-126599951D01*
X88676756Y-126692582D01*
X88870743Y-126819112D01*
X89170392Y-126989320D01*
X89591898Y-127212987D01*
X90107333Y-127477487D01*
X90512488Y-127692357D01*
X90886288Y-127906837D01*
X91189739Y-128097487D01*
X91383849Y-128240861D01*
X91396904Y-128252789D01*
X91674979Y-128594583D01*
X91795805Y-128931739D01*
X91760638Y-129246225D01*
X91570735Y-129520007D01*
X91295820Y-129703745D01*
X90970421Y-129808383D01*
X90531447Y-129876194D01*
X90030873Y-129905942D01*
X89520674Y-129896387D01*
X89052827Y-129846293D01*
X88710333Y-129765321D01*
X88184149Y-129556657D01*
X87821232Y-129337632D01*
X87615561Y-129101827D01*
X87561115Y-128842822D01*
X87625219Y-128608342D01*
X87738897Y-128462805D01*
X87907828Y-128433471D01*
X88150757Y-128523521D01*
X88486430Y-128736138D01*
X88520244Y-128760254D01*
X88701752Y-128883057D01*
X88864701Y-128962872D01*
X89054681Y-129010592D01*
X89317286Y-129037109D01*
X89698108Y-129053315D01*
X89754363Y-129055098D01*
X90248190Y-129059124D01*
X90593393Y-129033135D01*
X90788527Y-128973169D01*
X90832145Y-128875267D01*
X90722802Y-128735468D01*
X90459052Y-128549813D01*
X90039449Y-128314341D01*
X89462548Y-128025092D01*
X89360372Y-127975869D01*
X88690372Y-127642956D01*
X88169460Y-127355241D01*
X87786683Y-127102590D01*
X87531091Y-126874872D01*
X87391733Y-126661955D01*
X87357656Y-126453706D01*
X87417910Y-126239993D01*
X87438979Y-126198195D01*
X87611215Y-126009380D01*
X87912022Y-125808850D01*
X88302877Y-125612338D01*
X88745260Y-125435580D01*
X89200647Y-125294308D01*
X89630515Y-125204257D01*
X89932704Y-125179666D01*
X90246815Y-125238654D01*
G37*
G36*
X84467638Y-125744439D02*
G01*
X84616590Y-125774829D01*
X85231626Y-125997883D01*
X85784215Y-126377843D01*
X86076289Y-126670776D01*
X86381829Y-127098143D01*
X86546630Y-127548836D01*
X86593194Y-128045269D01*
X86517069Y-128482198D01*
X86297404Y-128848165D01*
X85949070Y-129132043D01*
X85486936Y-129322704D01*
X84925873Y-129409022D01*
X84765428Y-129413000D01*
X84432312Y-129384654D01*
X84163704Y-129278992D01*
X84002869Y-129173115D01*
X83776061Y-128995402D01*
X83592706Y-128829599D01*
X83545666Y-128778408D01*
X83489477Y-128725045D01*
X83450061Y-128742247D01*
X83422250Y-128853483D01*
X83400877Y-129082222D01*
X83380775Y-129451933D01*
X83376333Y-129547458D01*
X83359272Y-130193566D01*
X83377652Y-130712373D01*
X83436446Y-131143147D01*
X83540627Y-131525158D01*
X83666149Y-131835553D01*
X83784278Y-132106582D01*
X83833503Y-132277321D01*
X83820627Y-132398949D01*
X83756628Y-132516290D01*
X83577625Y-132683529D01*
X83372336Y-132684893D01*
X83146285Y-132520825D01*
X83094801Y-132463150D01*
X82937314Y-132185141D01*
X82801356Y-131767840D01*
X82690150Y-131240296D01*
X82606917Y-130631559D01*
X82554877Y-129970676D01*
X82537253Y-129286698D01*
X82557267Y-128608673D01*
X82606324Y-128058333D01*
X82689272Y-127504156D01*
X83524667Y-127504156D01*
X83536182Y-127680200D01*
X83592653Y-127813333D01*
X83728455Y-127977664D01*
X83964352Y-128179721D01*
X84249041Y-128381385D01*
X84531222Y-128544535D01*
X84646333Y-128596264D01*
X84869542Y-128628204D01*
X85152907Y-128601917D01*
X85416789Y-128530661D01*
X85568148Y-128442803D01*
X85681221Y-128222574D01*
X85705052Y-127917474D01*
X85643115Y-127584326D01*
X85498885Y-127279954D01*
X85496869Y-127277000D01*
X85174007Y-126925056D01*
X84785744Y-126726331D01*
X84371012Y-126671102D01*
X84048279Y-126702427D01*
X83830112Y-126818110D01*
X83673476Y-127050716D01*
X83590531Y-127261677D01*
X83524667Y-127504156D01*
X82689272Y-127504156D01*
X82701846Y-127420150D01*
X82823406Y-126924742D01*
X82984894Y-126545987D01*
X83200197Y-126257761D01*
X83483206Y-126033943D01*
X83760867Y-125886824D01*
X84038287Y-125771259D01*
X84247298Y-125727276D01*
X84467638Y-125744439D01*
G37*
G36*
X73645120Y-123224351D02*
G01*
X73771357Y-123422870D01*
X73861533Y-123695921D01*
X73893666Y-123979545D01*
X73907650Y-124275913D01*
X73941696Y-124551096D01*
X73945494Y-124570973D01*
X73997322Y-124830113D01*
X75056520Y-124814389D01*
X75504690Y-124810399D01*
X75813265Y-124816365D01*
X76011858Y-124835683D01*
X76130080Y-124871754D01*
X76197543Y-124927973D01*
X76210759Y-124946833D01*
X76270944Y-125096723D01*
X76228497Y-125221085D01*
X76067910Y-125329262D01*
X75773673Y-125430595D01*
X75330278Y-125534426D01*
X75187548Y-125563202D01*
X74724035Y-125650518D01*
X74392404Y-125719776D01*
X74171973Y-125798798D01*
X74042059Y-125915404D01*
X73981979Y-126097417D01*
X73971048Y-126372658D01*
X73988585Y-126768947D01*
X74007473Y-127150558D01*
X74030294Y-127615154D01*
X74056012Y-128031796D01*
X74082070Y-128365422D01*
X74105912Y-128580974D01*
X74115414Y-128630759D01*
X74237383Y-128799082D01*
X74456022Y-128880065D01*
X74726257Y-128879010D01*
X75003014Y-128801219D01*
X75241219Y-128651993D01*
X75374839Y-128482620D01*
X75465499Y-128259399D01*
X75502333Y-128075660D01*
X75571678Y-127883135D01*
X75735011Y-127713671D01*
X75925274Y-127635318D01*
X75936566Y-127635000D01*
X76128920Y-127704594D01*
X76235910Y-127894110D01*
X76252954Y-128174651D01*
X76175473Y-128517319D01*
X76104309Y-128693333D01*
X75902060Y-129035873D01*
X75632443Y-129297970D01*
X75256476Y-129511493D01*
X74955521Y-129632498D01*
X74516010Y-129772617D01*
X74189828Y-129825714D01*
X73945541Y-129792620D01*
X73751717Y-129674165D01*
X73741202Y-129664544D01*
X73579475Y-129494561D01*
X73456098Y-129307628D01*
X73363601Y-129075701D01*
X73294515Y-128770739D01*
X73241371Y-128364700D01*
X73196700Y-127829542D01*
X73178084Y-127550333D01*
X73145818Y-127024961D01*
X73117827Y-126646571D01*
X73081818Y-126393624D01*
X73025496Y-126244580D01*
X72936566Y-126177901D01*
X72802736Y-126172049D01*
X72611710Y-126205483D01*
X72431250Y-126241906D01*
X72113737Y-126240768D01*
X71893620Y-126106565D01*
X71785608Y-125850806D01*
X71776999Y-125730000D01*
X71825105Y-125477104D01*
X71983129Y-125302401D01*
X72271634Y-125190435D01*
X72560166Y-125141360D01*
X73046999Y-125082815D01*
X73046999Y-124202886D01*
X73050181Y-123802317D01*
X73063464Y-123537908D01*
X73092451Y-123376545D01*
X73142749Y-123285117D01*
X73210766Y-123235312D01*
X73403949Y-123162721D01*
X73504925Y-123147666D01*
X73645120Y-123224351D01*
G37*
G36*
X68711485Y-124026227D02*
G01*
X68930630Y-124101018D01*
X69222891Y-124247646D01*
X69229311Y-124251066D01*
X69763109Y-124602949D01*
X70192379Y-125045297D01*
X70548224Y-125611847D01*
X70622298Y-125761887D01*
X70750078Y-126047914D01*
X70828561Y-126286265D01*
X70869181Y-126536609D01*
X70883370Y-126858612D01*
X70883875Y-127127000D01*
X70870143Y-127587789D01*
X70828206Y-127941652D01*
X70748731Y-128249942D01*
X70687549Y-128417480D01*
X70448503Y-128885964D01*
X70166362Y-129218655D01*
X69859023Y-129411528D01*
X69544383Y-129460556D01*
X69240340Y-129361713D01*
X68964791Y-129110973D01*
X68798239Y-128842505D01*
X68595993Y-128436651D01*
X68399813Y-128673534D01*
X68095144Y-128948498D01*
X67729291Y-129139469D01*
X67349177Y-129231729D01*
X67001727Y-129210560D01*
X66861043Y-129156169D01*
X66723981Y-129029438D01*
X66571795Y-128813668D01*
X66517801Y-128716329D01*
X66382360Y-128276630D01*
X66385312Y-128013657D01*
X67039765Y-128013657D01*
X67059602Y-128223216D01*
X67138585Y-128339687D01*
X67141499Y-128340926D01*
X67456632Y-128382803D01*
X67771623Y-128257077D01*
X67868643Y-128183859D01*
X68103015Y-127881883D01*
X68178494Y-127636018D01*
X68259909Y-127356610D01*
X68384985Y-127112227D01*
X68403499Y-127087159D01*
X68571956Y-126873000D01*
X68375311Y-126873794D01*
X68165269Y-126923958D01*
X67882699Y-127051613D01*
X67583924Y-127224379D01*
X67325268Y-127409879D01*
X67168668Y-127567456D01*
X67076858Y-127774055D01*
X67039765Y-128013657D01*
X66385312Y-128013657D01*
X66387617Y-127808272D01*
X66515962Y-127342696D01*
X66749785Y-126911347D01*
X67071477Y-126545666D01*
X67463426Y-126277098D01*
X67908024Y-126137084D01*
X67966190Y-126130210D01*
X68391283Y-126119031D01*
X68692404Y-126186708D01*
X68899617Y-126341767D01*
X68949610Y-126409101D01*
X69036839Y-126580313D01*
X69013829Y-126703158D01*
X68977292Y-126752876D01*
X68914023Y-126881384D01*
X68961980Y-126944676D01*
X69087144Y-127103355D01*
X69182983Y-127378076D01*
X69233208Y-127716051D01*
X69236999Y-127835996D01*
X69272310Y-128155827D01*
X69367654Y-128373213D01*
X69507148Y-128464258D01*
X69634207Y-128433499D01*
X69822618Y-128236753D01*
X69978337Y-127910548D01*
X70092605Y-127493055D01*
X70156665Y-127022448D01*
X70161757Y-126536899D01*
X70133401Y-126257849D01*
X69993906Y-125862549D01*
X69720164Y-125505354D01*
X69346870Y-125212859D01*
X68908717Y-125011655D01*
X68440401Y-124928334D01*
X68397774Y-124927526D01*
X67853142Y-125000084D01*
X67288066Y-125206906D01*
X66742151Y-125523924D01*
X66255004Y-125927075D01*
X65866229Y-126392292D01*
X65791629Y-126511072D01*
X65681567Y-126712547D01*
X65611846Y-126895599D01*
X65573395Y-127108263D01*
X65557144Y-127398574D01*
X65553999Y-127769398D01*
X65556651Y-128162327D01*
X65572161Y-128435783D01*
X65611863Y-128639617D01*
X65687091Y-128823683D01*
X65809177Y-129037833D01*
X65861966Y-129124065D01*
X66127689Y-129489400D01*
X66433466Y-129759949D01*
X66821215Y-129963803D01*
X67332855Y-130129053D01*
X67379957Y-130141334D01*
X67801290Y-130209895D01*
X68342088Y-130237860D01*
X68957674Y-130226227D01*
X69603367Y-130175991D01*
X70234487Y-130088149D01*
X70301475Y-130076165D01*
X70659059Y-130033562D01*
X71022172Y-130025855D01*
X71211641Y-130041321D01*
X71452417Y-130086763D01*
X71568916Y-130150124D01*
X71605478Y-130264884D01*
X71607666Y-130340328D01*
X71578074Y-130512172D01*
X71459636Y-130627898D01*
X71289838Y-130707116D01*
X71049168Y-130781764D01*
X70709115Y-130860726D01*
X70338436Y-130928261D01*
X70295004Y-130934873D01*
X69927947Y-130993488D01*
X69585286Y-131055162D01*
X69334315Y-131107688D01*
X69311843Y-131113230D01*
X68856739Y-131177317D01*
X68306790Y-131174425D01*
X67721412Y-131107414D01*
X67292343Y-131016133D01*
X66637116Y-130782845D01*
X66031480Y-130449364D01*
X65502367Y-130038227D01*
X65076706Y-129571968D01*
X64781430Y-129073123D01*
X64698823Y-128845924D01*
X64596149Y-128263054D01*
X64595021Y-127626300D01*
X64690808Y-127004001D01*
X64857081Y-126510523D01*
X65130632Y-126049753D01*
X65522838Y-125568715D01*
X65993805Y-125103931D01*
X66503642Y-124691923D01*
X67012455Y-124369211D01*
X67374303Y-124206010D01*
X67654049Y-124128725D01*
X68004024Y-124060046D01*
X68209887Y-124031192D01*
X68494791Y-124008032D01*
X68711485Y-124026227D01*
G37*
D13*
%TO.C,SW12*%
X152095000Y-45165000D02*
X166065000Y-45165000D01*
X152095000Y-59135000D02*
X152095000Y-45165000D01*
X166065000Y-45165000D02*
X166065000Y-59135000D01*
X166065000Y-59135000D02*
X152095000Y-59135000D01*
%TO.C,D13*%
X71000000Y-73660000D02*
X71000000Y-69650000D01*
X71000000Y-73660000D02*
X73000000Y-73660000D01*
X73000000Y-73660000D02*
X73000000Y-69650000D01*
%TD*%
M02*
