M48
; DRILL file {KiCad 9.0.6} date 2026-01-10T21:08:20+0530
; FORMAT={-:-/ absolute / metric / decimal}
; #@! TF.CreationDate,2026-01-10T21:08:20+05:30
; #@! TF.GenerationSoftware,Kicad,Pcbnew,9.0.6
; #@! TF.FileFunction,Plated,1,2,PTH
FMAT,2
METRIC
; #@! TA.AperFunction,Plated,PTH,ViaDrill
T1C0.100
; #@! TA.AperFunction,Plated,PTH,ComponentDrill
T2C1.000
; #@! TA.AperFunction,Plated,PTH,ComponentDrill
T3C1.500
%
G90
G05
T1
X157.25Y-60.48
X158.89Y-61.08
X160.31Y-56.24
X165.19Y-44.65
X167.05Y-40.34
X184.0Y-39.44
X184.01Y-44.52
X184.03Y-41.985
X184.03Y-47.065
X184.03Y-52.145
X184.03Y-54.685
T2
X194.304Y-48.955
X196.844Y-48.955
X199.384Y-48.955
T3
X59.95Y-68.625
X59.96Y-49.59
X59.96Y-87.72
X59.97Y-30.53
X60.01Y-106.81
X66.3Y-66.085
X66.31Y-47.05
X66.31Y-85.18
X66.32Y-27.99
X66.36Y-104.27
X79.0Y-30.53
X79.02Y-87.69
X79.035Y-68.635
X79.04Y-49.58
X79.21Y-106.76
X85.35Y-27.99
X85.37Y-85.15
X85.385Y-66.095
X85.39Y-47.04
X85.56Y-104.22
X94.3Y-140.0
X98.025Y-49.585
X98.04Y-30.53
X98.075Y-68.64
X98.1Y-87.65
X98.21Y-106.76
X100.65Y-137.46
X104.375Y-47.045
X104.39Y-27.99
X104.425Y-66.1
X104.45Y-85.11
X104.56Y-104.22
X113.74Y-128.76
X117.075Y-49.585
X117.08Y-30.53
X117.1Y-87.65
X117.11Y-68.635
X117.21Y-106.76
X120.09Y-126.22
X123.425Y-47.045
X123.43Y-27.99
X123.45Y-85.11
X123.46Y-66.095
X123.56Y-104.22
X132.99Y-131.91
X136.16Y-30.53
X136.165Y-49.585
X136.19Y-68.635
X136.26Y-106.76
X136.29Y-87.76
X139.34Y-129.37
X142.51Y-27.99
X142.515Y-47.045
X142.54Y-66.095
X142.61Y-104.22
X142.64Y-85.22
X152.04Y-144.46
X155.23Y-30.53
X155.27Y-49.61
X155.29Y-68.64
X155.29Y-87.76
X155.29Y-106.76
X158.39Y-141.92
X161.58Y-27.99
X161.62Y-47.07
X161.64Y-66.1
X161.64Y-85.22
X161.64Y-104.22
M30
