M48
; DRILL file {KiCad 9.0.6} date 2026-01-10T21:08:20+0530
; FORMAT={-:-/ absolute / metric / decimal}
; #@! TF.CreationDate,2026-01-10T21:08:20+05:30
; #@! TF.GenerationSoftware,Kicad,Pcbnew,9.0.6
; #@! TF.FileFunction,NonPlated,1,2,NPTH
FMAT,2
METRIC
; #@! TA.AperFunction,NonPlated,NPTH,ComponentDrill
T1C1.700
; #@! TA.AperFunction,NonPlated,NPTH,ComponentDrill
T2C1.850
; #@! TA.AperFunction,NonPlated,NPTH,ComponentDrill
T3C2.200
; #@! TA.AperFunction,NonPlated,NPTH,ComponentDrill
T4C4.000
%
G90
G05
T1
X58.68Y-71.165
X58.69Y-52.13
X58.69Y-90.26
X58.7Y-33.07
X58.74Y-109.35
X68.84Y-71.165
X68.85Y-52.13
X68.85Y-90.26
X68.86Y-33.07
X68.9Y-109.35
X77.73Y-33.07
X77.75Y-90.23
X77.765Y-71.175
X77.77Y-52.12
X77.94Y-109.3
X87.89Y-33.07
X87.91Y-90.23
X87.925Y-71.175
X87.93Y-52.12
X88.1Y-109.3
X93.03Y-142.54
X96.755Y-52.125
X96.77Y-33.07
X96.805Y-71.18
X96.83Y-90.19
X96.94Y-109.3
X103.19Y-142.54
X106.915Y-52.125
X106.93Y-33.07
X106.965Y-71.18
X106.99Y-90.19
X107.1Y-109.3
X112.47Y-131.3
X115.805Y-52.125
X115.81Y-33.07
X115.83Y-90.19
X115.84Y-71.175
X115.94Y-109.3
X122.63Y-131.3
X125.965Y-52.125
X125.97Y-33.07
X125.99Y-90.19
X126.0Y-71.175
X126.1Y-109.3
X131.72Y-134.45
X134.89Y-33.07
X134.895Y-52.125
X134.92Y-71.175
X134.99Y-109.3
X135.02Y-90.3
X141.88Y-134.45
X145.05Y-33.07
X145.055Y-52.125
X145.08Y-71.175
X145.15Y-109.3
X145.18Y-90.3
X150.77Y-147.0
X153.96Y-33.07
X154.0Y-52.15
X154.02Y-71.18
X154.02Y-90.3
X154.02Y-109.3
X160.93Y-147.0
X164.12Y-33.07
X164.16Y-52.15
X164.18Y-71.18
X164.18Y-90.3
X164.18Y-109.3
T2
X191.295Y-22.285
X196.145Y-22.285
T3
X53.0Y-22.865
X53.0Y-116.0
X190.995Y-19.255
X196.445Y-19.255
X216.0Y-22.0
X216.0Y-116.0
T4
X63.76Y-71.165
X63.77Y-52.13
X63.77Y-90.26
X63.78Y-33.07
X63.82Y-109.35
X82.81Y-33.07
X82.83Y-90.23
X82.845Y-71.175
X82.85Y-52.12
X83.02Y-109.3
X98.11Y-142.54
X101.835Y-52.125
X101.85Y-33.07
X101.885Y-71.18
X101.91Y-90.19
X102.02Y-109.3
X117.55Y-131.3
X120.885Y-52.125
X120.89Y-33.07
X120.91Y-90.19
X120.92Y-71.175
X121.02Y-109.3
X136.8Y-134.45
X139.97Y-33.07
X139.975Y-52.125
X140.0Y-71.175
X140.07Y-109.3
X140.1Y-90.3
X155.85Y-147.0
X159.04Y-33.07
X159.08Y-52.15
X159.1Y-71.18
X159.1Y-90.3
X159.1Y-109.3
M30
