%TF.GenerationSoftware,KiCad,Pcbnew,9.0.6*%
%TF.CreationDate,2026-01-10T21:08:18+05:30*%
%TF.ProjectId,pcb,7063622e-6b69-4636-9164-5f7063625858,rev?*%
%TF.SameCoordinates,Original*%
%TF.FileFunction,Soldermask,Top*%
%TF.FilePolarity,Negative*%
%FSLAX46Y46*%
G04 Gerber Fmt 4.6, Leading zero omitted, Abs format (unit mm)*
G04 Created by KiCad (PCBNEW 9.0.6) date 2026-01-10 21:08:18*
%MOMM*%
%LPD*%
G01*
G04 APERTURE LIST*
G04 Aperture macros list*
%AMRoundRect*
0 Rectangle with rounded corners*
0 $1 Rounding radius*
0 $2 $3 $4 $5 $6 $7 $8 $9 X,Y pos of 4 corners*
0 Add a 4 corners polygon primitive as box body*
4,1,4,$2,$3,$4,$5,$6,$7,$8,$9,$2,$3,0*
0 Add four circle primitives for the rounded corners*
1,1,$1+$1,$2,$3*
1,1,$1+$1,$4,$5*
1,1,$1+$1,$6,$7*
1,1,$1+$1,$8,$9*
0 Add four rect primitives between the rounded corners*
20,1,$1+$1,$2,$3,$4,$5,0*
20,1,$1+$1,$4,$5,$6,$7,0*
20,1,$1+$1,$6,$7,$8,$9,0*
20,1,$1+$1,$8,$9,$2,$3,0*%
%AMFreePoly0*
4,1,37,0.800000,0.796148,0.878414,0.796148,1.032228,0.765552,1.177117,0.705537,1.307515,0.618408,1.418408,0.507515,1.505537,0.377117,1.565552,0.232228,1.596148,0.078414,1.596148,-0.078414,1.565552,-0.232228,1.505537,-0.377117,1.418408,-0.507515,1.307515,-0.618408,1.177117,-0.705537,1.032228,-0.765552,0.878414,-0.796148,0.800000,-0.796148,0.800000,-0.800000,-1.400000,-0.800000,
-1.403843,-0.796157,-1.439018,-0.796157,-1.511114,-0.766294,-1.566294,-0.711114,-1.596157,-0.639018,-1.596157,-0.603843,-1.600000,-0.600000,-1.600000,0.600000,-1.596157,0.603843,-1.596157,0.639018,-1.566294,0.711114,-1.511114,0.766294,-1.439018,0.796157,-1.403843,0.796157,-1.400000,0.800000,0.800000,0.800000,0.800000,0.796148,0.800000,0.796148,$1*%
%AMFreePoly1*
4,1,37,1.403843,0.796157,1.439018,0.796157,1.511114,0.766294,1.566294,0.711114,1.596157,0.639018,1.596157,0.603843,1.600000,0.600000,1.600000,-0.600000,1.596157,-0.603843,1.596157,-0.639018,1.566294,-0.711114,1.511114,-0.766294,1.439018,-0.796157,1.403843,-0.796157,1.400000,-0.800000,-0.800000,-0.800000,-0.800000,-0.796148,-0.878414,-0.796148,-1.032228,-0.765552,-1.177117,-0.705537,
-1.307515,-0.618408,-1.418408,-0.507515,-1.505537,-0.377117,-1.565552,-0.232228,-1.596148,-0.078414,-1.596148,0.078414,-1.565552,0.232228,-1.505537,0.377117,-1.418408,0.507515,-1.307515,0.618408,-1.177117,0.705537,-1.032228,0.765552,-0.878414,0.796148,-0.800000,0.796148,-0.800000,0.800000,1.400000,0.800000,1.403843,0.796157,1.403843,0.796157,$1*%
G04 Aperture macros list end*
%ADD10RoundRect,0.225000X0.375000X-0.225000X0.375000X0.225000X-0.375000X0.225000X-0.375000X-0.225000X0*%
%ADD11RoundRect,0.225000X-0.375000X0.225000X-0.375000X-0.225000X0.375000X-0.225000X0.375000X0.225000X0*%
%ADD12C,1.700000*%
%ADD13C,4.000000*%
%ADD14C,2.200000*%
%ADD15RoundRect,0.225000X0.225000X0.375000X-0.225000X0.375000X-0.225000X-0.375000X0.225000X-0.375000X0*%
%ADD16C,1.850000*%
%ADD17FreePoly0,0.000000*%
%ADD18RoundRect,0.800000X-0.800000X-0.000010X0.800000X-0.000010X0.800000X0.000010X-0.800000X0.000010X0*%
%ADD19FreePoly1,0.000000*%
%ADD20RoundRect,0.200000X-0.600000X-0.600000X0.600000X-0.600000X0.600000X0.600000X-0.600000X0.600000X0*%
%ADD21C,1.600000*%
G04 APERTURE END LIST*
D10*
%TO.C,D20*%
X91000000Y-92650000D03*
X91000000Y-89350000D03*
%TD*%
D11*
%TO.C,D33*%
X144860000Y-126320000D03*
X144860000Y-129620000D03*
%TD*%
D12*
%TO.C,SW17*%
X134920000Y-71175000D03*
D13*
X140000000Y-71175000D03*
D12*
X145080000Y-71175000D03*
D14*
X142540000Y-66095000D03*
X136190000Y-68635000D03*
%TD*%
D10*
%TO.C,D18*%
X167000000Y-72950000D03*
X167000000Y-69650000D03*
%TD*%
D12*
%TO.C,SW24*%
X154020000Y-90300000D03*
D13*
X159100000Y-90300000D03*
D12*
X164180000Y-90300000D03*
D14*
X161640000Y-85220000D03*
X155290000Y-87760000D03*
%TD*%
D12*
%TO.C,SW25*%
X58740000Y-109350000D03*
D13*
X63820000Y-109350000D03*
D12*
X68900000Y-109350000D03*
D14*
X66360000Y-104270000D03*
X60010000Y-106810000D03*
%TD*%
D10*
%TO.C,D27*%
X110000000Y-109350000D03*
X110000000Y-106050000D03*
%TD*%
%TO.C,D16*%
X129000000Y-72950000D03*
X129000000Y-69650000D03*
%TD*%
D12*
%TO.C,SW9*%
X96755000Y-52125000D03*
D13*
X101835000Y-52125000D03*
D12*
X106915000Y-52125000D03*
D14*
X104375000Y-47045000D03*
X98025000Y-49585000D03*
%TD*%
D12*
%TO.C,SW8*%
X77770000Y-52120000D03*
D13*
X82850000Y-52120000D03*
D12*
X87930000Y-52120000D03*
D14*
X85390000Y-47040000D03*
X79040000Y-49580000D03*
%TD*%
D10*
%TO.C,D15*%
X110100000Y-72950000D03*
X110100000Y-69650000D03*
%TD*%
D12*
%TO.C,SW29*%
X134990000Y-109300000D03*
D13*
X140070000Y-109300000D03*
D12*
X145150000Y-109300000D03*
D14*
X142610000Y-104220000D03*
X136260000Y-106760000D03*
%TD*%
D12*
%TO.C,SW27*%
X96940000Y-109300000D03*
D13*
X102020000Y-109300000D03*
D12*
X107100000Y-109300000D03*
D14*
X104560000Y-104220000D03*
X98210000Y-106760000D03*
%TD*%
D10*
%TO.C,D4*%
X129000000Y-34350000D03*
X129000000Y-31050000D03*
%TD*%
%TO.C,D23*%
X147550000Y-92650000D03*
X147550000Y-89350000D03*
%TD*%
D12*
%TO.C,SW7*%
X58690000Y-52130000D03*
D13*
X63770000Y-52130000D03*
D12*
X68850000Y-52130000D03*
D14*
X66310000Y-47050000D03*
X59960000Y-49590000D03*
%TD*%
D15*
%TO.C,D31*%
X107650000Y-134000000D03*
X104350000Y-134000000D03*
%TD*%
D12*
%TO.C,SW19*%
X58690000Y-90260000D03*
D13*
X63770000Y-90260000D03*
D12*
X68850000Y-90260000D03*
D14*
X66310000Y-85180000D03*
X59960000Y-87720000D03*
%TD*%
D10*
%TO.C,D1*%
X71200000Y-34350000D03*
X71200000Y-31050000D03*
%TD*%
%TO.C,D2*%
X91000000Y-34350000D03*
X91000000Y-31050000D03*
%TD*%
D14*
%TO.C,REF\u002A\u002A*%
X216000000Y-22000000D03*
%TD*%
D10*
%TO.C,D30*%
X167000000Y-109650000D03*
X167000000Y-106350000D03*
%TD*%
%TO.C,D24*%
X167000000Y-92650000D03*
X167000000Y-89350000D03*
%TD*%
D14*
%TO.C,REF\u002A\u002A*%
X53000000Y-22865000D03*
%TD*%
D12*
%TO.C,SW4*%
X115810000Y-33070000D03*
D13*
X120890000Y-33070000D03*
D12*
X125970000Y-33070000D03*
D14*
X123430000Y-27990000D03*
X117080000Y-30530000D03*
%TD*%
D12*
%TO.C,SW26*%
X77940000Y-109300000D03*
D13*
X83020000Y-109300000D03*
D12*
X88100000Y-109300000D03*
D14*
X85560000Y-104220000D03*
X79210000Y-106760000D03*
%TD*%
D10*
%TO.C,D21*%
X110100000Y-92650000D03*
X110100000Y-89350000D03*
%TD*%
%TO.C,D8*%
X90950000Y-53000000D03*
X90950000Y-49700000D03*
%TD*%
%TO.C,D19*%
X71650000Y-92650000D03*
X71650000Y-89350000D03*
%TD*%
D12*
%TO.C,SW18*%
X154020000Y-71180000D03*
D13*
X159100000Y-71180000D03*
D12*
X164180000Y-71180000D03*
D14*
X161640000Y-66100000D03*
X155290000Y-68640000D03*
%TD*%
D10*
%TO.C,D7*%
X71950000Y-53000000D03*
X71950000Y-49700000D03*
%TD*%
D12*
%TO.C,SW11*%
X134895000Y-52125000D03*
D13*
X139975000Y-52125000D03*
D12*
X145055000Y-52125000D03*
D14*
X142515000Y-47045000D03*
X136165000Y-49585000D03*
%TD*%
D12*
%TO.C,SW31*%
X93030000Y-142540000D03*
D13*
X98110000Y-142540000D03*
D12*
X103190000Y-142540000D03*
D14*
X100650000Y-137460000D03*
X94300000Y-140000000D03*
%TD*%
D12*
%TO.C,SW13*%
X58680000Y-71165000D03*
D13*
X63760000Y-71165000D03*
D12*
X68840000Y-71165000D03*
D14*
X66300000Y-66085000D03*
X59950000Y-68625000D03*
%TD*%
D12*
%TO.C,SW32*%
X112470000Y-131300000D03*
D13*
X117550000Y-131300000D03*
D12*
X122630000Y-131300000D03*
D14*
X120090000Y-126220000D03*
X113740000Y-128760000D03*
%TD*%
D10*
%TO.C,D32*%
X126000000Y-128350000D03*
X126000000Y-125050000D03*
%TD*%
D11*
%TO.C,D34*%
X164000000Y-138350000D03*
X164000000Y-141650000D03*
%TD*%
D12*
%TO.C,SW3*%
X96770000Y-33070000D03*
D13*
X101850000Y-33070000D03*
D12*
X106930000Y-33070000D03*
D14*
X104390000Y-27990000D03*
X98040000Y-30530000D03*
%TD*%
D12*
%TO.C,SW5*%
X134890000Y-33070000D03*
D13*
X139970000Y-33070000D03*
D12*
X145050000Y-33070000D03*
D14*
X142510000Y-27990000D03*
X136160000Y-30530000D03*
%TD*%
D12*
%TO.C,SW1*%
X58700000Y-33070000D03*
D13*
X63780000Y-33070000D03*
D12*
X68860000Y-33070000D03*
D14*
X66320000Y-27990000D03*
X59970000Y-30530000D03*
%TD*%
D10*
%TO.C,D26*%
X91000000Y-109350000D03*
X91000000Y-106050000D03*
%TD*%
D12*
%TO.C,SW34*%
X150770000Y-147000000D03*
D13*
X155850000Y-147000000D03*
D12*
X160930000Y-147000000D03*
D14*
X158390000Y-141920000D03*
X152040000Y-144460000D03*
%TD*%
D10*
%TO.C,D14*%
X91000000Y-72950000D03*
X91000000Y-69650000D03*
%TD*%
%TO.C,D5*%
X148000000Y-34350000D03*
X148000000Y-31050000D03*
%TD*%
D12*
%TO.C,SW22*%
X115830000Y-90190000D03*
D13*
X120910000Y-90190000D03*
D12*
X125990000Y-90190000D03*
D14*
X123450000Y-85110000D03*
X117100000Y-87650000D03*
%TD*%
%TO.C,REF\u002A\u002A*%
X216000000Y-116000000D03*
%TD*%
D10*
%TO.C,D9*%
X109950000Y-53000000D03*
X109950000Y-49700000D03*
%TD*%
D12*
%TO.C,SW15*%
X96805000Y-71180000D03*
D13*
X101885000Y-71180000D03*
D12*
X106965000Y-71180000D03*
D14*
X104425000Y-66100000D03*
X98075000Y-68640000D03*
%TD*%
D12*
%TO.C,SW23*%
X135020000Y-90300000D03*
D13*
X140100000Y-90300000D03*
D12*
X145180000Y-90300000D03*
D14*
X142640000Y-85220000D03*
X136290000Y-87760000D03*
%TD*%
D12*
%TO.C,SW30*%
X154020000Y-109300000D03*
D13*
X159100000Y-109300000D03*
D12*
X164180000Y-109300000D03*
D14*
X161640000Y-104220000D03*
X155290000Y-106760000D03*
%TD*%
D10*
%TO.C,D17*%
X147550000Y-72950000D03*
X147550000Y-69650000D03*
%TD*%
%TO.C,D28*%
X129000000Y-109650000D03*
X129000000Y-106350000D03*
%TD*%
%TO.C,D12*%
X167000000Y-54665000D03*
X167000000Y-51365000D03*
%TD*%
D12*
%TO.C,SW2*%
X77730000Y-33070000D03*
D13*
X82810000Y-33070000D03*
D12*
X87890000Y-33070000D03*
D14*
X85350000Y-27990000D03*
X79000000Y-30530000D03*
%TD*%
D12*
%TO.C,SW20*%
X77750000Y-90230000D03*
D13*
X82830000Y-90230000D03*
D12*
X87910000Y-90230000D03*
D14*
X85370000Y-85150000D03*
X79020000Y-87690000D03*
%TD*%
D10*
%TO.C,D29*%
X148000000Y-109350000D03*
X148000000Y-106050000D03*
%TD*%
D12*
%TO.C,SW21*%
X96830000Y-90190000D03*
D13*
X101910000Y-90190000D03*
D12*
X106990000Y-90190000D03*
D14*
X104450000Y-85110000D03*
X98100000Y-87650000D03*
%TD*%
D10*
%TO.C,D22*%
X128550000Y-92650000D03*
X128550000Y-89350000D03*
%TD*%
D14*
%TO.C,A1*%
X190995000Y-19255000D03*
D16*
X191295000Y-22285000D03*
X196145000Y-22285000D03*
D14*
X196445000Y-19255000D03*
D17*
X184030000Y-19125000D03*
D18*
X184030000Y-21665000D03*
D19*
X184030000Y-24205000D03*
D18*
X184030000Y-26745000D03*
X184030000Y-29285000D03*
X184030000Y-31825000D03*
X184030000Y-34365000D03*
D19*
X184030000Y-36905000D03*
D18*
X184030000Y-39445000D03*
X184030000Y-41985000D03*
X184030000Y-44525000D03*
X184030000Y-47065000D03*
D19*
X184030000Y-49605000D03*
D18*
X184030000Y-52145000D03*
X184030000Y-54685000D03*
X184030000Y-57225000D03*
X184030000Y-59765000D03*
D19*
X184030000Y-62305000D03*
D18*
X184030000Y-64845000D03*
X184030000Y-67385000D03*
X203410000Y-67385000D03*
X203410000Y-64845000D03*
D17*
X203410000Y-62305000D03*
D18*
X203410000Y-59765000D03*
X203410000Y-57225000D03*
X203410000Y-54685000D03*
X203410000Y-52145000D03*
D17*
X203410000Y-49605000D03*
D18*
X203410000Y-47065000D03*
X203410000Y-44525000D03*
X203410000Y-41985000D03*
X203410000Y-39445000D03*
D17*
X203410000Y-36905000D03*
D18*
X203410000Y-34365000D03*
X203410000Y-31825000D03*
X203410000Y-29285000D03*
X203410000Y-26745000D03*
D17*
X203410000Y-24205000D03*
D18*
X203410000Y-21665000D03*
X203410000Y-19125000D03*
D20*
X194304100Y-48955000D03*
D21*
X196844100Y-48955000D03*
X199384100Y-48955000D03*
%TD*%
D10*
%TO.C,D6*%
X167000000Y-34350000D03*
X167000000Y-31050000D03*
%TD*%
D12*
%TO.C,SW10*%
X115805000Y-52125000D03*
D13*
X120885000Y-52125000D03*
D12*
X125965000Y-52125000D03*
D14*
X123425000Y-47045000D03*
X117075000Y-49585000D03*
%TD*%
D10*
%TO.C,D11*%
X148425000Y-53575000D03*
X148425000Y-50275000D03*
%TD*%
D12*
%TO.C,SW16*%
X115840000Y-71175000D03*
D13*
X120920000Y-71175000D03*
D12*
X126000000Y-71175000D03*
D14*
X123460000Y-66095000D03*
X117110000Y-68635000D03*
%TD*%
D10*
%TO.C,D10*%
X128950000Y-53015000D03*
X128950000Y-49715000D03*
%TD*%
%TO.C,D25*%
X71550000Y-109350000D03*
X71550000Y-106050000D03*
%TD*%
%TO.C,D3*%
X110000000Y-34350000D03*
X110000000Y-31050000D03*
%TD*%
D12*
%TO.C,SW33*%
X131720000Y-134450000D03*
D13*
X136800000Y-134450000D03*
D12*
X141880000Y-134450000D03*
D14*
X139340000Y-129370000D03*
X132990000Y-131910000D03*
%TD*%
D12*
%TO.C,SW14*%
X77765000Y-71175000D03*
D13*
X82845000Y-71175000D03*
D12*
X87925000Y-71175000D03*
D14*
X85385000Y-66095000D03*
X79035000Y-68635000D03*
%TD*%
D12*
%TO.C,SW28*%
X115940000Y-109300000D03*
D13*
X121020000Y-109300000D03*
D12*
X126100000Y-109300000D03*
D14*
X123560000Y-104220000D03*
X117210000Y-106760000D03*
%TD*%
%TO.C,REF\u002A\u002A*%
X53000000Y-116000000D03*
%TD*%
D12*
%TO.C,SW6*%
X153960000Y-33070000D03*
D13*
X159040000Y-33070000D03*
D12*
X164120000Y-33070000D03*
D14*
X161580000Y-27990000D03*
X155230000Y-30530000D03*
%TD*%
D12*
%TO.C,SW12*%
X154000000Y-52150000D03*
D13*
X159080000Y-52150000D03*
D12*
X164160000Y-52150000D03*
D14*
X161620000Y-47070000D03*
X155270000Y-49610000D03*
%TD*%
D10*
%TO.C,D13*%
X72000000Y-72950000D03*
X72000000Y-69650000D03*
%TD*%
M02*
