%TF.GenerationSoftware,KiCad,Pcbnew,9.0.6*%
%TF.CreationDate,2026-01-10T21:08:18+05:30*%
%TF.ProjectId,pcb,7063622e-6b69-4636-9164-5f7063625858,rev?*%
%TF.SameCoordinates,Original*%
%TF.FileFunction,Soldermask,Bot*%
%TF.FilePolarity,Negative*%
%FSLAX46Y46*%
G04 Gerber Fmt 4.6, Leading zero omitted, Abs format (unit mm)*
G04 Created by KiCad (PCBNEW 9.0.6) date 2026-01-10 21:08:18*
%MOMM*%
%LPD*%
G01*
G04 APERTURE LIST*
G04 Aperture macros list*
%AMRoundRect*
0 Rectangle with rounded corners*
0 $1 Rounding radius*
0 $2 $3 $4 $5 $6 $7 $8 $9 X,Y pos of 4 corners*
0 Add a 4 corners polygon primitive as box body*
4,1,4,$2,$3,$4,$5,$6,$7,$8,$9,$2,$3,0*
0 Add four circle primitives for the rounded corners*
1,1,$1+$1,$2,$3*
1,1,$1+$1,$4,$5*
1,1,$1+$1,$6,$7*
1,1,$1+$1,$8,$9*
0 Add four rect primitives between the rounded corners*
20,1,$1+$1,$2,$3,$4,$5,0*
20,1,$1+$1,$4,$5,$6,$7,0*
20,1,$1+$1,$6,$7,$8,$9,0*
20,1,$1+$1,$8,$9,$2,$3,0*%
G04 Aperture macros list end*
%ADD10C,1.700000*%
%ADD11C,4.000000*%
%ADD12C,2.200000*%
%ADD13C,1.850000*%
%ADD14RoundRect,0.200000X-0.600000X-0.600000X0.600000X-0.600000X0.600000X0.600000X-0.600000X0.600000X0*%
%ADD15C,1.600000*%
G04 APERTURE END LIST*
D10*
%TO.C,SW17*%
X134920000Y-71175000D03*
D11*
X140000000Y-71175000D03*
D10*
X145080000Y-71175000D03*
D12*
X142540000Y-66095000D03*
X136190000Y-68635000D03*
%TD*%
D10*
%TO.C,SW24*%
X154020000Y-90300000D03*
D11*
X159100000Y-90300000D03*
D10*
X164180000Y-90300000D03*
D12*
X161640000Y-85220000D03*
X155290000Y-87760000D03*
%TD*%
D10*
%TO.C,SW25*%
X58740000Y-109350000D03*
D11*
X63820000Y-109350000D03*
D10*
X68900000Y-109350000D03*
D12*
X66360000Y-104270000D03*
X60010000Y-106810000D03*
%TD*%
D10*
%TO.C,SW9*%
X96755000Y-52125000D03*
D11*
X101835000Y-52125000D03*
D10*
X106915000Y-52125000D03*
D12*
X104375000Y-47045000D03*
X98025000Y-49585000D03*
%TD*%
D10*
%TO.C,SW8*%
X77770000Y-52120000D03*
D11*
X82850000Y-52120000D03*
D10*
X87930000Y-52120000D03*
D12*
X85390000Y-47040000D03*
X79040000Y-49580000D03*
%TD*%
D10*
%TO.C,SW29*%
X134990000Y-109300000D03*
D11*
X140070000Y-109300000D03*
D10*
X145150000Y-109300000D03*
D12*
X142610000Y-104220000D03*
X136260000Y-106760000D03*
%TD*%
D10*
%TO.C,SW27*%
X96940000Y-109300000D03*
D11*
X102020000Y-109300000D03*
D10*
X107100000Y-109300000D03*
D12*
X104560000Y-104220000D03*
X98210000Y-106760000D03*
%TD*%
D10*
%TO.C,SW7*%
X58690000Y-52130000D03*
D11*
X63770000Y-52130000D03*
D10*
X68850000Y-52130000D03*
D12*
X66310000Y-47050000D03*
X59960000Y-49590000D03*
%TD*%
D10*
%TO.C,SW19*%
X58690000Y-90260000D03*
D11*
X63770000Y-90260000D03*
D10*
X68850000Y-90260000D03*
D12*
X66310000Y-85180000D03*
X59960000Y-87720000D03*
%TD*%
%TO.C,REF\u002A\u002A*%
X216000000Y-22000000D03*
%TD*%
%TO.C,REF\u002A\u002A*%
X53000000Y-22865000D03*
%TD*%
D10*
%TO.C,SW4*%
X115810000Y-33070000D03*
D11*
X120890000Y-33070000D03*
D10*
X125970000Y-33070000D03*
D12*
X123430000Y-27990000D03*
X117080000Y-30530000D03*
%TD*%
D10*
%TO.C,SW26*%
X77940000Y-109300000D03*
D11*
X83020000Y-109300000D03*
D10*
X88100000Y-109300000D03*
D12*
X85560000Y-104220000D03*
X79210000Y-106760000D03*
%TD*%
D10*
%TO.C,SW18*%
X154020000Y-71180000D03*
D11*
X159100000Y-71180000D03*
D10*
X164180000Y-71180000D03*
D12*
X161640000Y-66100000D03*
X155290000Y-68640000D03*
%TD*%
D10*
%TO.C,SW11*%
X134895000Y-52125000D03*
D11*
X139975000Y-52125000D03*
D10*
X145055000Y-52125000D03*
D12*
X142515000Y-47045000D03*
X136165000Y-49585000D03*
%TD*%
D10*
%TO.C,SW31*%
X93030000Y-142540000D03*
D11*
X98110000Y-142540000D03*
D10*
X103190000Y-142540000D03*
D12*
X100650000Y-137460000D03*
X94300000Y-140000000D03*
%TD*%
D10*
%TO.C,SW13*%
X58680000Y-71165000D03*
D11*
X63760000Y-71165000D03*
D10*
X68840000Y-71165000D03*
D12*
X66300000Y-66085000D03*
X59950000Y-68625000D03*
%TD*%
D10*
%TO.C,SW32*%
X112470000Y-131300000D03*
D11*
X117550000Y-131300000D03*
D10*
X122630000Y-131300000D03*
D12*
X120090000Y-126220000D03*
X113740000Y-128760000D03*
%TD*%
D10*
%TO.C,SW3*%
X96770000Y-33070000D03*
D11*
X101850000Y-33070000D03*
D10*
X106930000Y-33070000D03*
D12*
X104390000Y-27990000D03*
X98040000Y-30530000D03*
%TD*%
D10*
%TO.C,SW5*%
X134890000Y-33070000D03*
D11*
X139970000Y-33070000D03*
D10*
X145050000Y-33070000D03*
D12*
X142510000Y-27990000D03*
X136160000Y-30530000D03*
%TD*%
D10*
%TO.C,SW1*%
X58700000Y-33070000D03*
D11*
X63780000Y-33070000D03*
D10*
X68860000Y-33070000D03*
D12*
X66320000Y-27990000D03*
X59970000Y-30530000D03*
%TD*%
D10*
%TO.C,SW34*%
X150770000Y-147000000D03*
D11*
X155850000Y-147000000D03*
D10*
X160930000Y-147000000D03*
D12*
X158390000Y-141920000D03*
X152040000Y-144460000D03*
%TD*%
D10*
%TO.C,SW22*%
X115830000Y-90190000D03*
D11*
X120910000Y-90190000D03*
D10*
X125990000Y-90190000D03*
D12*
X123450000Y-85110000D03*
X117100000Y-87650000D03*
%TD*%
%TO.C,REF\u002A\u002A*%
X216000000Y-116000000D03*
%TD*%
D10*
%TO.C,SW15*%
X96805000Y-71180000D03*
D11*
X101885000Y-71180000D03*
D10*
X106965000Y-71180000D03*
D12*
X104425000Y-66100000D03*
X98075000Y-68640000D03*
%TD*%
D10*
%TO.C,SW23*%
X135020000Y-90300000D03*
D11*
X140100000Y-90300000D03*
D10*
X145180000Y-90300000D03*
D12*
X142640000Y-85220000D03*
X136290000Y-87760000D03*
%TD*%
D10*
%TO.C,SW30*%
X154020000Y-109300000D03*
D11*
X159100000Y-109300000D03*
D10*
X164180000Y-109300000D03*
D12*
X161640000Y-104220000D03*
X155290000Y-106760000D03*
%TD*%
D10*
%TO.C,SW2*%
X77730000Y-33070000D03*
D11*
X82810000Y-33070000D03*
D10*
X87890000Y-33070000D03*
D12*
X85350000Y-27990000D03*
X79000000Y-30530000D03*
%TD*%
D10*
%TO.C,SW20*%
X77750000Y-90230000D03*
D11*
X82830000Y-90230000D03*
D10*
X87910000Y-90230000D03*
D12*
X85370000Y-85150000D03*
X79020000Y-87690000D03*
%TD*%
D10*
%TO.C,SW21*%
X96830000Y-90190000D03*
D11*
X101910000Y-90190000D03*
D10*
X106990000Y-90190000D03*
D12*
X104450000Y-85110000D03*
X98100000Y-87650000D03*
%TD*%
%TO.C,A1*%
X190995000Y-19255000D03*
D13*
X191295000Y-22285000D03*
X196145000Y-22285000D03*
D12*
X196445000Y-19255000D03*
D14*
X194304100Y-48955000D03*
D15*
X196844100Y-48955000D03*
X199384100Y-48955000D03*
%TD*%
D10*
%TO.C,SW10*%
X115805000Y-52125000D03*
D11*
X120885000Y-52125000D03*
D10*
X125965000Y-52125000D03*
D12*
X123425000Y-47045000D03*
X117075000Y-49585000D03*
%TD*%
D10*
%TO.C,SW16*%
X115840000Y-71175000D03*
D11*
X120920000Y-71175000D03*
D10*
X126000000Y-71175000D03*
D12*
X123460000Y-66095000D03*
X117110000Y-68635000D03*
%TD*%
D10*
%TO.C,SW33*%
X131720000Y-134450000D03*
D11*
X136800000Y-134450000D03*
D10*
X141880000Y-134450000D03*
D12*
X139340000Y-129370000D03*
X132990000Y-131910000D03*
%TD*%
D10*
%TO.C,SW14*%
X77765000Y-71175000D03*
D11*
X82845000Y-71175000D03*
D10*
X87925000Y-71175000D03*
D12*
X85385000Y-66095000D03*
X79035000Y-68635000D03*
%TD*%
D10*
%TO.C,SW28*%
X115940000Y-109300000D03*
D11*
X121020000Y-109300000D03*
D10*
X126100000Y-109300000D03*
D12*
X123560000Y-104220000D03*
X117210000Y-106760000D03*
%TD*%
%TO.C,REF\u002A\u002A*%
X53000000Y-116000000D03*
%TD*%
D10*
%TO.C,SW6*%
X153960000Y-33070000D03*
D11*
X159040000Y-33070000D03*
D10*
X164120000Y-33070000D03*
D12*
X161580000Y-27990000D03*
X155230000Y-30530000D03*
%TD*%
D10*
%TO.C,SW12*%
X154000000Y-52150000D03*
D11*
X159080000Y-52150000D03*
D10*
X164160000Y-52150000D03*
D12*
X161620000Y-47070000D03*
X155270000Y-49610000D03*
%TD*%
M02*
