  0
SECTION
  2
HEADER
  9
$ANGBASE
  50
0.0
  9
$ANGDIR
  70
1
  9
$MEASUREMENT
  70
0
  0
ENDSEC
  0
SECTION
  2
TABLES
  0
TABLE
  2
LTYPE
  70
4
  0
LTYPE
  5
40F
  2
CONTINUOUS
  70
0
  3
Solid line
  72
65
  73
0
  40
0.0
  0
LTYPE
  5
410
  2
DASHDOT
 70
0
  3
Dash Dot ____ _ ____ _
 72
65
 73
4
 40
2.0
 49
1.25
 49
-0.25
 49
0.25
 49
-0.25
  0
LTYPE
  5
411
  2
DASHED
 70
0
  3
Dashed __ __ __ __ __
 72
65
 73
2
 40
0.75
 49
0.5
 49
-0.25
  0
LTYPE
  5
43B
  2
DOTTED
 70
0
  3
Dotted .  .  .  .
 72
65
 73
2
 40
0.2
 49
0.0
 49
-0.2
  0
ENDTAB
  0
TABLE
  2
STYLE
  70
4
  0
STYLE
  2
KICAD
  70
0
  40
0
  41
1
  42
1
  50
0
  71
0
  3
isocp.shx
  0
STYLE
  2
KICADB
  70
0
  40
0
  41
1
  42
1
  50
0
  71
0
  3
isocp.shx
  0
STYLE
  2
KICADI
  70
0
  40
0
  41
1
  42
1
  50
15
  71
0
  3
isocp.shx
  0
STYLE
  2
KICADBI
  70
0
  40
0
  41
1
  42
1
  50
15
  71
0
  3
isocp.shx
  0
ENDTAB
  0
TABLE
  2
LAYER
  70
1
  0
LAYER
  2
BLACK
  70
0
  62
7
  6
CONTINUOUS
  0
ENDTAB
  0
ENDSEC
  0
SECTION
  2
ENTITIES
0
LINE
8
BLACK
6
CONTINUOUS
10
8.6617893700787398
20
-0.7077501968503936
11
8.66179125984252
21
-0.7077520866141732
0
LINE
8
BLACK
6
CONTINUOUS
10
8.66179125984252
20
-0.7077520866141732
11
8.6617939763779521
21
-0.7077520866141732
0
LINE
8
BLACK
6
CONTINUOUS
10
8.6617939763779521
20
-0.7077520866141732
11
8.6620570472440939
21
-0.708015157480315
0
LINE
8
BLACK
6
CONTINUOUS
10
8.6620570472440939
20
-0.708015157480315
11
8.6623247637795266
21
-0.7082801574803149
0
LINE
8
BLACK
6
CONTINUOUS
10
8.6623247637795266
20
-0.7082801574803149
11
8.6623247637795266
21
-0.708282874015748
0
LINE
8
BLACK
6
CONTINUOUS
10
8.6623247637795266
20
-0.708282874015748
11
8.6623266535433068
21
-0.7082847637795275
0
LINE
8
BLACK
6
CONTINUOUS
10
8.6623266535433068
20
-0.7082847637795275
11
8.66240157480315
21
-0.7086614173228346
0
LINE
8
BLACK
6
CONTINUOUS
10
8.66240157480315
20
-0.7086614173228346
11
8.66240157480315
21
-4.7244094488188972
0
LINE
8
BLACK
6
CONTINUOUS
10
8.66240157480315
20
-4.7244094488188972
11
8.6623266535433068
21
-4.7247861023622049
0
LINE
8
BLACK
6
CONTINUOUS
10
8.6623266535433068
20
-4.7247861023622049
11
8.6622931102362202
21
-4.7248196062992127
0
LINE
8
BLACK
6
CONTINUOUS
10
8.6622931102362202
20
-4.7248196062992127
11
8.6622888188976379
21
-4.7248668897637796
0
LINE
8
BLACK
6
CONTINUOUS
10
8.6622888188976379
20
-4.7248668897637796
11
8.662047401574803
21
-4.7251655905511809
0
LINE
8
BLACK
6
CONTINUOUS
10
8.662047401574803
20
-4.7251655905511809
11
6.7722836614173225
21
-6.29996874015748
0
LINE
8
BLACK
6
CONTINUOUS
10
6.7722836614173225
20
-6.29996874015748
11
6.7720637007874016
21
-6.3000883858267711
0
LINE
8
BLACK
6
CONTINUOUS
10
6.7720637007874016
20
-6.3000883858267711
11
6.7720301968503938
21
-6.3001219291338577
0
LINE
8
BLACK
6
CONTINUOUS
10
6.7720301968503938
20
-6.3001219291338577
11
6.77198594488189
21
-6.3001307086614169
0
LINE
8
BLACK
6
CONTINUOUS
10
6.77198594488189
20
-6.3001307086614169
11
6.7719463385826772
21
-6.3001522834645671
0
LINE
8
BLACK
6
CONTINUOUS
10
6.7719463385826772
20
-6.3001522834645671
11
6.7718991338582679
21
-6.300147992125984
0
LINE
8
BLACK
6
CONTINUOUS
10
6.7718991338582679
20
-6.300147992125984
11
6.7716535433070861
21
-6.3001968503937009
0
LINE
8
BLACK
6
CONTINUOUS
10
6.7716535433070861
20
-6.3001968503937009
11
3.1496062992125982
21
-6.3001968503937009
0
LINE
8
BLACK
6
CONTINUOUS
10
3.1496062992125982
20
-6.3001968503937009
11
3.1492296456692914
21
-6.3001219291338577
0
LINE
8
BLACK
6
CONTINUOUS
10
3.1492296456692914
20
-6.3001219291338577
11
3.1491833070866142
21
-6.3000755905511809
0
LINE
8
BLACK
6
CONTINUOUS
10
3.1491833070866142
20
-6.3000755905511809
11
3.1491182677165352
21
-6.3000673622047243
0
LINE
8
BLACK
6
CONTINUOUS
10
3.1491182677165352
20
-6.3000673622047243
11
3.1488283464566926
21
-6.2998155511811023
0
LINE
8
BLACK
6
CONTINUOUS
10
3.1488283464566926
20
-6.2998155511811023
11
1.9283559055118109
21
-4.7250123622047244
0
LINE
8
BLACK
6
CONTINUOUS
10
1.9283559055118109
20
-4.7250123622047244
11
1.9282612992125985
21
-4.7248228740157483
0
LINE
8
BLACK
6
CONTINUOUS
10
1.9282612992125985
20
-4.7248228740157483
11
1.928224527559055
21
-4.7247861023622049
0
LINE
8
BLACK
6
CONTINUOUS
10
1.928224527559055
20
-4.7247861023622049
11
1.9282123228346457
21
-4.7247247637795278
0
LINE
8
BLACK
6
CONTINUOUS
10
1.9282123228346457
20
-4.7247247637795278
11
1.9281843700787402
21
-4.7246687795275593
0
LINE
8
BLACK
6
CONTINUOUS
10
1.9281843700787402
20
-4.7246687795275593
11
1.9281909055118109
21
-4.7246171259842518
0
LINE
8
BLACK
6
CONTINUOUS
10
1.9281909055118109
20
-4.7246171259842518
11
1.9281496062992125
21
-4.7244094488188972
0
LINE
8
BLACK
6
CONTINUOUS
10
1.9281496062992125
20
-4.7244094488188972
11
1.9281496062992125
21
-0.7427165354330708
0
LINE
8
BLACK
6
CONTINUOUS
10
1.9281496062992125
20
-0.7427165354330708
11
1.9282226377952756
21
-0.7423492519685039
0
LINE
8
BLACK
6
CONTINUOUS
10
1.9282226377952756
20
-0.7423492519685039
11
1.9282226377952756
21
-0.7423444881889764
0
LINE
8
BLACK
6
CONTINUOUS
10
1.9282226377952756
20
-0.7423444881889764
11
1.9282238188976377
21
-0.7423432283464567
0
LINE
8
BLACK
6
CONTINUOUS
10
1.9282238188976377
20
-0.7423432283464567
11
1.928224527559055
21
-0.7423398818897637
0
LINE
8
BLACK
6
CONTINUOUS
10
1.928224527559055
20
-0.7423398818897637
11
1.928489527559055
21
-0.742074842519685
0
LINE
8
BLACK
6
CONTINUOUS
10
1.928489527559055
20
-0.742074842519685
11
1.9287525984251968
21
-0.7418091338582677
0
LINE
8
BLACK
6
CONTINUOUS
10
1.9287525984251968
20
-0.7418091338582677
11
1.9287559448818896
21
-0.7418084251968504
0
LINE
8
BLACK
6
CONTINUOUS
10
1.9287559448818896
20
-0.7418084251968504
11
1.9287572047244095
21
-0.7418072047244094
0
LINE
8
BLACK
6
CONTINUOUS
10
1.9287572047244095
20
-0.7418072047244094
11
1.9287620472440945
21
-0.7418072047244094
0
LINE
8
BLACK
6
CONTINUOUS
10
1.9287620472440945
20
-0.7418072047244094
11
1.9291288976377952
21
-0.7417322834645669
0
LINE
8
BLACK
6
CONTINUOUS
10
1.9291288976377952
20
-0.7417322834645669
11
8.6614123622047234
21
-0.7076771653543307
0
LINE
8
BLACK
6
CONTINUOUS
10
8.6614123622047234
20
-0.7076771653543307
11
8.6617893700787398
21
-0.7077501968503936
0
LINE
8
BLACK
6
CONTINUOUS
10
1.9301181102362204
20
-0.7436958267716536
11
1.9301181102362204
21
-4.7240727165354333
0
LINE
8
BLACK
6
CONTINUOUS
10
1.9301181102362204
20
-4.7240727165354333
11
3.1500887401574804
21
-6.2982283464566926
0
LINE
8
BLACK
6
CONTINUOUS
10
3.1500887401574804
20
-6.2982283464566926
11
6.7712971653543308
21
-6.2982283464566926
0
LINE
8
BLACK
6
CONTINUOUS
10
6.7712971653543308
20
-6.2982283464566926
11
8.6604330708661408
21
-4.7239484251968502
0
LINE
8
BLACK
6
CONTINUOUS
10
8.6604330708661408
20
-4.7239484251968502
11
8.6604330708661408
21
-0.7096506692913386
0
LINE
8
BLACK
6
CONTINUOUS
10
8.6604330708661408
20
-0.7096506692913386
11
1.9301181102362204
21
-0.7436958267716536
0
LINE
8
BLACK
6
CONTINUOUS
10
7.7828569685039373
20
-0.695941062992126
11
7.783389645669291
21
-0.6964737401574803
0
LINE
8
BLACK
6
CONTINUOUS
10
7.783389645669291
20
-0.6964737401574803
11
7.7834645669291334
21
-0.6968503937007874
0
LINE
8
BLACK
6
CONTINUOUS
10
7.7834645669291334
20
-0.6968503937007874
11
7.7834645669291334
21
-0.7007874015748031
0
LINE
8
BLACK
6
CONTINUOUS
10
7.7834645669291334
20
-0.7007874015748031
11
7.783389645669291
21
-0.7011640551181102
0
LINE
8
BLACK
6
CONTINUOUS
10
7.783389645669291
20
-0.7011640551181102
11
7.7828569685039373
21
-0.7016967322834645
0
LINE
8
BLACK
6
CONTINUOUS
10
7.7828569685039373
20
-0.7016967322834645
11
7.7824803149606296
21
-0.7017716535433071
0
LINE
8
BLACK
6
CONTINUOUS
10
7.7824803149606296
20
-0.7017716535433071
11
7.4724409448818898
21
-0.7017716535433071
0
LINE
8
BLACK
6
CONTINUOUS
10
7.4724409448818898
20
-0.7017716535433071
11
7.4720642913385822
21
-0.7016967322834645
0
LINE
8
BLACK
6
CONTINUOUS
10
7.4720642913385822
20
-0.7016967322834645
11
7.4715316141732284
21
-0.7011640551181102
0
LINE
8
BLACK
6
CONTINUOUS
10
7.4715316141732284
20
-0.7011640551181102
11
7.4714566929133861
21
-0.7007874015748031
0
LINE
8
BLACK
6
CONTINUOUS
10
7.4714566929133861
20
-0.7007874015748031
11
7.4714566929133861
21
-0.6968503937007874
0
LINE
8
BLACK
6
CONTINUOUS
10
7.4714566929133861
20
-0.6968503937007874
11
7.4715316141732284
21
-0.6964737401574803
0
LINE
8
BLACK
6
CONTINUOUS
10
7.4715316141732284
20
-0.6964737401574803
11
7.4720642913385822
21
-0.695941062992126
0
LINE
8
BLACK
6
CONTINUOUS
10
7.4720642913385822
20
-0.695941062992126
11
7.4724409448818898
21
-0.6958661417322834
0
LINE
8
BLACK
6
CONTINUOUS
10
7.4724409448818898
20
-0.6958661417322834
11
7.7824803149606296
21
-0.6958661417322834
0
LINE
8
BLACK
6
CONTINUOUS
10
7.7824803149606296
20
-0.6958661417322834
11
7.7828569685039373
21
-0.695941062992126
0
LINE
8
BLACK
6
CONTINUOUS
10
7.4734251968503935
20
-0.6978346456692913
11
7.4734251968503935
21
-0.6998031496062992
0
LINE
8
BLACK
6
CONTINUOUS
10
7.4734251968503935
20
-0.6998031496062992
11
7.7814960629921259
21
-0.6998031496062992
0
LINE
8
BLACK
6
CONTINUOUS
10
7.7814960629921259
20
-0.6998031496062992
11
7.7814960629921259
21
-0.6978346456692913
0
LINE
8
BLACK
6
CONTINUOUS
10
7.7814960629921259
20
-0.6978346456692913
11
7.4734251968503935
21
-0.6978346456692913
  0
ENDSEC
  0
EOF
